<svg width="24" height="24" viewBox="0 0 24 24" fill="none" xmlns="http://www.w3.org/2000/svg">
<path d="M6.60938 1.64062C6 1.64062 5.34844 1.68656 4.8 1.77563C4.41094 1.83938 4.06875 1.93453 3.83906 2.02547C3.99844 3.17766 4.06406 4.72969 3.83906 6.24844C3.60938 7.81875 3.075 9.36094 1.92188 10.2469V13.7812H8.57812V12.6094H11.5781V6.525C10.8281 6.06562 10.2938 5.31094 9.84844 4.51875C9.36094 3.64125 8.98594 2.69484 8.62031 1.97016L8.5875 1.89844C8.52187 1.86375 8.38125 1.81219 8.19375 1.77187C7.8 1.68844 7.22344 1.64062 6.60938 1.64062ZM17.3906 1.64062C16.7766 1.64062 16.2 1.68844 15.8063 1.77187C15.6188 1.81219 15.4781 1.86375 15.4125 1.89844L15.3797 1.97016C15.0141 2.69484 14.6391 3.64125 14.1516 4.51875C13.7062 5.31094 13.1719 6.06562 12.4219 6.525V12.6094H15.4219V13.7812H22.0781V10.2469C20.925 9.36094 20.3906 7.81875 20.1609 6.24844C19.9359 4.72969 20.0016 3.17766 20.1609 2.02547C19.9312 1.93453 19.5938 1.83938 19.2 1.77563C18.6516 1.68656 18 1.64062 17.3906 1.64062ZM9.42188 13.4531V16.3594H14.5781V13.4531H9.42188ZM10.5 14.1094H13.5V14.9531H10.5V14.1094ZM1.92188 16.125V19.0312C1.92188 19.0922 1.93594 19.2094 1.95937 19.3594H11.55C11.5687 19.2422 11.5781 19.1344 11.5781 19.0312V17.2031H8.57812V16.125H1.92188ZM15.4219 16.125V17.2031H12.4219V19.0312C12.4219 19.1344 12.4313 19.2422 12.45 19.3594H22.0406C22.0641 19.2094 22.0781 19.0922 22.0781 19.0312V16.125H15.4219ZM2.12813 20.2031C2.19844 20.4844 2.27812 20.7797 2.36719 21.0563C2.50313 21.4594 2.6625 21.8344 2.8125 22.0828C2.88281 22.2094 2.95781 22.2984 3.00469 22.3359C3.02344 22.3547 3.02344 22.3594 3.02812 22.3594H9.75C9.72656 22.3594 9.91875 22.3031 10.125 22.1016C10.3359 21.9 10.5797 21.5953 10.8 21.2438C11.0016 20.925 11.1797 20.5594 11.3156 20.2031H2.12813ZM12.6844 20.2031C12.8203 20.5594 12.9984 20.925 13.2 21.2438C13.4203 21.5953 13.6641 21.9 13.875 22.1016C14.0813 22.3031 14.2734 22.3594 14.25 22.3594H20.9719L20.9953 22.3359C21.0422 22.2984 21.1125 22.2094 21.1875 22.0828C21.3375 21.8344 21.4969 21.4594 21.6328 21.0563C21.7219 20.7797 21.8062 20.4844 21.8719 20.2031H12.6844Z" fill="black"/>
</svg>
