<svg width="390" height="724" viewBox="0 0 390 724" fill="none" xmlns="http://www.w3.org/2000/svg">
<path d="M-90.1659 0.296761C-128.316 -3.77757 -171.954 35.4483 -171.954 35.4483L-181 188.82L452.954 194L462 35.4483C462 35.4483 462 0.296761 411.495 0.296761C360.989 0.296761 380.08 40.6738 342.35 39.7407C306.156 38.8457 327.822 0.296761 278.824 0.296761C229.826 0.296761 252.351 35.6957 219.273 35.4483C186.606 35.204 211.735 0.296761 161.23 0.296761C110.724 0.296761 118.601 37.3333 91.9418 35.4483C65.2823 33.5632 77.5569 0.296761 36.0973 0.296761C-5.36226 0.296761 -15.9655 52.8892 -33.421 31.7781C-50.8766 10.6671 -52.0159 4.37109 -90.1659 0.296761Z" fill="white"/>
<rect y="190" width="390" height="534" fill="white"/>
</svg>
