<svg width="390" height="759" viewBox="0 0 390 759" fill="none" xmlns="http://www.w3.org/2000/svg">
<path d="M-201.245 16.0065C-336.801 2.18741 -491.858 135.232 -491.858 135.232L-524 655.43L1728.59 673L1760.73 135.232C1760.73 135.232 1760.73 16.0065 1581.28 16.0065C1401.82 16.0065 1469.65 152.955 1335.59 149.791C1206.98 146.755 1283.97 16.0065 1109.86 16.0065C935.765 16.0065 1015.8 136.071 898.266 135.232C782.192 134.403 871.481 16.0065 692.024 16.0065C512.567 16.0065 540.555 141.625 445.827 135.232C351.1 128.838 394.714 16.0065 247.398 16.0065C100.083 16.0065 62.4072 194.387 0.383362 122.784C-61.6404 51.1802 -65.6887 29.8257 -201.245 16.0065Z" fill="#528EDB"/>
<path d="M-377.038 37.9148C-510.581 25.3557 -663.336 146.268 -663.336 146.268L-695 619.032L1524.14 635L1555.8 146.268C1555.8 146.268 1555.8 37.9148 1379.01 37.9148C1202.22 37.9148 1269.04 162.376 1136.97 159.5C1010.27 156.741 1086.11 37.9148 914.6 37.9148C743.085 37.9148 821.932 147.031 706.143 146.268C591.793 145.515 679.756 37.9148 502.964 37.9148C326.172 37.9148 353.744 152.079 260.424 146.268C167.103 140.458 210.07 37.9148 64.9421 37.9148C-80.1857 37.9148 -117.302 200.03 -178.404 134.955C-239.507 69.8811 -243.495 50.4738 -377.038 37.9148Z" fill="#93BCFE" stroke="#93BCFE"/>
<path d="M-409.256 1.91476C-520.028 -10.6443 -646.735 110.268 -646.735 110.268L-673 583.032L1167.73 599L1194 110.268C1194 110.268 1194 1.91476 1047.35 1.91476C900.708 1.91476 956.138 126.376 846.587 123.5C741.494 120.741 804.403 1.91476 662.135 1.91476C519.866 1.91476 585.269 111.031 489.224 110.268C394.373 109.515 467.336 1.91476 320.69 1.91476C174.044 1.91476 198.408 86.8106 121 81C43.5923 75.1894 77.7397 1.91476 -42.6413 1.91476C-163.022 1.91476 -193.809 164.03 -244.493 98.9553C-295.177 33.8811 -298.485 14.4738 -409.256 1.91476Z" fill="#0460D5" stroke="#0460D5"/>
<rect y="560" width="390" height="199" fill="#0460D5"/>
</svg>
