<svg width="331" height="225" viewBox="0 0 331 225" fill="none" xmlns="http://www.w3.org/2000/svg">
<path d="M330.639 216.502H0V216.668H330.639V216.502Z" fill="#E0E0E0"/>
<path d="M113.958 220.497H107.028V220.662H113.958V220.497Z" fill="#E0E0E0"/>
<path d="M308.281 224.834H283.192V225H308.281V224.834Z" fill="#E0E0E0"/>
<path d="M230.125 220.576H209.85V220.741H230.125V220.576Z" fill="#E0E0E0"/>
<path d="M160.34 224.345H125.054V224.511H160.34V224.345Z" fill="#E0E0E0"/>
<path d="M92.361 223.301H80.2332V223.466H92.361V223.301Z" fill="#E0E0E0"/>
<path d="M279.999 224.834H269.908V225H279.999V224.834Z" fill="#E0E0E0"/>
<path d="M76.3776 223.221H42.9368V223.386H76.3776V223.221Z" fill="#E0E0E0"/>
<path d="M156.723 187.01H29.0371C28.0368 187.008 27.0781 186.609 26.3714 185.901C25.6647 185.193 25.2678 184.234 25.2678 183.234V3.74284C25.2765 2.74829 25.6773 1.79734 26.383 1.09654C27.0888 0.395748 28.0425 0.00170371 29.0371 0H156.723C157.725 0 158.685 0.397817 159.393 1.10594C160.101 1.81405 160.499 2.77447 160.499 3.7759V183.234C160.499 184.235 160.101 185.196 159.393 185.904C158.685 186.612 157.725 187.01 156.723 187.01ZM29.0371 0.132256C28.0807 0.134008 27.164 0.515179 26.4883 1.1921C25.8126 1.86903 25.4331 2.7864 25.4331 3.74284V183.234C25.4331 184.19 25.8126 185.107 26.4883 185.784C27.164 186.461 28.0807 186.842 29.0371 186.844H156.723C157.68 186.842 158.598 186.462 159.275 185.785C159.951 185.108 160.332 184.191 160.334 183.234V3.74284C160.332 2.78579 159.951 1.86844 159.275 1.1917C158.598 0.514964 157.68 0.134004 156.723 0.132256H29.0371Z" fill="#E0E0E0"/>
<path d="M299.764 187.01H172.071C171.07 187.008 170.111 186.609 169.403 185.902C168.696 185.194 168.297 184.235 168.295 183.234V3.74284C168.306 2.74769 168.708 1.79674 169.415 1.09613C170.122 0.395516 171.076 0.00168513 172.071 0H299.764C300.758 0.00344162 301.71 0.398254 302.414 1.09886C303.118 1.79948 303.518 2.74943 303.527 3.74284V183.234C303.527 184.233 303.131 185.191 302.426 185.899C301.72 186.607 300.763 187.006 299.764 187.01ZM172.071 0.132256C171.114 0.134004 170.197 0.514964 169.52 1.1917C168.843 1.86844 168.462 2.78579 168.461 3.74284V183.234C168.462 184.191 168.843 185.108 169.52 185.785C170.197 186.462 171.114 186.842 172.071 186.844H299.764C300.721 186.842 301.639 186.462 302.315 185.785C302.992 185.108 303.373 184.191 303.375 183.234V3.74284C303.373 2.78579 302.992 1.86844 302.315 1.1917C301.639 0.514964 300.721 0.134004 299.764 0.132256H172.071Z" fill="#E0E0E0"/>
<path d="M128.07 41.7332H49.0071V216.582H128.07V41.7332Z" fill="#E6E6E6"/>
<path d="M128.07 41.7332H52.7566V216.582H128.07V41.7332Z" fill="#F5F5F5"/>
<path d="M124.102 212.621L124.102 45.7075L56.7244 45.7075L56.7244 212.621H124.102Z" fill="#F0F0F0"/>
<path d="M124.102 212.614L124.102 45.7012H123.07L123.07 212.614H124.102Z" fill="#E6E6E6"/>
<path d="M115.102 125.312C116.968 125.312 118.481 123.799 118.481 121.933C118.481 120.067 116.968 118.554 115.102 118.554C113.236 118.554 111.723 120.067 111.723 121.933C111.723 123.799 113.236 125.312 115.102 125.312Z" fill="#E6E6E6"/>
<path d="M116.425 124.611C118.291 124.611 119.804 123.098 119.804 121.232C119.804 119.366 118.291 117.853 116.425 117.853C114.559 117.853 113.046 119.366 113.046 121.232C113.046 123.098 114.559 124.611 116.425 124.611Z" fill="#FAFAFA"/>
<path d="M294.434 23.105H240.917V123.633H294.434V23.105Z" fill="#E0E0E0"/>
<path d="M296.723 23.105H243.206V123.633H296.723V23.105Z" fill="#F5F5F5"/>
<path d="M292.616 119.208V27.5288L247.305 27.5288V119.208H292.616Z" fill="#FAFAFA"/>
<path d="M292.622 119.208V27.5288H290.896V119.208H292.622Z" fill="#E0E0E0"/>
<path d="M295.03 92.6582H244.905V98.5965H295.03V92.6582Z" fill="#F5F5F5"/>
<path d="M228.445 23.105H174.928V123.633H228.445V23.105Z" fill="#E0E0E0"/>
<path d="M230.727 23.105H177.21V123.633H230.727V23.105Z" fill="#F5F5F5"/>
<path d="M226.626 119.202V27.5225L181.316 27.5225V119.202H226.626Z" fill="#FAFAFA"/>
<path d="M226.626 119.208V27.5288H224.901V119.208H226.626Z" fill="#E0E0E0"/>
<path d="M229.034 92.6582H178.909V98.5965H229.034V92.6582Z" fill="#F5F5F5"/>
<path d="M105.474 34.0425L104.872 34.6443H75.3462V23.105L105.474 34.0425Z" fill="#E0E0E0"/>
<path d="M76.4902 34.0425H105.474L104.337 23.105H75.3462L76.4902 34.0425Z" fill="#F5F5F5"/>
<path d="M135.753 128.182H148.251V115.684H135.753V128.182Z" fill="#EBEBEB"/>
<path d="M135.76 115.684H135.337V128.182H135.76V115.684Z" fill="#E0E0E0"/>
<path d="M147.088 125.802L146.639 126.251H137.341V117.681L147.088 125.802Z" fill="#E0E0E0"/>
<path d="M138.188 125.802H147.088L146.248 117.681H137.341L138.188 125.802Z" fill="#FAFAFA"/>
<path d="M153.608 144.562L159.891 138.888L166.166 144.562V216.668H153.608V144.562Z" fill="#F0F0F0"/>
<path d="M175.371 144.562L181.647 138.888L187.929 144.562V216.668H175.371V144.562Z" fill="#F0F0F0"/>
<path d="M197.127 144.562L203.409 138.888L209.684 144.562V216.668H197.127V144.562Z" fill="#F0F0F0"/>
<path d="M218.89 144.562L225.165 138.888L231.441 144.562V216.668H218.89V144.562Z" fill="#F0F0F0"/>
<path d="M240.646 144.562L246.928 138.888L253.204 144.562V216.668H240.646V144.562Z" fill="#F0F0F0"/>
<path d="M262.409 144.562L268.684 138.888L274.96 144.562V216.668H262.409V144.562Z" fill="#F0F0F0"/>
<path d="M284.165 144.562L290.447 138.888L296.722 144.562V216.668H284.165V144.562Z" fill="#F0F0F0"/>
<path d="M159.884 158.25L290.44 158.25V155.05L159.884 155.05V158.25Z" fill="#F0F0F0"/>
<path d="M159.884 196.129L290.44 196.129V192.928L159.884 192.928V196.129Z" fill="#F0F0F0"/>
<path d="M165.215 119.971C236.027 119.971 293.431 116.62 293.431 112.486C293.431 108.351 236.027 105 165.215 105C94.4039 105 37 108.351 37 112.486C37 116.62 94.4039 119.971 165.215 119.971Z" fill="#F5F5F5"/>
<path d="M116.497 54.5159C122.359 48.6366 129.326 43.9742 136.996 40.7966C144.667 37.619 152.89 35.9889 161.193 36.0001H170.14C170.14 36.0001 212.349 47.05 212.349 92.2682C212.349 136.468 183.127 175.589 170.146 188.59H161.206L116.497 143.881C104.653 132.027 98 115.955 98 99.1984C98 82.4415 104.653 66.37 116.497 54.5159ZM161.199 128.579C167.004 128.579 172.678 126.858 177.504 123.633C182.331 120.408 186.092 115.824 188.313 110.461C190.534 105.098 191.115 99.1967 189.982 93.5036C188.849 87.8106 186.054 82.5814 181.949 78.4773C177.844 74.3733 172.614 71.5787 166.921 70.4471C161.227 69.3154 155.326 69.8976 149.964 72.1198C144.601 74.3421 140.018 78.1046 136.794 82.9317C133.57 87.7587 131.85 93.4334 131.852 99.2381C131.867 107.011 134.966 114.461 140.468 119.951C145.97 125.442 153.426 128.526 161.199 128.526V128.579Z" fill="#263238"/>
<path d="M215.999 53.3193C213.382 50.7046 210.551 48.3135 207.535 46.1708L207.912 45.6286C210.961 47.794 213.824 50.2118 216.469 52.8564L215.999 53.3193ZM203.58 43.5852C202.026 42.6462 200.413 41.7601 198.793 40.9401L199.084 40.345C200.724 41.1583 202.35 42.0511 203.924 42.9901L203.58 43.5852Z" fill="#407BFF"/>
<path opacity="0.2" d="M215.999 53.3193C213.382 50.7046 210.551 48.3135 207.535 46.1708L207.912 45.6286C210.961 47.794 213.824 50.2118 216.469 52.8564L215.999 53.3193ZM203.58 43.5852C202.026 42.6462 200.413 41.7601 198.793 40.9401L199.084 40.345C200.724 41.1583 202.35 42.0511 203.924 42.9901L203.58 43.5852Z" fill="black"/>
<path d="M125.437 54.516C137.363 43.0335 153.319 36.6882 169.873 36.8439C186.428 36.9996 202.261 43.6439 213.97 55.3487C225.678 67.0536 232.327 82.8846 232.488 99.4395C232.648 115.994 226.308 131.951 214.829 143.881L170.146 188.57L125.437 143.861C113.596 132.01 106.945 115.942 106.945 99.1887C106.945 82.4355 113.596 66.3676 125.437 54.516ZM170.139 128.579C175.944 128.579 181.618 126.858 186.445 123.633C191.271 120.408 195.032 115.824 197.254 110.461C199.475 105.098 200.055 99.1969 198.922 93.5038C197.79 87.8108 194.994 82.5816 190.889 78.4775C186.784 74.3734 181.554 71.5789 175.861 70.4472C170.167 69.3156 164.266 69.8977 158.904 72.12C153.541 74.3422 148.958 78.1048 145.735 82.9319C142.511 87.7589 140.79 93.4336 140.792 99.2383C140.808 107.011 143.906 114.461 149.408 119.952C154.911 125.443 162.366 128.526 170.139 128.526V128.579Z" fill="#407BFF"/>
<path opacity="0.2" d="M125.437 54.516C137.363 43.0335 153.319 36.6882 169.873 36.8439C186.428 36.9996 202.261 43.6439 213.97 55.3487C225.678 67.0536 232.327 82.8846 232.488 99.4395C232.648 115.994 226.308 131.951 214.829 143.881L170.146 188.57L125.437 143.861C113.596 132.01 106.945 115.942 106.945 99.1887C106.945 82.4355 113.596 66.3676 125.437 54.516ZM170.139 128.579C175.944 128.579 181.618 126.858 186.445 123.633C191.271 120.408 195.032 115.824 197.254 110.461C199.475 105.098 200.055 99.1969 198.922 93.5038C197.79 87.8108 194.994 82.5816 190.889 78.4775C186.784 74.3734 181.554 71.5789 175.861 70.4472C170.167 69.3156 164.266 69.8977 158.904 72.12C153.541 74.3422 148.958 78.1048 145.735 82.9319C142.511 87.7589 140.79 93.4336 140.792 99.2383C140.808 107.011 143.906 114.461 149.408 119.952C154.911 125.443 162.366 128.526 170.139 128.526V128.579Z" fill="black"/>
<g style="mix-blend-mode:color-dodge" opacity="0.4">
<path d="M170.146 184.993C170.124 184.993 170.102 184.988 170.081 184.979C170.061 184.97 170.042 184.957 170.027 184.94L127.189 142.109C118.7 133.616 112.92 122.797 110.579 111.02C108.238 99.2422 109.442 87.035 114.039 75.9416C118.635 64.8482 126.418 55.3668 136.402 48.696C146.387 42.0253 158.125 38.4648 170.133 38.4648C182.141 38.4648 193.879 42.0253 203.864 48.696C213.848 55.3668 221.631 64.8482 226.227 75.9416C230.824 87.035 232.027 99.2422 229.687 111.02C227.346 122.797 221.565 133.616 213.076 142.109L170.259 184.92C170.247 184.94 170.23 184.957 170.211 184.97C170.191 184.982 170.169 184.99 170.146 184.993ZM170.146 38.7909C158.204 38.793 146.53 42.3361 136.601 48.9721C126.672 55.6082 118.934 65.0393 114.364 76.073C109.795 87.1067 108.599 99.2475 110.929 110.961C113.259 122.673 119.01 133.433 127.454 141.878L170.173 184.59L212.871 141.897C221.315 133.448 227.063 122.685 229.391 110.968C231.718 99.2522 230.52 87.109 225.947 76.0738C221.374 65.0385 213.632 55.6067 203.7 48.9706C193.768 42.3345 182.091 38.792 170.146 38.7909ZM170.146 131.37C163.786 131.37 157.568 129.484 152.279 125.95C146.991 122.416 142.869 117.393 140.435 111.517C138.002 105.64 137.365 99.174 138.607 92.9358C139.848 86.6976 142.911 80.9676 147.409 76.4705C151.907 71.9734 157.638 68.9111 163.876 67.6711C170.115 66.431 176.581 67.0688 182.457 69.5037C188.333 71.9387 193.355 76.0615 196.888 81.3507C200.421 86.6399 202.305 92.858 202.304 99.2185C202.285 107.739 198.888 115.904 192.859 121.925C186.83 127.945 178.66 131.33 170.14 131.337L170.146 131.37ZM170.146 67.3912C163.851 67.3912 157.698 69.2579 152.464 72.7551C147.23 76.2523 143.15 81.2231 140.742 87.0387C138.333 92.8544 137.702 99.2539 138.93 105.428C140.158 111.602 143.19 117.273 147.641 121.724C152.092 126.175 157.763 129.206 163.937 130.434C170.111 131.662 176.51 131.032 182.326 128.623C188.142 126.214 193.112 122.135 196.61 116.901C200.107 111.667 201.973 105.513 201.973 99.2185C201.973 90.7732 198.62 82.6734 192.651 76.6992C186.682 70.725 178.585 67.3652 170.14 67.3581L170.146 67.3912Z" fill="#FAFAFA"/>
</g>
</svg>
