<svg width="14" height="14" viewBox="0 0 14 14" fill="none" xmlns="http://www.w3.org/2000/svg">
<path d="M6.99984 11.6667C6.83456 11.6667 6.69592 11.6107 6.58392 11.4987C6.47192 11.3867 6.41612 11.2483 6.4165 11.0834V8.75008C6.4165 8.5848 6.4725 8.44616 6.5845 8.33416C6.6965 8.22216 6.83495 8.16636 6.99984 8.16675H8.45817C8.62345 8.16675 8.76209 8.22275 8.87409 8.33475C8.98609 8.44675 9.04189 8.58519 9.0415 8.75008V11.0834C9.0415 11.2487 8.9855 11.3873 8.8735 11.4993C8.7615 11.6113 8.62306 11.6671 8.45817 11.6667H6.99984ZM7.2915 10.7917H8.1665V9.04175H7.2915V10.7917ZM9.9165 12.8334V11.2292C9.9165 11.064 9.9725 10.9253 10.0845 10.8133C10.1965 10.7013 10.3349 10.6455 10.4998 10.6459H11.6665V10.2084H9.9165V9.33341H11.9582C12.1234 9.33341 12.2621 9.38941 12.3741 9.50141C12.4861 9.61341 12.5419 9.75186 12.5415 9.91675V10.9376C12.5415 11.1029 12.4855 11.2415 12.3735 11.3535C12.2615 11.4655 12.1231 11.5213 11.9582 11.5209H10.7915V11.9584H12.5415V12.8334H9.9165ZM5.24984 12.8042C4.054 12.6681 3.07439 12.1552 2.311 11.2654C1.54762 10.3756 1.16612 9.30386 1.1665 8.05008C1.1665 7.07786 1.55306 6.02047 2.32617 4.87791C3.09928 3.73536 4.26828 2.4983 5.83317 1.16675C7.1165 2.25564 8.135 3.28619 8.88867 4.25841C9.64234 5.23064 10.1308 6.14453 10.354 7.00008H9.14359C8.9297 6.38758 8.54567 5.72161 7.9915 5.00216C7.43734 4.28272 6.71789 3.51953 5.83317 2.71258C4.67623 3.7723 3.80375 4.74939 3.21575 5.64383C2.62775 6.53828 2.33356 7.34036 2.33317 8.05008C2.33317 8.98341 2.60306 9.7783 3.14284 10.4347C3.68262 11.0912 4.38495 11.4873 5.24984 11.623V12.8042Z" fill="black"/>
</svg>
