<svg width="64" height="75" viewBox="0 0 64 75" fill="none" xmlns="http://www.w3.org/2000/svg">
<path d="M2.51613 -9.73529C2.51613 -9.03682 1.95287 -8.47059 1.25806 -8.47059C0.563255 -8.47059 0 -9.03682 0 -9.73529C0 -10.4338 0.563255 -11 1.25806 -11C1.95287 -11 2.51613 -10.4338 2.51613 -9.73529Z" fill="#FEFEFE"/>
<path d="M10.0645 -9.73529C10.0645 -9.03682 9.50126 -8.47059 8.80645 -8.47059C8.11164 -8.47059 7.54839 -9.03682 7.54839 -9.73529C7.54839 -10.4338 8.11164 -11 8.80645 -11C9.50126 -11 10.0645 -10.4338 10.0645 -9.73529Z" fill="#FEFEFE"/>
<path d="M17.6129 -9.73529C17.6129 -9.03682 17.0496 -8.47059 16.3548 -8.47059C15.66 -8.47059 15.0968 -9.03682 15.0968 -9.73529C15.0968 -10.4338 15.66 -11 16.3548 -11C17.0496 -11 17.6129 -10.4338 17.6129 -9.73529Z" fill="#FEFEFE"/>
<path d="M25.1613 -9.73529C25.1613 -9.03682 24.598 -8.47059 23.9032 -8.47059C23.2084 -8.47059 22.6452 -9.03682 22.6452 -9.73529C22.6452 -10.4338 23.2084 -11 23.9032 -11C24.598 -11 25.1613 -10.4338 25.1613 -9.73529Z" fill="#FEFEFE"/>
<path d="M32.7097 -9.73529C32.7097 -9.03682 32.1464 -8.47059 31.4516 -8.47059C30.7568 -8.47059 30.1935 -9.03682 30.1935 -9.73529C30.1935 -10.4338 30.7568 -11 31.4516 -11C32.1464 -11 32.7097 -10.4338 32.7097 -9.73529Z" fill="#FEFEFE"/>
<path d="M40.2581 -9.73529C40.2581 -9.03682 39.6948 -8.47059 39 -8.47059C38.3052 -8.47059 37.7419 -9.03682 37.7419 -9.73529C37.7419 -10.4338 38.3052 -11 39 -11C39.6948 -11 40.2581 -10.4338 40.2581 -9.73529Z" fill="#FEFEFE"/>
<path d="M47.8065 -9.73529C47.8065 -9.03682 47.2432 -8.47059 46.5484 -8.47059C45.8536 -8.47059 45.2903 -9.03682 45.2903 -9.73529C45.2903 -10.4338 45.8536 -11 46.5484 -11C47.2432 -11 47.8065 -10.4338 47.8065 -9.73529Z" fill="#FEFEFE"/>
<path d="M55.3548 -9.73529C55.3548 -9.03682 54.7916 -8.47059 54.0968 -8.47059C53.402 -8.47059 52.8387 -9.03682 52.8387 -9.73529C52.8387 -10.4338 53.402 -11 54.0968 -11C54.7916 -11 55.3548 -10.4338 55.3548 -9.73529Z" fill="#FEFEFE"/>
<path d="M62.9032 -9.73529C62.9032 -9.03682 62.34 -8.47059 61.6452 -8.47059C60.9504 -8.47059 60.3871 -9.03682 60.3871 -9.73529C60.3871 -10.4338 60.9504 -11 61.6452 -11C62.34 -11 62.9032 -10.4338 62.9032 -9.73529Z" fill="#FEFEFE"/>
<path d="M70.4516 -9.73529C70.4516 -9.03682 69.8884 -8.47059 69.1936 -8.47059C68.4987 -8.47059 67.9355 -9.03682 67.9355 -9.73529C67.9355 -10.4338 68.4987 -11 69.1936 -11C69.8884 -11 70.4516 -10.4338 70.4516 -9.73529Z" fill="#FEFEFE"/>
<path d="M78 -9.73529C78 -9.03682 77.4368 -8.47059 76.7419 -8.47059C76.0471 -8.47059 75.4839 -9.03682 75.4839 -9.73529C75.4839 -10.4338 76.0471 -11 76.7419 -11C77.4368 -11 78 -10.4338 78 -9.73529Z" fill="#FEFEFE"/>
<path d="M2.51613 -2.14706C2.51613 -1.44858 1.95287 -0.882353 1.25806 -0.882353C0.563255 -0.882353 0 -1.44858 0 -2.14706C0 -2.84554 0.563255 -3.41177 1.25806 -3.41177C1.95287 -3.41177 2.51613 -2.84554 2.51613 -2.14706Z" fill="#FEFEFE"/>
<path d="M10.0645 -2.14706C10.0645 -1.44858 9.50126 -0.882353 8.80645 -0.882353C8.11164 -0.882353 7.54839 -1.44858 7.54839 -2.14706C7.54839 -2.84554 8.11164 -3.41177 8.80645 -3.41177C9.50126 -3.41177 10.0645 -2.84554 10.0645 -2.14706Z" fill="#FEFEFE"/>
<path d="M17.6129 -2.14706C17.6129 -1.44858 17.0496 -0.882353 16.3548 -0.882353C15.66 -0.882353 15.0968 -1.44858 15.0968 -2.14706C15.0968 -2.84554 15.66 -3.41177 16.3548 -3.41177C17.0496 -3.41177 17.6129 -2.84554 17.6129 -2.14706Z" fill="#FEFEFE"/>
<path d="M25.1613 -2.14706C25.1613 -1.44858 24.598 -0.882353 23.9032 -0.882353C23.2084 -0.882353 22.6452 -1.44858 22.6452 -2.14706C22.6452 -2.84554 23.2084 -3.41177 23.9032 -3.41177C24.598 -3.41177 25.1613 -2.84554 25.1613 -2.14706Z" fill="#FEFEFE"/>
<path d="M32.7097 -2.14706C32.7097 -1.44858 32.1464 -0.882353 31.4516 -0.882353C30.7568 -0.882353 30.1935 -1.44858 30.1935 -2.14706C30.1935 -2.84554 30.7568 -3.41177 31.4516 -3.41177C32.1464 -3.41177 32.7097 -2.84554 32.7097 -2.14706Z" fill="#FEFEFE"/>
<path d="M40.2581 -2.14706C40.2581 -1.44858 39.6948 -0.882353 39 -0.882353C38.3052 -0.882353 37.7419 -1.44858 37.7419 -2.14706C37.7419 -2.84554 38.3052 -3.41177 39 -3.41177C39.6948 -3.41177 40.2581 -2.84554 40.2581 -2.14706Z" fill="#FEFEFE"/>
<path d="M47.8065 -2.14706C47.8065 -1.44858 47.2432 -0.882353 46.5484 -0.882353C45.8536 -0.882353 45.2903 -1.44858 45.2903 -2.14706C45.2903 -2.84554 45.8536 -3.41177 46.5484 -3.41177C47.2432 -3.41177 47.8065 -2.84554 47.8065 -2.14706Z" fill="#FEFEFE"/>
<path d="M55.3548 -2.14706C55.3548 -1.44858 54.7916 -0.882353 54.0968 -0.882353C53.402 -0.882353 52.8387 -1.44858 52.8387 -2.14706C52.8387 -2.84554 53.402 -3.41177 54.0968 -3.41177C54.7916 -3.41177 55.3548 -2.84554 55.3548 -2.14706Z" fill="#FEFEFE"/>
<path d="M62.9032 -2.14706C62.9032 -1.44858 62.34 -0.882353 61.6452 -0.882353C60.9504 -0.882353 60.3871 -1.44858 60.3871 -2.14706C60.3871 -2.84554 60.9504 -3.41177 61.6452 -3.41177C62.34 -3.41177 62.9032 -2.84554 62.9032 -2.14706Z" fill="#FEFEFE"/>
<path d="M70.4516 -2.14706C70.4516 -1.44858 69.8884 -0.882353 69.1936 -0.882353C68.4987 -0.882353 67.9355 -1.44858 67.9355 -2.14706C67.9355 -2.84554 68.4987 -3.41177 69.1936 -3.41177C69.8884 -3.41177 70.4516 -2.84554 70.4516 -2.14706Z" fill="#FEFEFE"/>
<path d="M78 -2.14706C78 -1.44858 77.4368 -0.882353 76.7419 -0.882353C76.0471 -0.882353 75.4839 -1.44858 75.4839 -2.14706C75.4839 -2.84554 76.0471 -3.41177 76.7419 -3.41177C77.4368 -3.41177 78 -2.84554 78 -2.14706Z" fill="#FEFEFE"/>
<path d="M2.51613 5.44118C2.51613 6.13965 1.95287 6.70588 1.25806 6.70588C0.563255 6.70588 0 6.13965 0 5.44118C0 4.7427 0.563255 4.17647 1.25806 4.17647C1.95287 4.17647 2.51613 4.7427 2.51613 5.44118Z" fill="#FEFEFE"/>
<path d="M10.0645 5.44118C10.0645 6.13965 9.50126 6.70588 8.80645 6.70588C8.11164 6.70588 7.54839 6.13965 7.54839 5.44118C7.54839 4.7427 8.11164 4.17647 8.80645 4.17647C9.50126 4.17647 10.0645 4.7427 10.0645 5.44118Z" fill="#FEFEFE"/>
<path d="M17.6129 5.44118C17.6129 6.13965 17.0496 6.70588 16.3548 6.70588C15.66 6.70588 15.0968 6.13965 15.0968 5.44118C15.0968 4.7427 15.66 4.17647 16.3548 4.17647C17.0496 4.17647 17.6129 4.7427 17.6129 5.44118Z" fill="#FEFEFE"/>
<path d="M25.1613 5.44118C25.1613 6.13965 24.598 6.70588 23.9032 6.70588C23.2084 6.70588 22.6452 6.13965 22.6452 5.44118C22.6452 4.7427 23.2084 4.17647 23.9032 4.17647C24.598 4.17647 25.1613 4.7427 25.1613 5.44118Z" fill="#FEFEFE"/>
<path d="M32.7097 5.44118C32.7097 6.13965 32.1464 6.70588 31.4516 6.70588C30.7568 6.70588 30.1935 6.13965 30.1935 5.44118C30.1935 4.7427 30.7568 4.17647 31.4516 4.17647C32.1464 4.17647 32.7097 4.7427 32.7097 5.44118Z" fill="#FEFEFE"/>
<path d="M40.2581 5.44118C40.2581 6.13965 39.6948 6.70588 39 6.70588C38.3052 6.70588 37.7419 6.13965 37.7419 5.44118C37.7419 4.7427 38.3052 4.17647 39 4.17647C39.6948 4.17647 40.2581 4.7427 40.2581 5.44118Z" fill="#FEFEFE"/>
<path d="M47.8065 5.44118C47.8065 6.13965 47.2432 6.70588 46.5484 6.70588C45.8536 6.70588 45.2903 6.13965 45.2903 5.44118C45.2903 4.7427 45.8536 4.17647 46.5484 4.17647C47.2432 4.17647 47.8065 4.7427 47.8065 5.44118Z" fill="#FEFEFE"/>
<path d="M55.3548 5.44118C55.3548 6.13965 54.7916 6.70588 54.0968 6.70588C53.402 6.70588 52.8387 6.13965 52.8387 5.44118C52.8387 4.7427 53.402 4.17647 54.0968 4.17647C54.7916 4.17647 55.3548 4.7427 55.3548 5.44118Z" fill="#FEFEFE"/>
<path d="M62.9032 5.44118C62.9032 6.13965 62.34 6.70588 61.6452 6.70588C60.9504 6.70588 60.3871 6.13965 60.3871 5.44118C60.3871 4.7427 60.9504 4.17647 61.6452 4.17647C62.34 4.17647 62.9032 4.7427 62.9032 5.44118Z" fill="#FEFEFE"/>
<path d="M70.4516 5.44118C70.4516 6.13965 69.8884 6.70588 69.1936 6.70588C68.4987 6.70588 67.9355 6.13965 67.9355 5.44118C67.9355 4.7427 68.4987 4.17647 69.1936 4.17647C69.8884 4.17647 70.4516 4.7427 70.4516 5.44118Z" fill="#FEFEFE"/>
<path d="M78 5.44118C78 6.13965 77.4368 6.70588 76.7419 6.70588C76.0471 6.70588 75.4839 6.13965 75.4839 5.44118C75.4839 4.7427 76.0471 4.17647 76.7419 4.17647C77.4368 4.17647 78 4.7427 78 5.44118Z" fill="#FEFEFE"/>
<path d="M2.51613 13.0294C2.51613 13.7279 1.95287 14.2941 1.25806 14.2941C0.563255 14.2941 0 13.7279 0 13.0294C0 12.3309 0.563255 11.7647 1.25806 11.7647C1.95287 11.7647 2.51613 12.3309 2.51613 13.0294Z" fill="#FEFEFE"/>
<path d="M10.0645 13.0294C10.0645 13.7279 9.50126 14.2941 8.80645 14.2941C8.11164 14.2941 7.54839 13.7279 7.54839 13.0294C7.54839 12.3309 8.11164 11.7647 8.80645 11.7647C9.50126 11.7647 10.0645 12.3309 10.0645 13.0294Z" fill="#FEFEFE"/>
<path d="M17.6129 13.0294C17.6129 13.7279 17.0496 14.2941 16.3548 14.2941C15.66 14.2941 15.0968 13.7279 15.0968 13.0294C15.0968 12.3309 15.66 11.7647 16.3548 11.7647C17.0496 11.7647 17.6129 12.3309 17.6129 13.0294Z" fill="#FEFEFE"/>
<path d="M25.1613 13.0294C25.1613 13.7279 24.598 14.2941 23.9032 14.2941C23.2084 14.2941 22.6452 13.7279 22.6452 13.0294C22.6452 12.3309 23.2084 11.7647 23.9032 11.7647C24.598 11.7647 25.1613 12.3309 25.1613 13.0294Z" fill="#FEFEFE"/>
<path d="M32.7097 13.0294C32.7097 13.7279 32.1464 14.2941 31.4516 14.2941C30.7568 14.2941 30.1935 13.7279 30.1935 13.0294C30.1935 12.3309 30.7568 11.7647 31.4516 11.7647C32.1464 11.7647 32.7097 12.3309 32.7097 13.0294Z" fill="#FEFEFE"/>
<path d="M40.2581 13.0294C40.2581 13.7279 39.6948 14.2941 39 14.2941C38.3052 14.2941 37.7419 13.7279 37.7419 13.0294C37.7419 12.3309 38.3052 11.7647 39 11.7647C39.6948 11.7647 40.2581 12.3309 40.2581 13.0294Z" fill="#FEFEFE"/>
<path d="M47.8065 13.0294C47.8065 13.7279 47.2432 14.2941 46.5484 14.2941C45.8536 14.2941 45.2903 13.7279 45.2903 13.0294C45.2903 12.3309 45.8536 11.7647 46.5484 11.7647C47.2432 11.7647 47.8065 12.3309 47.8065 13.0294Z" fill="#FEFEFE"/>
<path d="M55.3548 13.0294C55.3548 13.7279 54.7916 14.2941 54.0968 14.2941C53.402 14.2941 52.8387 13.7279 52.8387 13.0294C52.8387 12.3309 53.402 11.7647 54.0968 11.7647C54.7916 11.7647 55.3548 12.3309 55.3548 13.0294Z" fill="#FEFEFE"/>
<path d="M62.9032 13.0294C62.9032 13.7279 62.34 14.2941 61.6452 14.2941C60.9504 14.2941 60.3871 13.7279 60.3871 13.0294C60.3871 12.3309 60.9504 11.7647 61.6452 11.7647C62.34 11.7647 62.9032 12.3309 62.9032 13.0294Z" fill="#FEFEFE"/>
<path d="M70.4516 13.0294C70.4516 13.7279 69.8884 14.2941 69.1936 14.2941C68.4987 14.2941 67.9355 13.7279 67.9355 13.0294C67.9355 12.3309 68.4987 11.7647 69.1936 11.7647C69.8884 11.7647 70.4516 12.3309 70.4516 13.0294Z" fill="#FEFEFE"/>
<path d="M78 13.0294C78 13.7279 77.4368 14.2941 76.7419 14.2941C76.0471 14.2941 75.4839 13.7279 75.4839 13.0294C75.4839 12.3309 76.0471 11.7647 76.7419 11.7647C77.4368 11.7647 78 12.3309 78 13.0294Z" fill="#FEFEFE"/>
<path d="M2.51613 20.6176C2.51613 21.3161 1.95287 21.8824 1.25806 21.8824C0.563255 21.8824 0 21.3161 0 20.6176C0 19.9192 0.563255 19.3529 1.25806 19.3529C1.95287 19.3529 2.51613 19.9192 2.51613 20.6176Z" fill="#FEFEFE"/>
<path d="M10.0645 20.6176C10.0645 21.3161 9.50126 21.8824 8.80645 21.8824C8.11164 21.8824 7.54839 21.3161 7.54839 20.6176C7.54839 19.9192 8.11164 19.3529 8.80645 19.3529C9.50126 19.3529 10.0645 19.9192 10.0645 20.6176Z" fill="#FEFEFE"/>
<path d="M17.6129 20.6176C17.6129 21.3161 17.0496 21.8824 16.3548 21.8824C15.66 21.8824 15.0968 21.3161 15.0968 20.6176C15.0968 19.9192 15.66 19.3529 16.3548 19.3529C17.0496 19.3529 17.6129 19.9192 17.6129 20.6176Z" fill="#FEFEFE"/>
<path d="M25.1613 20.6176C25.1613 21.3161 24.598 21.8824 23.9032 21.8824C23.2084 21.8824 22.6452 21.3161 22.6452 20.6176C22.6452 19.9192 23.2084 19.3529 23.9032 19.3529C24.598 19.3529 25.1613 19.9192 25.1613 20.6176Z" fill="#FEFEFE"/>
<path d="M32.7097 20.6176C32.7097 21.3161 32.1464 21.8824 31.4516 21.8824C30.7568 21.8824 30.1935 21.3161 30.1935 20.6176C30.1935 19.9192 30.7568 19.3529 31.4516 19.3529C32.1464 19.3529 32.7097 19.9192 32.7097 20.6176Z" fill="#FEFEFE"/>
<path d="M40.2581 20.6176C40.2581 21.3161 39.6948 21.8824 39 21.8824C38.3052 21.8824 37.7419 21.3161 37.7419 20.6176C37.7419 19.9192 38.3052 19.3529 39 19.3529C39.6948 19.3529 40.2581 19.9192 40.2581 20.6176Z" fill="#FEFEFE"/>
<path d="M47.8065 20.6176C47.8065 21.3161 47.2432 21.8824 46.5484 21.8824C45.8536 21.8824 45.2903 21.3161 45.2903 20.6176C45.2903 19.9192 45.8536 19.3529 46.5484 19.3529C47.2432 19.3529 47.8065 19.9192 47.8065 20.6176Z" fill="#FEFEFE"/>
<path d="M55.3548 20.6176C55.3548 21.3161 54.7916 21.8824 54.0968 21.8824C53.402 21.8824 52.8387 21.3161 52.8387 20.6176C52.8387 19.9192 53.402 19.3529 54.0968 19.3529C54.7916 19.3529 55.3548 19.9192 55.3548 20.6176Z" fill="#FEFEFE"/>
<path d="M62.9032 20.6176C62.9032 21.3161 62.34 21.8824 61.6452 21.8824C60.9504 21.8824 60.3871 21.3161 60.3871 20.6176C60.3871 19.9192 60.9504 19.3529 61.6452 19.3529C62.34 19.3529 62.9032 19.9192 62.9032 20.6176Z" fill="#FEFEFE"/>
<path d="M70.4516 20.6176C70.4516 21.3161 69.8884 21.8824 69.1936 21.8824C68.4987 21.8824 67.9355 21.3161 67.9355 20.6176C67.9355 19.9192 68.4987 19.3529 69.1936 19.3529C69.8884 19.3529 70.4516 19.9192 70.4516 20.6176Z" fill="#FEFEFE"/>
<path d="M78 20.6176C78 21.3161 77.4368 21.8824 76.7419 21.8824C76.0471 21.8824 75.4839 21.3161 75.4839 20.6176C75.4839 19.9192 76.0471 19.3529 76.7419 19.3529C77.4368 19.3529 78 19.9192 78 20.6176Z" fill="#FEFEFE"/>
<path d="M2.51613 28.2059C2.51613 28.9044 1.95287 29.4706 1.25806 29.4706C0.563255 29.4706 0 28.9044 0 28.2059C0 27.5074 0.563255 26.9412 1.25806 26.9412C1.95287 26.9412 2.51613 27.5074 2.51613 28.2059Z" fill="#FEFEFE"/>
<path d="M10.0645 28.2059C10.0645 28.9044 9.50126 29.4706 8.80645 29.4706C8.11164 29.4706 7.54839 28.9044 7.54839 28.2059C7.54839 27.5074 8.11164 26.9412 8.80645 26.9412C9.50126 26.9412 10.0645 27.5074 10.0645 28.2059Z" fill="#FEFEFE"/>
<path d="M17.6129 28.2059C17.6129 28.9044 17.0496 29.4706 16.3548 29.4706C15.66 29.4706 15.0968 28.9044 15.0968 28.2059C15.0968 27.5074 15.66 26.9412 16.3548 26.9412C17.0496 26.9412 17.6129 27.5074 17.6129 28.2059Z" fill="#FEFEFE"/>
<path d="M25.1613 28.2059C25.1613 28.9044 24.598 29.4706 23.9032 29.4706C23.2084 29.4706 22.6452 28.9044 22.6452 28.2059C22.6452 27.5074 23.2084 26.9412 23.9032 26.9412C24.598 26.9412 25.1613 27.5074 25.1613 28.2059Z" fill="#FEFEFE"/>
<path d="M32.7097 28.2059C32.7097 28.9044 32.1464 29.4706 31.4516 29.4706C30.7568 29.4706 30.1935 28.9044 30.1935 28.2059C30.1935 27.5074 30.7568 26.9412 31.4516 26.9412C32.1464 26.9412 32.7097 27.5074 32.7097 28.2059Z" fill="#FEFEFE"/>
<path d="M40.2581 28.2059C40.2581 28.9044 39.6948 29.4706 39 29.4706C38.3052 29.4706 37.7419 28.9044 37.7419 28.2059C37.7419 27.5074 38.3052 26.9412 39 26.9412C39.6948 26.9412 40.2581 27.5074 40.2581 28.2059Z" fill="#FEFEFE"/>
<path d="M47.8065 28.2059C47.8065 28.9044 47.2432 29.4706 46.5484 29.4706C45.8536 29.4706 45.2903 28.9044 45.2903 28.2059C45.2903 27.5074 45.8536 26.9412 46.5484 26.9412C47.2432 26.9412 47.8065 27.5074 47.8065 28.2059Z" fill="#FEFEFE"/>
<path d="M55.3548 28.2059C55.3548 28.9044 54.7916 29.4706 54.0968 29.4706C53.402 29.4706 52.8387 28.9044 52.8387 28.2059C52.8387 27.5074 53.402 26.9412 54.0968 26.9412C54.7916 26.9412 55.3548 27.5074 55.3548 28.2059Z" fill="#FEFEFE"/>
<path d="M62.9032 28.2059C62.9032 28.9044 62.34 29.4706 61.6452 29.4706C60.9504 29.4706 60.3871 28.9044 60.3871 28.2059C60.3871 27.5074 60.9504 26.9412 61.6452 26.9412C62.34 26.9412 62.9032 27.5074 62.9032 28.2059Z" fill="#FEFEFE"/>
<path d="M70.4516 28.2059C70.4516 28.9044 69.8884 29.4706 69.1936 29.4706C68.4987 29.4706 67.9355 28.9044 67.9355 28.2059C67.9355 27.5074 68.4987 26.9412 69.1936 26.9412C69.8884 26.9412 70.4516 27.5074 70.4516 28.2059Z" fill="#FEFEFE"/>
<path d="M78 28.2059C78 28.9044 77.4368 29.4706 76.7419 29.4706C76.0471 29.4706 75.4839 28.9044 75.4839 28.2059C75.4839 27.5074 76.0471 26.9412 76.7419 26.9412C77.4368 26.9412 78 27.5074 78 28.2059Z" fill="#FEFEFE"/>
<path d="M2.51613 35.7941C2.51613 36.4926 1.95287 37.0588 1.25806 37.0588C0.563255 37.0588 0 36.4926 0 35.7941C0 35.0956 0.563255 34.5294 1.25806 34.5294C1.95287 34.5294 2.51613 35.0956 2.51613 35.7941Z" fill="#FEFEFE"/>
<path d="M10.0645 35.7941C10.0645 36.4926 9.50126 37.0588 8.80645 37.0588C8.11164 37.0588 7.54839 36.4926 7.54839 35.7941C7.54839 35.0956 8.11164 34.5294 8.80645 34.5294C9.50126 34.5294 10.0645 35.0956 10.0645 35.7941Z" fill="#FEFEFE"/>
<path d="M17.6129 35.7941C17.6129 36.4926 17.0496 37.0588 16.3548 37.0588C15.66 37.0588 15.0968 36.4926 15.0968 35.7941C15.0968 35.0956 15.66 34.5294 16.3548 34.5294C17.0496 34.5294 17.6129 35.0956 17.6129 35.7941Z" fill="#FEFEFE"/>
<path d="M25.1613 35.7941C25.1613 36.4926 24.598 37.0588 23.9032 37.0588C23.2084 37.0588 22.6452 36.4926 22.6452 35.7941C22.6452 35.0956 23.2084 34.5294 23.9032 34.5294C24.598 34.5294 25.1613 35.0956 25.1613 35.7941Z" fill="#FEFEFE"/>
<path d="M32.7097 35.7941C32.7097 36.4926 32.1464 37.0588 31.4516 37.0588C30.7568 37.0588 30.1935 36.4926 30.1935 35.7941C30.1935 35.0956 30.7568 34.5294 31.4516 34.5294C32.1464 34.5294 32.7097 35.0956 32.7097 35.7941Z" fill="#FEFEFE"/>
<path d="M40.2581 35.7941C40.2581 36.4926 39.6948 37.0588 39 37.0588C38.3052 37.0588 37.7419 36.4926 37.7419 35.7941C37.7419 35.0956 38.3052 34.5294 39 34.5294C39.6948 34.5294 40.2581 35.0956 40.2581 35.7941Z" fill="#FEFEFE"/>
<path d="M47.8065 35.7941C47.8065 36.4926 47.2432 37.0588 46.5484 37.0588C45.8536 37.0588 45.2903 36.4926 45.2903 35.7941C45.2903 35.0956 45.8536 34.5294 46.5484 34.5294C47.2432 34.5294 47.8065 35.0956 47.8065 35.7941Z" fill="#FEFEFE"/>
<path d="M55.3548 35.7941C55.3548 36.4926 54.7916 37.0588 54.0968 37.0588C53.402 37.0588 52.8387 36.4926 52.8387 35.7941C52.8387 35.0956 53.402 34.5294 54.0968 34.5294C54.7916 34.5294 55.3548 35.0956 55.3548 35.7941Z" fill="#FEFEFE"/>
<path d="M62.9032 35.7941C62.9032 36.4926 62.34 37.0588 61.6452 37.0588C60.9504 37.0588 60.3871 36.4926 60.3871 35.7941C60.3871 35.0956 60.9504 34.5294 61.6452 34.5294C62.34 34.5294 62.9032 35.0956 62.9032 35.7941Z" fill="#FEFEFE"/>
<path d="M70.4516 35.7941C70.4516 36.4926 69.8884 37.0588 69.1936 37.0588C68.4987 37.0588 67.9355 36.4926 67.9355 35.7941C67.9355 35.0956 68.4987 34.5294 69.1936 34.5294C69.8884 34.5294 70.4516 35.0956 70.4516 35.7941Z" fill="#FEFEFE"/>
<path d="M78 35.7941C78 36.4926 77.4368 37.0588 76.7419 37.0588C76.0471 37.0588 75.4839 36.4926 75.4839 35.7941C75.4839 35.0956 76.0471 34.5294 76.7419 34.5294C77.4368 34.5294 78 35.0956 78 35.7941Z" fill="#FEFEFE"/>
<path d="M2.51613 43.3824C2.51613 44.0808 1.95287 44.6471 1.25806 44.6471C0.563255 44.6471 0 44.0808 0 43.3824C0 42.6839 0.563255 42.1176 1.25806 42.1176C1.95287 42.1176 2.51613 42.6839 2.51613 43.3824Z" fill="#FEFEFE"/>
<path d="M10.0645 43.3824C10.0645 44.0808 9.50126 44.6471 8.80645 44.6471C8.11164 44.6471 7.54839 44.0808 7.54839 43.3824C7.54839 42.6839 8.11164 42.1176 8.80645 42.1176C9.50126 42.1176 10.0645 42.6839 10.0645 43.3824Z" fill="#FEFEFE"/>
<path d="M17.6129 43.3824C17.6129 44.0808 17.0496 44.6471 16.3548 44.6471C15.66 44.6471 15.0968 44.0808 15.0968 43.3824C15.0968 42.6839 15.66 42.1176 16.3548 42.1176C17.0496 42.1176 17.6129 42.6839 17.6129 43.3824Z" fill="#FEFEFE"/>
<path d="M25.1613 43.3824C25.1613 44.0808 24.598 44.6471 23.9032 44.6471C23.2084 44.6471 22.6452 44.0808 22.6452 43.3824C22.6452 42.6839 23.2084 42.1176 23.9032 42.1176C24.598 42.1176 25.1613 42.6839 25.1613 43.3824Z" fill="#FEFEFE"/>
<path d="M32.7097 43.3824C32.7097 44.0808 32.1464 44.6471 31.4516 44.6471C30.7568 44.6471 30.1935 44.0808 30.1935 43.3824C30.1935 42.6839 30.7568 42.1176 31.4516 42.1176C32.1464 42.1176 32.7097 42.6839 32.7097 43.3824Z" fill="#FEFEFE"/>
<path d="M40.2581 43.3824C40.2581 44.0808 39.6948 44.6471 39 44.6471C38.3052 44.6471 37.7419 44.0808 37.7419 43.3824C37.7419 42.6839 38.3052 42.1176 39 42.1176C39.6948 42.1176 40.2581 42.6839 40.2581 43.3824Z" fill="#FEFEFE"/>
<path d="M47.8065 43.3824C47.8065 44.0808 47.2432 44.6471 46.5484 44.6471C45.8536 44.6471 45.2903 44.0808 45.2903 43.3824C45.2903 42.6839 45.8536 42.1176 46.5484 42.1176C47.2432 42.1176 47.8065 42.6839 47.8065 43.3824Z" fill="#FEFEFE"/>
<path d="M55.3548 43.3824C55.3548 44.0808 54.7916 44.6471 54.0968 44.6471C53.402 44.6471 52.8387 44.0808 52.8387 43.3824C52.8387 42.6839 53.402 42.1176 54.0968 42.1176C54.7916 42.1176 55.3548 42.6839 55.3548 43.3824Z" fill="#FEFEFE"/>
<path d="M62.9032 43.3824C62.9032 44.0808 62.34 44.6471 61.6452 44.6471C60.9504 44.6471 60.3871 44.0808 60.3871 43.3824C60.3871 42.6839 60.9504 42.1176 61.6452 42.1176C62.34 42.1176 62.9032 42.6839 62.9032 43.3824Z" fill="#FEFEFE"/>
<path d="M70.4516 43.3824C70.4516 44.0808 69.8884 44.6471 69.1936 44.6471C68.4987 44.6471 67.9355 44.0808 67.9355 43.3824C67.9355 42.6839 68.4987 42.1176 69.1936 42.1176C69.8884 42.1176 70.4516 42.6839 70.4516 43.3824Z" fill="#FEFEFE"/>
<path d="M78 43.3824C78 44.0808 77.4368 44.6471 76.7419 44.6471C76.0471 44.6471 75.4839 44.0808 75.4839 43.3824C75.4839 42.6839 76.0471 42.1176 76.7419 42.1176C77.4368 42.1176 78 42.6839 78 43.3824Z" fill="#FEFEFE"/>
<path d="M2.51613 50.9706C2.51613 51.6691 1.95287 52.2353 1.25806 52.2353C0.563255 52.2353 0 51.6691 0 50.9706C0 50.2721 0.563255 49.7059 1.25806 49.7059C1.95287 49.7059 2.51613 50.2721 2.51613 50.9706Z" fill="#FEFEFE"/>
<path d="M10.0645 50.9706C10.0645 51.6691 9.50126 52.2353 8.80645 52.2353C8.11164 52.2353 7.54839 51.6691 7.54839 50.9706C7.54839 50.2721 8.11164 49.7059 8.80645 49.7059C9.50126 49.7059 10.0645 50.2721 10.0645 50.9706Z" fill="#FEFEFE"/>
<path d="M17.6129 50.9706C17.6129 51.6691 17.0496 52.2353 16.3548 52.2353C15.66 52.2353 15.0968 51.6691 15.0968 50.9706C15.0968 50.2721 15.66 49.7059 16.3548 49.7059C17.0496 49.7059 17.6129 50.2721 17.6129 50.9706Z" fill="#FEFEFE"/>
<path d="M25.1613 50.9706C25.1613 51.6691 24.598 52.2353 23.9032 52.2353C23.2084 52.2353 22.6452 51.6691 22.6452 50.9706C22.6452 50.2721 23.2084 49.7059 23.9032 49.7059C24.598 49.7059 25.1613 50.2721 25.1613 50.9706Z" fill="#FEFEFE"/>
<path d="M32.7097 50.9706C32.7097 51.6691 32.1464 52.2353 31.4516 52.2353C30.7568 52.2353 30.1935 51.6691 30.1935 50.9706C30.1935 50.2721 30.7568 49.7059 31.4516 49.7059C32.1464 49.7059 32.7097 50.2721 32.7097 50.9706Z" fill="#FEFEFE"/>
<path d="M40.2581 50.9706C40.2581 51.6691 39.6948 52.2353 39 52.2353C38.3052 52.2353 37.7419 51.6691 37.7419 50.9706C37.7419 50.2721 38.3052 49.7059 39 49.7059C39.6948 49.7059 40.2581 50.2721 40.2581 50.9706Z" fill="#FEFEFE"/>
<path d="M47.8065 50.9706C47.8065 51.6691 47.2432 52.2353 46.5484 52.2353C45.8536 52.2353 45.2903 51.6691 45.2903 50.9706C45.2903 50.2721 45.8536 49.7059 46.5484 49.7059C47.2432 49.7059 47.8065 50.2721 47.8065 50.9706Z" fill="#FEFEFE"/>
<path d="M55.3548 50.9706C55.3548 51.6691 54.7916 52.2353 54.0968 52.2353C53.402 52.2353 52.8387 51.6691 52.8387 50.9706C52.8387 50.2721 53.402 49.7059 54.0968 49.7059C54.7916 49.7059 55.3548 50.2721 55.3548 50.9706Z" fill="#FEFEFE"/>
<path d="M62.9032 50.9706C62.9032 51.6691 62.34 52.2353 61.6452 52.2353C60.9504 52.2353 60.3871 51.6691 60.3871 50.9706C60.3871 50.2721 60.9504 49.7059 61.6452 49.7059C62.34 49.7059 62.9032 50.2721 62.9032 50.9706Z" fill="#FEFEFE"/>
<path d="M70.4516 50.9706C70.4516 51.6691 69.8884 52.2353 69.1936 52.2353C68.4987 52.2353 67.9355 51.6691 67.9355 50.9706C67.9355 50.2721 68.4987 49.7059 69.1936 49.7059C69.8884 49.7059 70.4516 50.2721 70.4516 50.9706Z" fill="#FEFEFE"/>
<path d="M78 50.9706C78 51.6691 77.4368 52.2353 76.7419 52.2353C76.0471 52.2353 75.4839 51.6691 75.4839 50.9706C75.4839 50.2721 76.0471 49.7059 76.7419 49.7059C77.4368 49.7059 78 50.2721 78 50.9706Z" fill="#FEFEFE"/>
<path d="M2.51613 58.5588C2.51613 59.2573 1.95287 59.8235 1.25806 59.8235C0.563255 59.8235 0 59.2573 0 58.5588C0 57.8603 0.563255 57.2941 1.25806 57.2941C1.95287 57.2941 2.51613 57.8603 2.51613 58.5588Z" fill="#FEFEFE"/>
<path d="M10.0645 58.5588C10.0645 59.2573 9.50126 59.8235 8.80645 59.8235C8.11164 59.8235 7.54839 59.2573 7.54839 58.5588C7.54839 57.8603 8.11164 57.2941 8.80645 57.2941C9.50126 57.2941 10.0645 57.8603 10.0645 58.5588Z" fill="#FEFEFE"/>
<path d="M17.6129 58.5588C17.6129 59.2573 17.0496 59.8235 16.3548 59.8235C15.66 59.8235 15.0968 59.2573 15.0968 58.5588C15.0968 57.8603 15.66 57.2941 16.3548 57.2941C17.0496 57.2941 17.6129 57.8603 17.6129 58.5588Z" fill="#FEFEFE"/>
<path d="M25.1613 58.5588C25.1613 59.2573 24.598 59.8235 23.9032 59.8235C23.2084 59.8235 22.6452 59.2573 22.6452 58.5588C22.6452 57.8603 23.2084 57.2941 23.9032 57.2941C24.598 57.2941 25.1613 57.8603 25.1613 58.5588Z" fill="#FEFEFE"/>
<path d="M32.7097 58.5588C32.7097 59.2573 32.1464 59.8235 31.4516 59.8235C30.7568 59.8235 30.1935 59.2573 30.1935 58.5588C30.1935 57.8603 30.7568 57.2941 31.4516 57.2941C32.1464 57.2941 32.7097 57.8603 32.7097 58.5588Z" fill="#FEFEFE"/>
<path d="M40.2581 58.5588C40.2581 59.2573 39.6948 59.8235 39 59.8235C38.3052 59.8235 37.7419 59.2573 37.7419 58.5588C37.7419 57.8603 38.3052 57.2941 39 57.2941C39.6948 57.2941 40.2581 57.8603 40.2581 58.5588Z" fill="#FEFEFE"/>
<path d="M47.8065 58.5588C47.8065 59.2573 47.2432 59.8235 46.5484 59.8235C45.8536 59.8235 45.2903 59.2573 45.2903 58.5588C45.2903 57.8603 45.8536 57.2941 46.5484 57.2941C47.2432 57.2941 47.8065 57.8603 47.8065 58.5588Z" fill="#FEFEFE"/>
<path d="M55.3548 58.5588C55.3548 59.2573 54.7916 59.8235 54.0968 59.8235C53.402 59.8235 52.8387 59.2573 52.8387 58.5588C52.8387 57.8603 53.402 57.2941 54.0968 57.2941C54.7916 57.2941 55.3548 57.8603 55.3548 58.5588Z" fill="#FEFEFE"/>
<path d="M62.9032 58.5588C62.9032 59.2573 62.34 59.8235 61.6452 59.8235C60.9504 59.8235 60.3871 59.2573 60.3871 58.5588C60.3871 57.8603 60.9504 57.2941 61.6452 57.2941C62.34 57.2941 62.9032 57.8603 62.9032 58.5588Z" fill="#FEFEFE"/>
<path d="M70.4516 58.5588C70.4516 59.2573 69.8884 59.8235 69.1936 59.8235C68.4987 59.8235 67.9355 59.2573 67.9355 58.5588C67.9355 57.8603 68.4987 57.2941 69.1936 57.2941C69.8884 57.2941 70.4516 57.8603 70.4516 58.5588Z" fill="#FEFEFE"/>
<path d="M78 58.5588C78 59.2573 77.4368 59.8235 76.7419 59.8235C76.0471 59.8235 75.4839 59.2573 75.4839 58.5588C75.4839 57.8603 76.0471 57.2941 76.7419 57.2941C77.4368 57.2941 78 57.8603 78 58.5588Z" fill="#FEFEFE"/>
<path d="M2.51613 66.1471C2.51613 66.8455 1.95287 67.4118 1.25806 67.4118C0.563255 67.4118 0 66.8455 0 66.1471C0 65.4486 0.563255 64.8824 1.25806 64.8824C1.95287 64.8824 2.51613 65.4486 2.51613 66.1471Z" fill="#FEFEFE"/>
<path d="M10.0645 66.1471C10.0645 66.8455 9.50126 67.4118 8.80645 67.4118C8.11164 67.4118 7.54839 66.8455 7.54839 66.1471C7.54839 65.4486 8.11164 64.8824 8.80645 64.8824C9.50126 64.8824 10.0645 65.4486 10.0645 66.1471Z" fill="#FEFEFE"/>
<path d="M17.6129 66.1471C17.6129 66.8455 17.0496 67.4118 16.3548 67.4118C15.66 67.4118 15.0968 66.8455 15.0968 66.1471C15.0968 65.4486 15.66 64.8824 16.3548 64.8824C17.0496 64.8824 17.6129 65.4486 17.6129 66.1471Z" fill="#FEFEFE"/>
<path d="M25.1613 66.1471C25.1613 66.8455 24.598 67.4118 23.9032 67.4118C23.2084 67.4118 22.6452 66.8455 22.6452 66.1471C22.6452 65.4486 23.2084 64.8824 23.9032 64.8824C24.598 64.8824 25.1613 65.4486 25.1613 66.1471Z" fill="#FEFEFE"/>
<path d="M32.7097 66.1471C32.7097 66.8455 32.1464 67.4118 31.4516 67.4118C30.7568 67.4118 30.1935 66.8455 30.1935 66.1471C30.1935 65.4486 30.7568 64.8824 31.4516 64.8824C32.1464 64.8824 32.7097 65.4486 32.7097 66.1471Z" fill="#FEFEFE"/>
<path d="M40.2581 66.1471C40.2581 66.8455 39.6948 67.4118 39 67.4118C38.3052 67.4118 37.7419 66.8455 37.7419 66.1471C37.7419 65.4486 38.3052 64.8824 39 64.8824C39.6948 64.8824 40.2581 65.4486 40.2581 66.1471Z" fill="#FEFEFE"/>
<path d="M47.8065 66.1471C47.8065 66.8455 47.2432 67.4118 46.5484 67.4118C45.8536 67.4118 45.2903 66.8455 45.2903 66.1471C45.2903 65.4486 45.8536 64.8824 46.5484 64.8824C47.2432 64.8824 47.8065 65.4486 47.8065 66.1471Z" fill="#FEFEFE"/>
<path d="M55.3548 66.1471C55.3548 66.8455 54.7916 67.4118 54.0968 67.4118C53.402 67.4118 52.8387 66.8455 52.8387 66.1471C52.8387 65.4486 53.402 64.8824 54.0968 64.8824C54.7916 64.8824 55.3548 65.4486 55.3548 66.1471Z" fill="#FEFEFE"/>
<path d="M62.9032 66.1471C62.9032 66.8455 62.34 67.4118 61.6452 67.4118C60.9504 67.4118 60.3871 66.8455 60.3871 66.1471C60.3871 65.4486 60.9504 64.8824 61.6452 64.8824C62.34 64.8824 62.9032 65.4486 62.9032 66.1471Z" fill="#FEFEFE"/>
<path d="M70.4516 66.1471C70.4516 66.8455 69.8884 67.4118 69.1936 67.4118C68.4987 67.4118 67.9355 66.8455 67.9355 66.1471C67.9355 65.4486 68.4987 64.8824 69.1936 64.8824C69.8884 64.8824 70.4516 65.4486 70.4516 66.1471Z" fill="#FEFEFE"/>
<path d="M78 66.1471C78 66.8455 77.4368 67.4118 76.7419 67.4118C76.0471 67.4118 75.4839 66.8455 75.4839 66.1471C75.4839 65.4486 76.0471 64.8824 76.7419 64.8824C77.4368 64.8824 78 65.4486 78 66.1471Z" fill="#FEFEFE"/>
<path d="M2.51613 73.7353C2.51613 74.4338 1.95287 75 1.25806 75C0.563255 75 0 74.4338 0 73.7353C0 73.0368 0.563255 72.4706 1.25806 72.4706C1.95287 72.4706 2.51613 73.0368 2.51613 73.7353Z" fill="#FEFEFE"/>
<path d="M10.0645 73.7353C10.0645 74.4338 9.50126 75 8.80645 75C8.11164 75 7.54839 74.4338 7.54839 73.7353C7.54839 73.0368 8.11164 72.4706 8.80645 72.4706C9.50126 72.4706 10.0645 73.0368 10.0645 73.7353Z" fill="#FEFEFE"/>
<path d="M17.6129 73.7353C17.6129 74.4338 17.0496 75 16.3548 75C15.66 75 15.0968 74.4338 15.0968 73.7353C15.0968 73.0368 15.66 72.4706 16.3548 72.4706C17.0496 72.4706 17.6129 73.0368 17.6129 73.7353Z" fill="#FEFEFE"/>
<path d="M25.1613 73.7353C25.1613 74.4338 24.598 75 23.9032 75C23.2084 75 22.6452 74.4338 22.6452 73.7353C22.6452 73.0368 23.2084 72.4706 23.9032 72.4706C24.598 72.4706 25.1613 73.0368 25.1613 73.7353Z" fill="#FEFEFE"/>
<path d="M32.7097 73.7353C32.7097 74.4338 32.1464 75 31.4516 75C30.7568 75 30.1935 74.4338 30.1935 73.7353C30.1935 73.0368 30.7568 72.4706 31.4516 72.4706C32.1464 72.4706 32.7097 73.0368 32.7097 73.7353Z" fill="#FEFEFE"/>
<path d="M40.2581 73.7353C40.2581 74.4338 39.6948 75 39 75C38.3052 75 37.7419 74.4338 37.7419 73.7353C37.7419 73.0368 38.3052 72.4706 39 72.4706C39.6948 72.4706 40.2581 73.0368 40.2581 73.7353Z" fill="#FEFEFE"/>
<path d="M47.8065 73.7353C47.8065 74.4338 47.2432 75 46.5484 75C45.8536 75 45.2903 74.4338 45.2903 73.7353C45.2903 73.0368 45.8536 72.4706 46.5484 72.4706C47.2432 72.4706 47.8065 73.0368 47.8065 73.7353Z" fill="#FEFEFE"/>
<path d="M55.3548 73.7353C55.3548 74.4338 54.7916 75 54.0968 75C53.402 75 52.8387 74.4338 52.8387 73.7353C52.8387 73.0368 53.402 72.4706 54.0968 72.4706C54.7916 72.4706 55.3548 73.0368 55.3548 73.7353Z" fill="#FEFEFE"/>
<path d="M62.9032 73.7353C62.9032 74.4338 62.34 75 61.6452 75C60.9504 75 60.3871 74.4338 60.3871 73.7353C60.3871 73.0368 60.9504 72.4706 61.6452 72.4706C62.34 72.4706 62.9032 73.0368 62.9032 73.7353Z" fill="#FEFEFE"/>
<path d="M70.4516 73.7353C70.4516 74.4338 69.8884 75 69.1936 75C68.4987 75 67.9355 74.4338 67.9355 73.7353C67.9355 73.0368 68.4987 72.4706 69.1936 72.4706C69.8884 72.4706 70.4516 73.0368 70.4516 73.7353Z" fill="#FEFEFE"/>
<path d="M78 73.7353C78 74.4338 77.4368 75 76.7419 75C76.0471 75 75.4839 74.4338 75.4839 73.7353C75.4839 73.0368 76.0471 72.4706 76.7419 72.4706C77.4368 72.4706 78 73.0368 78 73.7353Z" fill="#FEFEFE"/>
</svg>
