<svg width="337" height="196" viewBox="0 0 337 196" fill="none" xmlns="http://www.w3.org/2000/svg">
<path d="M19.6736 33.3594H4.56201V48.471H19.6736V33.3594Z" fill="#F5F5F5"/>
<path d="M19.6736 50.2773H4.56201V65.389H19.6736V50.2773Z" fill="#F5F5F5"/>
<path d="M36.6158 33.3303H21.5042V48.442H36.6158V33.3303Z" fill="#F5F5F5"/>
<path d="M36.6158 50.2437H21.5042V65.3553H36.6158V50.2437Z" fill="#F5F5F5"/>
<path d="M53.5147 33.3303H38.4031V48.442H53.5147V33.3303Z" fill="#F5F5F5"/>
<path d="M53.5147 50.2437H38.4031V65.3553H53.5147V50.2437Z" fill="#F5F5F5"/>
<path d="M70.4617 33.3303H55.3501V48.442H70.4617V33.3303Z" fill="#F5F5F5"/>
<path d="M70.4617 50.2437H55.3501V65.3553H70.4617V50.2437Z" fill="#F5F5F5"/>
<path d="M87.3604 33.3303H72.2488V48.442H87.3604V33.3303Z" fill="#F5F5F5"/>
<path d="M87.3604 50.2437H72.2488V65.3553H87.3604V50.2437Z" fill="#F5F5F5"/>
<path d="M104.303 33.3303H89.1909V48.442H104.303V33.3303Z" fill="#F5F5F5"/>
<path d="M104.303 50.2437H89.1909V65.3553H104.303V50.2437Z" fill="#F5F5F5"/>
<path d="M121.201 33.3303H106.09V48.442H121.201V33.3303Z" fill="#F5F5F5"/>
<path d="M121.201 50.2437H106.09V65.3553H121.201V50.2437Z" fill="#F5F5F5"/>
<path d="M138.144 33.3303H123.032V48.442H138.144V33.3303Z" fill="#F5F5F5"/>
<path d="M138.144 50.2437H123.032V65.3553H138.144V50.2437Z" fill="#F5F5F5"/>
<path d="M155.043 33.3303H139.931V48.442H155.043V33.3303Z" fill="#F5F5F5"/>
<path d="M155.043 50.2437H139.931V65.3553H155.043V50.2437Z" fill="#F5F5F5"/>
<path d="M171.985 33.3303H156.873V48.442H171.985V33.3303Z" fill="#F5F5F5"/>
<path d="M171.985 50.2437H156.873V65.3553H171.985V50.2437Z" fill="#F5F5F5"/>
<path d="M188.884 33.3303H173.772V48.442H188.884V33.3303Z" fill="#F5F5F5"/>
<path d="M188.884 50.2437H173.772V65.3553H188.884V50.2437Z" fill="#F5F5F5"/>
<path d="M205.83 33.3303H190.719V48.442H205.83V33.3303Z" fill="#F5F5F5"/>
<path d="M205.83 50.2437H190.719V65.3553H205.83V50.2437Z" fill="#F5F5F5"/>
<path d="M222.729 33.3303H207.618V48.442H222.729V33.3303Z" fill="#F5F5F5"/>
<path d="M222.729 50.2437H207.618V65.3553H222.729V50.2437Z" fill="#F5F5F5"/>
<path d="M239.671 33.3303H224.56V48.442H239.671V33.3303Z" fill="#F5F5F5"/>
<path d="M239.671 50.2437H224.56V65.3553H239.671V50.2437Z" fill="#F5F5F5"/>
<path d="M256.57 33.3303H241.459V48.442H256.57V33.3303Z" fill="#F5F5F5"/>
<path d="M256.57 50.2437H241.459V65.3553H256.57V50.2437Z" fill="#F5F5F5"/>
<path d="M273.513 33.3303H258.401V48.442H273.513V33.3303Z" fill="#F5F5F5"/>
<path d="M273.513 50.2437H258.401V65.3553H273.513V50.2437Z" fill="#F5F5F5"/>
<path d="M290.411 33.3303H275.3V48.442H290.411V33.3303Z" fill="#F5F5F5"/>
<path d="M290.411 50.2437H275.3V65.3553H290.411V50.2437Z" fill="#F5F5F5"/>
<path d="M307.354 33.3303H292.242V48.442H307.354V33.3303Z" fill="#F5F5F5"/>
<path d="M307.354 50.2437H292.242V65.3553H307.354V50.2437Z" fill="#F5F5F5"/>
<path d="M324.585 33.3303H309.473V48.442H324.585V33.3303Z" fill="#F5F5F5"/>
<path d="M324.585 50.2437H309.473V65.3553H324.585V50.2437Z" fill="#F5F5F5"/>
<path d="M19.6736 0.0288086H4.56201V15.1404H19.6736V0.0288086Z" fill="#F5F5F5"/>
<path d="M19.6736 16.947H4.56201V32.0587H19.6736V16.947Z" fill="#F5F5F5"/>
<path d="M36.6158 0H21.5042V15.1116H36.6158V0Z" fill="#F5F5F5"/>
<path d="M36.6158 16.918H21.5042V32.0296H36.6158V16.918Z" fill="#F5F5F5"/>
<path d="M53.5147 0H38.4031V15.1116H53.5147V0Z" fill="#F5F5F5"/>
<path d="M53.5147 16.918H38.4031V32.0296H53.5147V16.918Z" fill="#F5F5F5"/>
<path d="M70.4617 0H55.3501V15.1116H70.4617V0Z" fill="#F5F5F5"/>
<path d="M70.4617 16.918H55.3501V32.0296H70.4617V16.918Z" fill="#F5F5F5"/>
<path d="M87.3604 0H72.2488V15.1116H87.3604V0Z" fill="#F5F5F5"/>
<path d="M87.3604 16.918H72.2488V32.0296H87.3604V16.918Z" fill="#F5F5F5"/>
<path d="M104.303 0H89.1909V15.1116H104.303V0Z" fill="#F5F5F5"/>
<path d="M104.303 16.918H89.1909V32.0296H104.303V16.918Z" fill="#F5F5F5"/>
<path d="M121.201 0H106.09V15.1116H121.201V0Z" fill="#F5F5F5"/>
<path d="M121.201 16.918H106.09V32.0296H121.201V16.918Z" fill="#F5F5F5"/>
<path d="M138.144 0H123.032V15.1116H138.144V0Z" fill="#F5F5F5"/>
<path d="M138.144 16.918H123.032V32.0296H138.144V16.918Z" fill="#F5F5F5"/>
<path d="M155.043 0H139.931V15.1116H155.043V0Z" fill="#F5F5F5"/>
<path d="M155.043 16.918H139.931V32.0296H155.043V16.918Z" fill="#F5F5F5"/>
<path d="M171.985 0H156.873V15.1116H171.985V0Z" fill="#F5F5F5"/>
<path d="M171.985 16.918H156.873V32.0296H171.985V16.918Z" fill="#F5F5F5"/>
<path d="M188.884 0H173.772V15.1116H188.884V0Z" fill="#F5F5F5"/>
<path d="M188.884 16.918H173.772V32.0296H188.884V16.918Z" fill="#F5F5F5"/>
<path d="M205.83 0H190.719V15.1116H205.83V0Z" fill="#F5F5F5"/>
<path d="M205.83 16.918H190.719V32.0296H205.83V16.918Z" fill="#F5F5F5"/>
<path d="M222.729 0H207.618V15.1116H222.729V0Z" fill="#F5F5F5"/>
<path d="M222.729 16.918H207.618V32.0296H222.729V16.918Z" fill="#F5F5F5"/>
<path d="M239.671 0H224.56V15.1116H239.671V0Z" fill="#F5F5F5"/>
<path d="M239.671 16.918H224.56V32.0296H239.671V16.918Z" fill="#F5F5F5"/>
<path d="M256.57 0H241.459V15.1116H256.57V0Z" fill="#F5F5F5"/>
<path d="M256.57 16.918H241.459V32.0296H256.57V16.918Z" fill="#F5F5F5"/>
<path d="M273.513 0H258.401V15.1116H273.513V0Z" fill="#F5F5F5"/>
<path d="M273.513 16.918H258.401V32.0296H273.513V16.918Z" fill="#F5F5F5"/>
<path d="M290.411 0H275.3V15.1116H290.411V0Z" fill="#F5F5F5"/>
<path d="M290.411 16.918H275.3V32.0296H290.411V16.918Z" fill="#F5F5F5"/>
<path d="M307.354 0H292.242V15.1116H307.354V0Z" fill="#F5F5F5"/>
<path d="M307.354 16.918H292.242V32.0296H307.354V16.918Z" fill="#F5F5F5"/>
<path d="M324.585 0H309.473V15.1116H324.585V0Z" fill="#F5F5F5"/>
<path d="M324.585 16.918H309.473V32.0296H324.585V16.918Z" fill="#F5F5F5"/>
<path d="M234.32 76.7192C231.232 76.5506 227.739 79.0411 225.364 77.0709C223.534 75.5534 224.03 72.509 222.575 70.6351C221.12 68.7612 218.437 68.7082 216.226 69.3392C214.015 69.9703 211.958 71.1553 209.675 71.3817C207.391 71.6081 204.679 70.4183 204.376 68.1253C204.14 66.3236 205.498 64.5172 204.997 62.7685C204.352 60.5044 201.307 60.148 198.971 60.4225C192.255 61.2169 185.791 63.4534 180.02 66.9788C178.43 67.9422 176.874 69.0309 175.092 69.5897C173.309 70.1485 171.238 70.0714 169.764 68.9298C168.969 68.2987 168.425 67.3979 167.615 66.7909C165.794 65.4228 163.155 65.919 161.17 67.027C159.185 68.1349 157.504 69.7728 155.437 70.7266C153.371 71.6804 150.596 71.7527 149.127 70.0136C148.592 69.3778 148.279 68.5685 147.682 68.0097C146.212 66.6946 143.891 67.4701 142.156 68.4143C136.087 71.7286 130.845 76.3724 124.944 79.9757C121.418 82.1338 117.487 83.9306 113.455 84.7158L238.395 84.4364C240.206 81.4401 237.807 76.9264 234.32 76.7192Z" fill="#E0E0E0"/>
<path d="M217.026 57.7152C217.021 58.2848 216.848 58.8402 216.529 59.3119C216.209 59.7835 215.757 60.1502 215.23 60.3659C214.703 60.5817 214.124 60.6369 213.566 60.5246C213.007 60.4123 212.494 60.1375 212.092 59.7348C211.689 59.332 211.414 58.8192 211.302 58.2608C211.19 57.7024 211.245 57.1233 211.461 56.5961C211.676 56.069 212.043 55.6173 212.515 55.2979C212.986 54.9785 213.542 54.8055 214.111 54.8008C214.884 54.8008 215.626 55.1078 216.172 55.6544C216.719 56.201 217.026 56.9422 217.026 57.7152Z" fill="#E0E0E0"/>
<path d="M280.054 145.702C280.054 145.702 279.91 145.75 279.63 145.827C279.351 145.904 278.927 146.01 278.388 146.174C276.828 146.731 275.342 147.475 273.961 148.39C271.811 149.889 269.758 151.522 267.814 153.279C266.648 154.272 265.405 155.351 264.003 156.377C262.538 157.496 260.947 158.442 259.263 159.195C258.346 159.578 257.398 159.885 256.431 160.115C255.419 160.34 254.392 160.488 253.357 160.558C251.247 160.717 249.051 160.626 246.787 160.597C245.65 160.597 244.498 160.597 243.333 160.659C242.149 160.743 240.971 160.888 239.802 161.093C237.422 161.512 235.013 162.128 232.518 162.682C231.27 162.943 230.003 163.212 228.703 163.381C228.052 163.487 227.393 163.525 226.733 163.593C226.073 163.66 225.403 163.67 224.729 163.622C221.965 163.587 219.267 162.774 216.944 161.276C214.574 159.782 212.522 157.807 210.315 155.977C209.216 155.049 208.042 154.214 206.804 153.482C206.185 153.115 205.541 152.793 204.877 152.518C204.541 152.38 204.196 152.263 203.846 152.166L203.326 152.003C203.147 151.959 202.969 151.926 202.791 151.887C201.367 151.574 199.913 151.425 198.455 151.444C197.01 151.444 195.565 151.526 194.12 151.627C191.268 151.82 188.416 152.075 185.637 151.661L185.121 151.593L184.611 151.478C184.274 151.396 183.927 151.343 183.594 151.237L182.607 150.914C182.279 150.808 181.971 150.654 181.643 150.529C180.415 149.944 179.261 149.217 178.204 148.361C176.203 146.666 174.354 144.799 172.678 142.782C171.088 140.878 169.362 139.091 167.514 137.435C166.616 136.665 165.639 135.99 164.6 135.422C163.589 134.883 162.505 134.496 161.382 134.27C159.161 133.827 156.96 134.184 154.869 134.386C153.839 134.501 152.802 134.54 151.767 134.502C150.771 134.452 149.786 134.271 148.838 133.962C147.092 133.364 145.462 132.47 144.021 131.318C142.731 130.305 141.499 129.221 140.331 128.071C138.496 126.192 136.553 124.423 134.512 122.772C133.207 121.753 131.761 120.928 130.219 120.325C129.685 120.137 129.256 120.002 128.991 119.934C128.726 119.867 128.567 119.814 128.567 119.814L128.996 119.91C129.417 120.009 129.832 120.131 130.239 120.276C131.796 120.859 133.257 121.671 134.574 122.685C136.626 124.334 138.578 126.106 140.418 127.989C141.587 129.129 142.819 130.203 144.107 131.207C145.542 132.345 147.162 133.226 148.896 133.813C149.832 134.113 150.804 134.288 151.786 134.333C152.812 134.372 153.84 134.331 154.86 134.213C156.941 134.01 159.161 133.639 161.43 134.087C162.573 134.314 163.677 134.707 164.706 135.253C165.763 135.824 166.756 136.505 167.669 137.286C169.535 138.949 171.277 140.745 172.881 142.662C174.541 144.672 176.373 146.532 178.358 148.221C179.392 149.065 180.524 149.782 181.73 150.355C182.043 150.48 182.351 150.63 182.693 150.736L183.657 151.049C183.98 151.155 184.322 151.208 184.654 151.285L185.16 151.396L185.671 151.468C188.407 151.873 191.239 151.622 194.096 151.429C195.541 151.323 196.986 151.232 198.431 151.242C199.905 151.223 201.376 151.373 202.815 151.69C202.998 151.728 203.181 151.762 203.359 151.805L203.889 151.974C204.246 152.073 204.596 152.192 204.939 152.33C205.622 152.604 206.283 152.926 206.919 153.294C208.17 154.033 209.356 154.875 210.465 155.813C212.681 157.639 214.728 159.604 217.064 161.083C219.353 162.556 222.008 163.358 224.729 163.4C225.389 163.444 226.053 163.4 226.708 163.371C227.364 163.342 228.014 163.27 228.659 163.159C229.95 162.996 231.213 162.726 232.46 162.47C234.951 161.921 237.364 161.31 239.754 160.89C240.93 160.685 242.117 160.542 243.309 160.462C244.484 160.389 245.64 160.389 246.777 160.404C249.046 160.438 251.238 160.529 253.333 160.375C254.359 160.314 255.379 160.172 256.383 159.951C257.338 159.724 258.274 159.421 259.181 159.045C260.856 158.304 262.438 157.372 263.897 156.266C265.299 155.245 266.542 154.175 267.713 153.188C269.667 151.434 271.733 149.808 273.898 148.322C275.289 147.414 276.788 146.681 278.359 146.14C278.908 145.986 279.322 145.89 279.616 145.817C279.91 145.745 280.054 145.702 280.054 145.702Z" fill="#E0E0E0"/>
<path d="M314.175 98.9556C314.166 99.0054 314.152 99.0539 314.131 99.1001C314.081 99.24 314.013 99.3729 313.929 99.4951C313.573 99.9511 313.056 100.253 312.484 100.338C311.581 100.495 310.652 100.335 309.854 99.8853C308.89 99.4036 308.004 98.5943 306.828 98.0355C306.213 97.7484 305.542 97.6019 304.863 97.6067C304.126 97.6305 303.4 97.7939 302.724 98.0885C301.235 98.762 299.907 99.7477 298.832 100.979C298.227 101.664 297.47 102.197 296.621 102.535C296.164 102.681 295.679 102.721 295.204 102.65C294.733 102.577 294.269 102.465 293.817 102.313C292.919 101.998 291.97 101.851 291.018 101.88C290.042 101.946 289.084 102.172 288.181 102.549C286.402 103.34 284.763 104.415 283.33 105.733C281.885 106.971 280.555 108.224 279.12 109.231C278.421 109.726 277.677 110.155 276.899 110.512C276.162 110.84 275.394 111.093 274.606 111.268C273.179 111.552 271.718 111.623 270.27 111.48C269.087 111.365 267.913 111.162 266.759 110.873C265.742 110.628 264.875 110.392 264.172 110.151C263.469 109.91 262.924 109.751 262.558 109.626L262.139 109.481C262.091 109.467 262.046 109.445 262.004 109.419L262.149 109.452L262.573 109.578L264.196 110.059C264.904 110.266 265.771 110.502 266.792 110.738C267.942 111.01 269.109 111.199 270.285 111.302C271.707 111.43 273.14 111.351 274.539 111.066C275.311 110.891 276.065 110.639 276.788 110.315C277.552 109.958 278.281 109.53 278.966 109.038C280.382 108.041 281.716 106.793 283.152 105.55C284.602 104.212 286.262 103.12 288.065 102.318C288.995 101.93 289.984 101.699 290.989 101.634C291.972 101.603 292.952 101.753 293.88 102.077C294.771 102.357 295.696 102.597 296.539 102.308C297.351 101.98 298.076 101.469 298.658 100.815C299.758 99.5613 301.116 98.5591 302.637 97.8765C303.339 97.5785 304.091 97.4151 304.853 97.3948C305.56 97.404 306.255 97.5685 306.891 97.8765C308.095 98.4594 308.987 99.2783 309.907 99.76C310.676 100.208 311.575 100.378 312.455 100.242C313.018 100.177 313.535 99.8996 313.9 99.4662C314.007 99.3048 314.099 99.1339 314.175 98.9556Z" fill="#E0E0E0"/>
<path d="M324.623 96.5035C324.622 96.9902 324.477 97.4656 324.206 97.8698C323.935 98.274 323.55 98.5887 323.101 98.7743C322.651 98.9599 322.156 99.008 321.679 98.9124C321.201 98.8169 320.763 98.5821 320.42 98.2376C320.076 97.8932 319.842 97.4545 319.747 96.9772C319.653 96.4998 319.702 96.0051 319.888 95.5556C320.074 95.1061 320.39 94.7219 320.795 94.4516C321.199 94.1814 321.675 94.0371 322.162 94.0371C322.485 94.0371 322.806 94.1009 323.105 94.2249C323.404 94.349 323.675 94.5307 323.904 94.7598C324.133 94.9889 324.314 95.2608 324.437 95.56C324.561 95.8592 324.624 96.1799 324.623 96.5035Z" fill="#EBEBEB"/>
<path d="M111.143 126.977C111.144 127.465 111 127.943 110.729 128.349C110.459 128.756 110.074 129.073 109.623 129.26C109.172 129.447 108.676 129.496 108.197 129.401C107.718 129.306 107.278 129.071 106.933 128.726C106.587 128.381 106.352 127.941 106.257 127.462C106.162 126.983 106.212 126.487 106.399 126.036C106.586 125.585 106.903 125.2 107.309 124.929C107.716 124.659 108.193 124.515 108.681 124.516C109.334 124.516 109.96 124.775 110.422 125.237C110.884 125.698 111.143 126.324 111.143 126.977Z" fill="#EBEBEB"/>
<path d="M123.172 140.933C125.066 140.933 126.602 139.397 126.602 137.503C126.602 135.609 125.066 134.073 123.172 134.073C121.278 134.073 119.742 135.609 119.742 137.503C119.742 139.397 121.278 140.933 123.172 140.933Z" fill="#EBEBEB"/>
<path d="M320.943 104.611C320.944 104.855 320.872 105.094 320.737 105.298C320.602 105.501 320.409 105.66 320.184 105.754C319.958 105.848 319.71 105.873 319.47 105.826C319.231 105.778 319.011 105.661 318.838 105.488C318.665 105.315 318.547 105.095 318.5 104.855C318.453 104.616 318.477 104.367 318.571 104.142C318.665 103.916 318.824 103.724 319.028 103.588C319.231 103.453 319.47 103.382 319.715 103.383C320.04 103.384 320.352 103.514 320.582 103.744C320.812 103.974 320.942 104.286 320.943 104.611Z" fill="#EBEBEB"/>
<path d="M120.233 123.817C120.233 124.061 120.161 124.3 120.025 124.502C119.89 124.705 119.697 124.863 119.472 124.957C119.247 125.05 118.999 125.074 118.759 125.027C118.52 124.979 118.301 124.862 118.128 124.689C117.956 124.517 117.838 124.297 117.791 124.058C117.743 123.819 117.767 123.571 117.861 123.345C117.954 123.12 118.112 122.927 118.315 122.792C118.518 122.656 118.756 122.584 119 122.584C119.327 122.584 119.641 122.714 119.872 122.945C120.103 123.176 120.233 123.49 120.233 123.817Z" fill="#EBEBEB"/>
<path d="M20.5744 127.604C24.1777 119.761 32.526 113.706 40.2191 112.131C47.9987 110.57 56.0804 111.908 62.9419 115.893C76.5843 123.894 83.656 141.424 98.6954 146.381C106.615 148.997 115.271 147.513 123.528 148.689C129.415 149.522 135.258 151.839 139.391 156.112C143.525 160.385 145.683 166.806 143.963 172.49C142.72 176.609 139.984 181.349 136.352 183.657C132.719 185.964 128.08 188.638 123.923 189.726C96.3879 196.914 66.2128 194.992 41.881 180.237C34.7708 175.925 27.0536 165.515 22.5495 157.856C18.7343 151.343 15.2562 140.576 20.5744 127.628" fill="#F5F5F5"/>
<path d="M334.137 140.114C331.483 134.743 326.131 130.821 321.458 130.026C319.122 129.644 316.73 129.765 314.444 130.383C312.158 131.002 310.032 132.102 308.206 133.61C300.619 139.805 297.541 152.441 288.937 156.55C284.404 158.718 279.163 158.029 274.336 159.195C270.892 160.023 267.592 161.897 265.391 165.077C263.189 168.256 262.351 172.866 263.738 176.802C264.745 179.654 266.677 182.876 268.984 184.35C271.292 185.824 274.216 187.515 276.759 188.108C293.586 192.034 311.39 189.442 324.888 178.049C328.834 174.726 332.745 167.076 334.923 161.483C336.768 156.738 338.131 149.011 334.137 140.114Z" fill="#F5F5F5"/>
<path d="M206.897 184.646C212.315 178.375 211.624 168.899 205.354 163.481C199.083 158.063 189.607 158.753 184.189 165.024C178.77 171.295 179.461 180.771 185.732 186.189C192.002 191.608 201.478 190.917 206.897 184.646Z" fill="#F5F5F5"/>
<path d="M285.483 90.3664C284.216 88.6225 281.726 88.2371 279.616 88.6562C277.506 89.0753 275.565 90.1014 273.493 90.7084C271.422 91.3153 268.358 90.9733 266.71 89.5811C263.338 87.5146 261.527 87.6832 259.894 88.1023C258.261 88.5214 256.811 89.9906 256.04 91.5466C254.995 93.7336 256.228 97.0623 257.654 99.0229C260.829 103.382 265.998 105.319 271.388 105.126C274.09 105.003 276.722 104.229 279.061 102.873C281.401 101.516 283.379 99.6154 284.828 97.3321C286.162 95.2317 286.938 92.3751 285.483 90.3664Z" fill="#F5F5F5"/>
<path d="M288.836 118.86C293.653 116.09 292.136 114.091 293.022 111.239C293.441 109.881 294.029 108.653 295.219 107.916C296.105 107.366 297.685 107.506 298.653 107.887C299.655 108.251 300.623 108.704 301.544 109.24C303.208 110.323 305.076 111.052 307.033 111.384C308.99 111.715 310.995 111.641 312.922 111.167C315.942 110.493 318.842 108.942 321.93 109.096C322.635 109.085 323.325 109.303 323.896 109.717C324.18 109.938 324.382 110.248 324.469 110.597C324.557 110.947 324.524 111.315 324.377 111.644C323.958 112.391 322.932 112.439 322.133 112.608C320.634 112.916 319.628 114.332 318.163 115.329C316.887 116.196 313.645 118.114 312.305 118.87C306.905 121.914 299.67 125.421 294.65 128.052" fill="#FFBF9D"/>
<path d="M288.865 118.913C290.585 117.906 292.194 116.635 292.569 114.578C292.709 113.831 292.719 113.065 292.839 112.318C292.999 111.19 293.404 110.11 294.024 109.154C294.939 107.819 296.303 107.405 297.878 107.708C299.31 108.084 300.672 108.689 301.91 109.5C304.236 110.902 306.902 111.635 309.617 111.62C312.59 111.577 315.258 110.469 318.076 109.693C319.522 109.284 321.198 108.927 322.725 109.235C323.128 109.283 323.509 109.447 323.82 109.708C324.13 109.969 324.358 110.316 324.474 110.705C324.71 111.75 323.799 112.213 322.952 112.391C322.447 112.461 321.951 112.586 321.473 112.762C320.933 113.032 320.432 113.374 319.984 113.778C319.065 114.583 318.087 115.318 317.06 115.98C315.181 117.155 313.264 118.282 311.328 119.352C305.846 122.377 300.2 125.084 294.655 127.984C294.588 128.018 294.655 128.124 294.718 128.085C299.978 125.335 305.316 122.757 310.542 119.896C312.614 118.769 314.655 117.584 316.665 116.341C317.66 115.755 318.605 115.086 319.488 114.342C319.98 113.88 320.51 113.461 321.073 113.089C321.723 112.762 322.423 112.546 323.144 112.449C324.031 112.241 324.811 111.663 324.589 110.652C324.329 109.447 323.062 109.062 321.978 109.004C318.91 108.84 316.077 110.343 313.158 111.032C310.055 111.814 306.783 111.567 303.832 110.329C301.423 109.293 299.015 107.116 296.226 107.516C293.788 107.863 292.853 110.921 292.666 113.007C292.644 113.968 292.448 114.916 292.088 115.806C291.423 117.155 290.103 118.051 288.846 118.788C288.778 118.827 288.846 118.933 288.903 118.894L288.865 118.913Z" fill="#FF9A6C"/>
<path d="M289.727 118.306C270.299 126.703 258.762 121.789 249.865 131.722L209.159 120.392L199.448 135.017L205.638 143.924L247.066 150.721C247.066 150.721 252.847 151.299 256.44 148.438C260.034 145.576 300.499 125.045 300.499 125.045" fill="#FFBF9D"/>
<path d="M300.484 125.046C300.484 125.046 300.33 125.137 300.027 125.296L298.673 125.995L293.456 128.687C288.923 131.029 282.347 134.41 274.24 138.674C270.189 140.812 265.733 143.154 261.036 145.813C259.856 146.468 258.666 147.157 257.481 147.889C256.903 148.269 256.33 148.674 255.737 149.088C255.12 149.464 254.467 149.776 253.786 150.018C252.389 150.509 250.929 150.794 249.451 150.866C248.7 150.912 247.947 150.912 247.196 150.866C246.44 150.77 245.703 150.63 244.946 150.514L205.638 144.05H205.585L205.556 144.006L202.222 139.223L199.332 135.099L199.284 135.027L199.332 134.955L209.048 120.334L209.097 120.257L209.183 120.281L249.884 131.636L249.783 131.664C250.844 130.467 252.05 129.406 253.372 128.504C254.635 127.652 255.993 126.949 257.418 126.409C260.048 125.477 262.764 124.81 265.526 124.419C268.108 123.995 270.516 123.649 272.727 123.249C274.938 122.849 276.952 122.425 278.749 121.977C281.527 121.288 284.262 120.434 286.938 119.419C287.858 119.077 288.552 118.788 289.024 118.595L289.737 118.316C289.737 118.316 289.501 118.427 289.034 118.624C288.566 118.822 287.878 119.106 286.957 119.477C284.294 120.515 281.569 121.385 278.797 122.083C276.995 122.565 274.982 122.979 272.771 123.384C270.56 123.788 268.146 124.145 265.574 124.578C262.823 124.976 260.119 125.646 257.5 126.577C256.092 127.116 254.75 127.814 253.502 128.659C252.194 129.554 251.001 130.607 249.952 131.795L249.908 131.843H249.85L209.135 120.532L209.27 120.484L199.559 135.109V134.969L202.449 139.093L205.787 143.881L205.705 143.828L244.995 150.288C245.746 150.403 246.502 150.548 247.235 150.644C247.974 150.69 248.716 150.69 249.455 150.644C250.909 150.573 252.344 150.294 253.719 149.816C254.392 149.582 255.038 149.277 255.645 148.905C256.219 148.51 256.802 148.101 257.389 147.711C258.584 146.978 259.798 146.29 260.959 145.634C265.685 143.004 270.112 140.677 274.197 138.548C282.318 134.299 288.908 130.942 293.466 128.625L298.702 125.975L300.065 125.296C300.32 125.099 300.484 125.046 300.484 125.046Z" fill="#FF9A6C"/>
<path d="M305.2 132.161C305.2 132.161 288.012 122.854 281.196 120.599C276.711 119.125 265.482 118.581 260.752 116.929C256.021 115.276 215.369 97.9294 215.369 97.9294L203.268 100.338L202.304 112.434L204.674 118.552L208.721 124.708C208.721 124.708 240.63 132.541 248.511 133.77C256.392 134.998 273.561 136.756 280.204 138.346C287.95 140.205 300.735 142.132 300.735 142.132" fill="#FFBF9D"/>
<path d="M300.744 142.123C300.744 142.123 300.59 142.123 300.287 142.065L298.933 141.862C297.743 141.684 295.98 141.405 293.711 141.024C291.442 140.644 288.653 140.162 285.416 139.526C283.797 139.203 282.044 138.852 280.237 138.418C278.431 137.985 276.451 137.662 274.385 137.334C270.251 136.689 265.685 136.106 260.757 135.484L253.092 134.521C250.457 134.174 247.731 133.808 244.961 133.23C239.426 132.103 233.616 130.768 227.556 129.376C221.496 127.984 215.195 126.447 208.697 124.858H208.653L208.625 124.819L204.578 118.663V118.639C203.827 116.712 203.022 114.631 202.208 112.53V112.506V112.477C202.372 110.348 202.55 108.065 202.733 105.762C202.874 103.96 203.016 102.167 203.157 100.381V100.29H203.253L215.354 97.8811H215.388H215.426C228.033 103.252 239.903 108.296 250.636 112.776C253.319 113.894 255.935 114.977 258.473 115.999C259.711 116.531 260.984 116.975 262.284 117.328C263.565 117.646 264.846 117.882 266.113 118.085C268.642 118.494 271.094 118.793 273.445 119.12C275.796 119.448 278.046 119.766 280.156 120.281C281.178 120.557 282.182 120.898 283.161 121.302C284.125 121.673 285.035 122.078 285.927 122.468C287.699 123.265 289.353 124.039 290.888 124.79C293.962 126.279 296.568 127.618 298.692 128.721C300.817 129.824 302.44 130.691 303.543 131.284L304.791 131.968L305.21 132.204L298.649 128.798C296.524 127.709 293.909 126.389 290.835 124.906C289.299 124.159 287.637 123.393 285.864 122.598C284.973 122.218 284.057 121.818 283.104 121.447C282.13 121.049 281.133 120.713 280.117 120.44C278.017 119.934 275.782 119.621 273.421 119.298C271.061 118.976 268.604 118.682 266.08 118.277C264.813 118.075 263.526 117.844 262.226 117.521C260.911 117.17 259.623 116.726 258.372 116.191C255.819 115.175 253.208 114.091 250.52 112.978C239.782 108.508 227.908 103.479 215.301 98.1075H215.373L203.273 100.516L203.374 100.401C203.236 102.183 203.094 103.976 202.95 105.781C202.767 108.084 202.589 110.367 202.42 112.497V112.444C203.229 114.539 204.039 116.62 204.785 118.547L208.832 124.699L208.759 124.65C215.253 126.24 221.554 127.753 227.609 129.174C233.664 130.595 239.474 131.934 245.004 133.066C247.764 133.649 250.481 134.03 253.121 134.367L260.781 135.359C265.709 135.99 270.275 136.578 274.413 137.238C276.48 137.57 278.441 137.903 280.271 138.341C282.102 138.779 283.826 139.136 285.44 139.463C288.672 140.109 291.457 140.61 293.726 141.005L300.744 142.123Z" fill="#FF9A6C"/>
<path d="M304.15 131.597C309.179 133.89 309.618 131.462 312.339 130.479C313.65 129.998 314.955 129.757 316.237 130.296C317.2 130.701 318.033 132.084 318.322 133.11C318.642 134.158 318.874 135.231 319.016 136.318C319.339 140.397 321.259 144.183 324.358 146.853C326.695 148.939 329.657 150.403 331.377 153.043C331.807 153.62 332.049 154.314 332.071 155.033C332.076 155.389 331.959 155.735 331.74 156.016C331.521 156.296 331.213 156.493 330.866 156.574C330.033 156.676 329.392 155.876 328.766 155.303C327.629 154.252 325.924 154.272 324.277 153.66C322.14 152.875 320.05 151.971 318.014 150.953C312.619 147.889 306.144 144.512 300.725 142.123" fill="#FFBF9D"/>
<path d="M300.744 142.123L300.937 142.195L301.5 142.441C301.982 142.648 302.695 142.961 303.606 143.38C305.426 144.218 308.037 145.48 311.212 147.133C312.802 147.961 314.531 148.886 316.371 149.907C317.301 150.389 318.221 150.986 319.237 151.444C320.254 151.902 321.318 152.364 322.412 152.807C323.515 153.294 324.658 153.688 325.827 153.983C326.446 154.101 327.056 154.262 327.653 154.464C327.959 154.581 328.25 154.733 328.52 154.917C328.784 155.11 329.031 155.326 329.257 155.563C329.705 155.996 330.221 156.483 330.813 156.444C331.114 156.396 331.39 156.248 331.597 156.024C331.804 155.801 331.93 155.515 331.955 155.211C332.003 154.566 331.834 153.923 331.473 153.385C331.122 152.815 330.716 152.281 330.259 151.791C328.4 149.811 326.006 148.525 324.103 146.752C322.234 145.082 320.795 142.987 319.907 140.644C319.506 139.553 319.22 138.422 319.054 137.272C318.968 136.713 318.929 136.159 318.838 135.634C318.746 135.109 318.63 134.579 318.5 134.073C318.385 133.573 318.239 133.081 318.062 132.599C317.876 132.146 317.633 131.719 317.339 131.327C317.068 130.95 316.716 130.637 316.309 130.412C315.901 130.226 315.464 130.115 315.018 130.084C314.175 130.053 313.335 130.191 312.546 130.489C311.837 130.741 311.164 131.088 310.547 131.52C310.006 131.911 309.41 132.221 308.779 132.44C308.235 132.587 307.667 132.628 307.108 132.56C306.343 132.447 305.596 132.234 304.887 131.925L304.338 131.679L304.155 131.587L304.347 131.655L304.906 131.876C305.615 132.165 306.358 132.361 307.117 132.459C307.657 132.519 308.204 132.473 308.726 132.324C309.342 132.102 309.923 131.792 310.451 131.404C311.075 130.958 311.757 130.599 312.479 130.34C313.284 130.027 314.144 129.879 315.008 129.906C315.477 129.936 315.938 130.05 316.366 130.243C316.804 130.477 317.182 130.806 317.474 131.207C317.781 131.61 318.035 132.05 318.231 132.517C318.413 133.006 318.565 133.507 318.683 134.015C318.818 134.526 318.939 135.051 319.03 135.59C319.122 136.13 319.165 136.689 319.252 137.238C319.422 138.37 319.708 139.483 320.105 140.557C320.986 142.864 322.408 144.926 324.252 146.569C326.121 148.313 328.52 149.599 330.423 151.617C330.894 152.119 331.312 152.668 331.671 153.255C332.06 153.842 332.238 154.543 332.177 155.245C332.123 155.6 331.973 155.933 331.743 156.208C331.627 156.348 331.484 156.463 331.323 156.546C331.161 156.629 330.985 156.678 330.804 156.69C330.449 156.699 330.102 156.591 329.816 156.382C329.546 156.188 329.293 155.972 329.06 155.736C328.643 155.27 328.121 154.91 327.538 154.686C326.951 154.486 326.353 154.325 325.746 154.204C324.565 153.906 323.413 153.507 322.301 153.01C321.203 152.562 320.138 152.109 319.122 151.632C318.105 151.155 317.171 150.577 316.232 150.076C314.396 149.05 312.672 148.115 311.092 147.282C307.927 145.605 305.311 144.324 303.524 143.462L301.443 142.474L300.898 142.219C300.845 142.191 300.793 142.159 300.744 142.123Z" fill="#FF9A6C"/>
<path d="M96.7686 87.5483C96.7686 87.5483 104.515 97.043 112.665 101.846C120.816 106.649 139.415 117.208 144.136 119.597C148.857 121.987 173.897 129.993 173.897 129.993C175.802 127.611 177.095 124.8 177.664 121.804C178.738 116.611 177.77 93.9408 177.77 93.9408C177.77 93.9408 171.026 91.3105 169.046 88.348C167.929 86.686 150.404 69.8305 150.404 69.8305C150.404 69.8305 135.856 61.1595 133.693 61.6124C131.53 62.0652 120.373 69.3199 120.373 69.3199L108.503 83.1887C108.503 83.1887 97.6068 83.8535 96.7686 87.5483Z" fill="#FFBF9D"/>
<path d="M98.8976 85.7948C98.8976 85.7948 78.6653 86.4114 73.3663 85.4673C68.0674 84.5231 56.9299 86.1176 51.3998 86.6908C45.8696 87.2641 32.8486 88.9694 32.8486 88.9694V95.7135C32.8486 95.7135 56.9348 98.4641 63.3706 97.8909C69.8064 97.3176 71.661 97.3176 75.4136 97.4332C79.1663 97.5489 89.4703 100.324 98.6567 100.324C108.291 100.324 114.072 100.324 114.072 100.324L108.041 89.4511L98.8976 85.7948Z" fill="#FFBF9D"/>
<path d="M1.86914 92.6496C1.86914 92.6496 1.86914 95.0245 4.50898 95.0245C4.50898 95.0245 4.71612 96.3203 7.14882 96.2481C9.58152 96.1758 19.1004 97.5439 19.1004 97.5439H21.7643C21.7643 97.5439 18.0117 98.8397 16.6195 99.0565C15.2273 99.2733 12.52 100.28 13.074 101.215C13.628 102.149 14.6059 102.371 16.8266 101.72C19.0474 101.07 21.9714 101.075 24.3319 100.786C26.6923 100.497 27.6028 100.569 28.8504 99.201C30.1074 97.9588 31.4429 96.7987 32.8487 95.7278V88.9692C32.8487 88.9692 29.2695 89.4799 27.7376 90.1302C26.2058 90.7805 21.0658 92.2883 18.845 92.2161C16.6243 92.1438 1.86914 92.6496 1.86914 92.6496Z" fill="#FFBF9D"/>
<path d="M142.021 96.1228C142.707 95.6092 143.34 95.0282 143.91 94.3886C145.215 92.7831 146.099 90.8774 146.482 88.844C146.846 86.8037 146.975 84.7284 146.868 82.6587C146.834 81.8976 146.81 81.2665 146.791 80.7703C146.772 80.5395 146.772 80.3075 146.791 80.0767C146.841 80.3077 146.867 80.5435 146.868 80.78C146.916 81.2232 146.974 81.8687 147.022 82.6635C147.195 84.7549 147.097 86.86 146.728 88.9259C146.341 91.001 145.416 92.938 144.045 94.5428C143.622 95.0172 143.145 95.4408 142.624 95.8049C142.482 95.9041 142.336 95.9957 142.185 96.0795C142.084 96.1036 142.05 96.1325 142.021 96.1228Z" fill="#FF9A6C"/>
<path d="M149.633 106.918C149.439 106.858 149.252 106.779 149.074 106.682C148.722 106.514 148.216 106.258 147.6 105.936C146.367 105.281 144.709 104.332 142.898 103.185C141.087 102.039 139.526 100.921 138.423 100.078C137.869 99.654 137.426 99.3072 137.127 99.0567C136.961 98.9375 136.81 98.8001 136.674 98.6472C136.856 98.7394 137.027 98.8508 137.185 98.9796L138.529 99.9431C139.661 100.748 141.241 101.841 143.033 102.983C144.825 104.124 146.477 105.097 147.687 105.786L149.132 106.605C149.309 106.692 149.477 106.797 149.633 106.918Z" fill="#FF9A6C"/>
<path d="M122.204 69.0115L101.008 45.754C95.4486 39.5446 87.2016 37.6032 81.1463 43.3453L80.6164 43.9041C78.0578 46.6356 76.6182 50.2283 76.5825 53.9707C76.5468 57.7132 77.9177 61.3326 80.4237 64.1124C85.2747 69.4692 90.6989 75.3221 93.5458 77.933C99.4421 83.338 105.83 78.3618 105.83 78.3618L109.823 82.0084L116.977 82.9719L122.204 69.0115Z" fill="#FFBF9D"/>
<path d="M105.83 78.3714C108.362 75.6711 110.066 72.3003 110.738 68.6599C110.738 68.6599 113.86 74.8693 107.848 80.1924L105.83 78.3714Z" fill="#FF9A6C"/>
<path d="M87.0135 67.5953C87.2268 67.8033 87.5129 67.9197 87.8108 67.9197C88.1087 67.9197 88.3948 67.8033 88.608 67.5953C88.7156 67.4974 88.8026 67.379 88.8638 67.2471C88.9251 67.1152 88.9594 66.9724 88.9648 66.827C88.9702 66.6817 88.9465 66.5367 88.8952 66.4006C88.8438 66.2646 88.7659 66.1401 88.6659 66.0345C88.452 65.8276 88.1661 65.7119 87.8686 65.7119C87.5711 65.7119 87.2852 65.8276 87.0714 66.0345C86.9638 66.1324 86.8768 66.2508 86.8156 66.3827C86.7543 66.5146 86.72 66.6574 86.7146 66.8027C86.7092 66.9481 86.7329 67.093 86.7842 67.2291C86.8356 67.3652 86.9135 67.4897 87.0135 67.5953Z" fill="#263238"/>
<path d="M95.3571 59.7432C95.5703 59.9513 95.8564 60.0677 96.1543 60.0677C96.4522 60.0677 96.7383 59.9513 96.9516 59.7432C97.0594 59.6454 97.1465 59.5269 97.2077 59.3947C97.2689 59.2626 97.303 59.1196 97.3079 58.974C97.3128 58.8285 97.2885 58.6835 97.2364 58.5475C97.1843 58.4115 97.1055 58.2874 97.0045 58.1824C96.7921 57.9747 96.5068 57.8584 96.2097 57.8584C95.9126 57.8584 95.6273 57.9747 95.4149 58.1824C95.3073 58.2803 95.2203 58.3987 95.1591 58.5306C95.0978 58.6625 95.0635 58.8053 95.0581 58.9507C95.0527 59.096 95.0764 59.241 95.1277 59.3771C95.1791 59.5132 95.257 59.6376 95.3571 59.7432Z" fill="#263238"/>
<path d="M96.4842 66.3813C96.436 66.3283 95.8194 66.7956 94.856 67.5856C94.6151 67.7927 94.3743 67.9661 94.1768 67.8602C93.9793 67.7542 93.801 67.4314 93.642 67.0701L92.5341 64.7579C90.9396 61.487 89.5378 58.8905 89.4077 58.9772C89.2776 59.0639 90.4627 61.7471 92.062 65.0132C92.4618 65.8129 92.8376 66.5788 93.2037 67.311C93.3432 67.7149 93.6214 68.0563 93.9889 68.2744C94.1008 68.3177 94.2212 68.3345 94.3406 68.3236C94.4601 68.3128 94.5755 68.2745 94.6778 68.2118C94.8325 68.1196 94.9736 68.0061 95.0969 67.8746C95.9977 66.9931 96.5324 66.4295 96.4842 66.3813Z" fill="#263238"/>
<path d="M89.7065 55.1427C90.0389 55.2776 90.7422 54.2612 91.8357 53.3025C92.9292 52.3439 93.9987 51.7418 93.9071 51.3756C93.8542 51.2167 93.488 51.1589 92.9437 51.2889C92.2275 51.4869 91.5676 51.8499 91.0168 52.3487C90.4578 52.8366 90.0234 53.451 89.7499 54.1407C89.5427 54.7043 89.5427 55.0753 89.7065 55.1427Z" fill="#263238"/>
<path d="M81.493 62.8503C81.8687 62.8503 82.3601 61.9399 83.1838 61.0631C84.0076 60.1864 84.865 59.618 84.8217 59.2278C84.7879 59.0543 84.4796 58.9773 83.9786 59.1121C83.3251 59.3307 82.7369 59.7098 82.2681 60.2148C81.7993 60.7198 81.4648 61.3345 81.2955 62.0025C81.2087 62.5324 81.3147 62.8359 81.493 62.8503Z" fill="#263238"/>
<path d="M104.876 50.2871C104.924 50.1474 107.453 45.1664 111.321 49.0394C115.19 52.9125 109.688 56.9397 110.156 56.2942C110.257 56.1689 104.876 50.2871 104.876 50.2871Z" fill="#FFBF9D"/>
<path d="M110.098 53.24C110.098 53.2111 110.213 53.24 110.382 53.1581C110.608 53.0685 110.793 52.8964 110.897 52.6764C111.153 52.1176 110.849 51.1252 110.175 50.4075C109.852 50.0661 109.457 49.8011 109.019 49.6319C108.861 49.5492 108.686 49.506 108.508 49.506C108.33 49.506 108.155 49.5492 107.997 49.6319C107.899 49.6876 107.824 49.776 107.784 49.8817C107.745 49.9873 107.743 50.1035 107.781 50.21C107.838 50.3738 107.94 50.4267 107.925 50.4508C107.911 50.4749 107.781 50.4508 107.65 50.2774C107.575 50.1603 107.543 50.0207 107.559 49.8824C107.57 49.7878 107.6 49.6965 107.648 49.6138C107.695 49.531 107.758 49.4586 107.834 49.4007C108.024 49.2723 108.244 49.1951 108.472 49.1765C108.701 49.1579 108.931 49.1986 109.139 49.2947C109.638 49.4666 110.088 49.7576 110.449 50.1425C111.206 50.947 111.533 52.0694 111.133 52.7968C111.06 52.9303 110.957 53.0455 110.833 53.1339C110.708 53.2223 110.566 53.2816 110.416 53.3074C110.199 53.3219 110.093 53.2641 110.098 53.24Z" fill="#FF9A6C"/>
<path d="M99.7697 64.2233C99.63 64.3486 100.502 65.2494 100.353 66.632C100.203 68.0145 99.1434 68.8527 99.259 68.9828C99.3747 69.1128 99.6444 68.949 100.059 68.5685C100.599 68.0616 100.941 67.3782 101.022 66.6416C101.102 65.9392 100.906 65.2333 100.478 64.6713C100.141 64.286 99.8275 64.1607 99.7697 64.2233Z" fill="#263238"/>
<path d="M78.5016 61.4389C78.5016 61.4389 77.4804 56.4916 83.0684 51.2408C91.908 42.9456 105.984 52.686 105.984 52.686L106.114 48.601C106.114 48.601 97.0528 33.5713 83.0443 39.535C77.5382 41.8762 74.855 46.3706 74.855 52.5415C74.908 58.3848 78.5016 61.4389 78.5016 61.4389Z" fill="#455A64"/>
<path d="M76.3242 52.9076C76.2755 52.7315 76.2464 52.5506 76.2375 52.3681C76.2067 52.1559 76.1906 51.9418 76.1893 51.7274C76.1748 51.4433 76.1748 51.1588 76.1893 50.8747C76.2179 50.1357 76.3114 49.4007 76.4687 48.6781C76.6746 47.7954 76.9633 46.9341 77.331 46.1057C77.7137 45.2827 78.1751 44.4987 78.7087 43.7645C79.1498 43.1708 79.6431 42.6178 80.1828 42.1122C80.3868 41.9152 80.6006 41.7287 80.8235 41.5534C80.9867 41.4138 81.1589 41.285 81.339 41.168C81.4865 41.0527 81.6484 40.9572 81.8207 40.8838C81.8496 40.9223 81.2041 41.3655 80.3225 42.2374C79.8093 42.7554 79.3374 43.3127 78.9111 43.9042C78.3965 44.6308 77.9498 45.4032 77.5767 46.2116C77.2124 47.0236 76.9222 47.8669 76.7096 48.7311C76.5409 49.4385 76.4314 50.1588 76.382 50.8844C76.2809 52.1272 76.3772 52.9028 76.3242 52.9076Z" fill="white"/>
<g opacity="0.3">
<path d="M100.073 42.011C100.232 42.3578 99.9285 42.6276 99.5672 42.7336C99.1934 42.8079 98.8057 42.7624 98.4593 42.6035C98.1176 42.4406 97.7442 42.3551 97.3658 42.353C96.5276 42.4253 96.0362 43.3165 95.2943 43.7307C94.9865 43.8829 94.6486 43.9645 94.3053 43.9695C93.9619 43.9745 93.6218 43.9028 93.3096 43.7596C92.6856 43.4628 92.1544 43.0015 91.773 42.4253C91.4309 41.9436 91.1274 41.3655 90.5831 41.1246C90.3541 41.0393 90.1094 41.0045 89.8657 41.0228C89.6221 41.0411 89.3853 41.112 89.1716 41.2306C88.7476 41.4707 88.3706 41.7857 88.0589 42.1603C87.7645 42.5658 87.367 42.8852 86.9076 43.0852C86.6106 43.1467 86.3035 43.1395 86.0096 43.0644C85.7158 42.9893 85.443 42.8481 85.2119 42.6517C84.6879 42.2751 84.2525 41.7885 83.9363 41.226C83.6201 40.6635 83.4307 40.0387 83.3813 39.3952C85.84 38.3927 88.5007 37.985 91.1467 38.2054C92.8873 38.3965 94.5838 38.8768 96.1663 39.6265C97.5556 40.2689 98.8665 41.069 100.073 42.011Z" fill="white"/>
</g>
<path d="M93.276 57.6574C93.4976 57.6863 93.7578 56.5495 94.7742 55.7305C95.7906 54.9116 96.9564 54.7671 96.9612 54.5648C96.9612 54.4636 96.6577 54.3384 96.1375 54.3673C95.4432 54.4194 94.7836 54.691 94.2539 55.1428C93.7246 55.5829 93.3527 56.1831 93.1941 56.853C93.0882 57.325 93.1749 57.6574 93.276 57.6574Z" fill="#263238"/>
<path d="M84.157 65.4758C84.3786 65.5047 84.6387 64.3679 85.6503 63.5489C86.6619 62.73 87.8373 62.5855 87.8373 62.3832C87.8373 62.282 87.5386 62.1519 87.0136 62.1809C86.3212 62.2382 85.6641 62.5112 85.1349 62.9612C84.6055 63.4013 84.2336 64.0015 84.0751 64.6714C83.9691 65.1531 84.051 65.4662 84.157 65.4758Z" fill="#263238"/>
<path d="M125.359 73.4627C125.359 73.4627 125.359 65.336 128.177 62.1181C130.995 58.9002 142.677 53.8758 142.677 53.8758C142.677 53.8758 151.434 52.1609 157.311 49.102C160.399 47.493 163.969 46.8668 166.662 46.6307C169.148 46.4189 171.63 47.0817 173.68 48.5046L204.077 69.6474L199.857 77.196C199.857 77.196 176.71 67.3448 174.239 65.2638C171.768 63.1827 166.507 60.2442 166.507 60.2442C166.507 60.2442 160.163 65.3167 156.468 66.6078C152.773 67.8988 146.188 72.8702 146.188 72.8702L132.108 78.7472L125.359 73.4627Z" fill="#FFBF9D"/>
<path d="M199.563 76.5169C199.563 76.5169 200.599 81.7869 203.157 83.1454C205.715 84.5039 208.846 87.346 209.419 89.1717C209.993 90.9975 211.409 90.9059 211.582 89.5186C211.756 88.1312 211.414 86.8836 210.455 85.1831C209.496 83.4826 210.455 83.6705 211.322 84.1522C212.444 84.7495 218.201 87.11 221.236 87.1967C224.271 87.2834 224.796 85.896 224.536 85.6359C224.276 85.3758 217.247 82.5143 217.247 82.5143C217.247 82.5143 226.882 83.7716 227.821 83.6271C228.987 83.4441 229.088 81.8351 227.758 81.469C227.367 81.3545 226.965 81.2755 226.559 81.233C226.559 81.233 226.819 80.2165 224.839 79.465C222.859 78.7136 218.548 76.9167 218.548 76.9167C218.548 76.9167 225.75 78.6943 225.75 78.174C225.737 77.809 225.614 77.4564 225.398 77.1624C225.181 76.8684 224.881 76.6467 224.536 76.5265C223.572 76.093 209.742 71.5985 207.194 70.7988C205.857 70.4372 204.575 69.9011 203.378 69.2043L199.563 76.5169Z" fill="#FFBF9D"/>
<path d="M152.86 68.4529C152.465 68.771 152.046 69.0592 151.608 69.3152C150.576 69.9607 149.596 70.6837 148.674 71.4781C147.763 72.2761 146.996 73.2244 146.405 74.2817C145.967 75.1006 145.822 75.6691 145.779 75.6546C145.78 75.5166 145.804 75.3798 145.851 75.25C145.951 74.8882 146.085 74.5366 146.251 74.1998C146.809 73.0989 147.577 72.1172 148.51 71.3095C149.439 70.5034 150.444 69.7902 151.511 69.1803C151.937 68.8965 152.389 68.6529 152.86 68.4529Z" fill="#FF9A6C"/>
<path d="M128.384 61.9448C128.422 61.9448 128.124 62.4795 127.719 63.3418C127.2 64.4658 126.791 65.637 126.496 66.8391C126.207 68.0433 126.036 69.2727 125.985 70.5099C125.946 71.4733 125.985 72.0514 125.937 72.0562C125.893 71.9222 125.869 71.7827 125.864 71.6419C125.836 71.377 125.811 70.9868 125.807 70.505C125.807 69.2506 125.955 68.0007 126.25 66.7813C126.544 65.5608 126.984 64.3801 127.56 63.2647C127.787 62.8408 127.984 62.5036 128.133 62.3013C128.2 62.1713 128.284 62.0512 128.384 61.9448Z" fill="#FF9A6C"/>
<path d="M217.3 79.4409C217.761 79.4806 218.217 79.5596 218.664 79.677L221.925 80.3514C223.201 80.6067 224.358 80.8331 225.201 80.9535C225.659 81.0064 226.113 81.0917 226.559 81.2088C226.097 81.2322 225.633 81.2048 225.176 81.1269C224.324 81.0354 223.153 80.8524 221.877 80.597C220.6 80.3417 219.468 80.0623 218.62 79.8456C218.168 79.7531 217.726 79.6176 217.3 79.4409Z" fill="#FF9A6C"/>
<path opacity="0.3" d="M222.498 84.6675L224.55 85.6309C224.81 85.8911 224.29 87.2784 221.251 87.1917C220.112 87.0827 218.984 86.8797 217.878 86.5847C216.043 86.063 214.241 85.4292 212.483 84.6867L222.498 84.6675Z" fill="white"/>
<path opacity="0.4" d="M205.542 84.7158C207.285 86.0983 209.044 87.9481 209.443 89.1717C210.046 90.9926 211.438 90.9059 211.606 89.5186C211.818 87.794 211.125 86.2573 210.161 84.552L205.542 84.7158Z" fill="white"/>
<path d="M176.253 93.2327C176.253 93.2327 186.523 89.7161 197.063 91.9947C203.326 93.3388 209.488 95.1191 215.503 97.3225C215.503 97.3225 212.859 102.342 210.204 112.405C209.153 116.418 208.684 120.562 208.812 124.708C208.812 124.708 205.305 137.094 205.72 143.924C193.469 140.596 182.284 137.041 173.261 131.958L169.219 129.993L174.446 101.152L176.253 93.2327Z" fill="#0460D5"/>
<path d="M178.767 92.5195C178.84 92.5195 177.284 101.191 175.294 111.851C173.305 122.512 171.638 131.154 171.57 131.12C171.503 131.086 173.059 122.449 175.049 111.788C177.038 101.128 178.7 92.5099 178.767 92.5195Z" fill="#263238"/>
<path d="M195.522 123.817C195.221 124.153 194.876 124.446 194.496 124.689C192.71 125.955 190.627 126.738 188.45 126.963C188.002 127.025 187.549 127.025 187.101 126.963C187.101 126.924 187.612 126.895 188.426 126.775C190.552 126.458 192.587 125.693 194.394 124.53C194.757 124.273 195.134 124.035 195.522 123.817Z" fill="#263238"/>
<path d="M208.885 124.578C208.615 124.603 208.345 124.603 208.075 124.578C207.555 124.578 206.804 124.52 205.874 124.453C204.014 124.309 201.452 124.019 198.648 123.49C195.844 122.96 193.349 122.362 191.552 121.847C190.656 121.587 189.939 121.365 189.442 121.197C189.183 121.123 188.93 121.028 188.686 120.912C188.952 120.956 189.214 121.019 189.471 121.1L191.6 121.673C193.397 122.155 195.897 122.738 198.691 123.244C201.485 123.75 204.034 124.063 205.884 124.251L208.075 124.458C208.348 124.479 208.618 124.519 208.885 124.578Z" fill="#263238"/>
<g opacity="0.4">
<path d="M169.027 88.4492C170.53 90.2749 174.119 92.303 176.229 93.2664V93.2183C176.229 93.2183 177.163 92.9003 178.753 92.5149C182.443 91.6238 189.674 90.3857 197.058 91.9802C203.322 93.3243 209.484 95.1046 215.499 97.3081C215.499 97.3081 215.378 97.5345 215.171 97.9777L215.258 97.7898C215.258 97.7898 256.031 115.286 260.757 116.933C265.482 118.581 276.716 119.13 281.201 120.604C281.557 120.72 281.943 120.86 282.347 121.009C284.857 120.24 287.322 119.333 289.732 118.292C293.446 115.801 292.203 113.884 293.027 111.225C293.446 109.867 294.034 108.638 295.224 107.901C296.11 107.352 297.69 107.492 298.658 107.872C299.66 108.236 300.628 108.689 301.549 109.226C303.213 110.308 305.081 111.038 307.038 111.369C308.995 111.701 311 111.627 312.927 111.153C315.947 110.478 318.847 108.927 321.935 109.081C322.64 109.07 323.33 109.288 323.901 109.703C324.185 109.924 324.387 110.234 324.474 110.583C324.562 110.932 324.529 111.301 324.382 111.63C323.963 112.376 322.937 112.425 322.138 112.593C320.639 112.901 319.633 114.318 318.168 115.315C316.892 116.182 313.65 118.099 312.31 118.856C308.775 120.85 304.458 123.037 300.494 125.046L296.337 127.165L295.99 127.343C299.521 129.131 302.613 130.773 304.179 131.597C309.208 133.89 309.647 131.462 312.368 130.48C313.679 129.998 314.984 129.757 316.265 130.296C317.229 130.701 318.062 132.084 318.351 133.11C318.671 134.158 318.903 135.231 319.045 136.318C319.368 140.397 321.288 144.183 324.387 146.853C326.724 148.939 329.686 150.404 331.406 153.043C331.836 153.62 332.078 154.314 332.1 155.033C332.105 155.389 331.988 155.735 331.769 156.016C331.55 156.296 331.242 156.493 330.895 156.574C330.062 156.676 329.421 155.876 328.795 155.303C327.658 154.253 325.953 154.272 324.305 153.66C322.169 152.875 320.078 151.971 318.043 150.953C312.648 147.889 306.173 144.512 300.754 142.123C300.754 142.123 287.969 140.196 280.223 138.336C279.139 138.076 277.771 137.811 276.21 137.546C266.865 142.431 258.03 147.181 256.435 148.438C252.847 151.3 247.066 150.721 247.066 150.721L205.638 143.924C193.416 140.596 182.25 137.045 173.242 131.973L171.561 131.154L169.2 130.007L169.46 128.562C162.042 126.154 147.605 121.336 144.136 119.602C139.415 117.194 120.821 106.653 112.665 101.851C111.895 101.398 111.124 100.887 110.368 100.372C107.718 100.372 103.725 100.372 98.6569 100.372C89.4704 100.372 79.1712 97.5779 75.4137 97.4815C71.6563 97.3852 69.7728 97.3659 63.3707 97.9391C56.9686 98.5124 32.8487 95.7136 32.8487 95.7136C31.4429 96.7845 30.1074 97.9446 28.8504 99.1868C27.6028 100.555 26.6971 100.483 24.3319 100.772C21.9666 101.061 19.0329 101.061 16.8266 101.706C14.6204 102.352 13.6328 102.14 13.074 101.2C12.5152 100.261 15.2321 99.2735 16.6195 99.0423C18.0069 98.8111 21.7643 97.5441 21.7643 97.5441H19.1196C19.1196 97.5441 9.60081 96.1953 7.16811 96.2483C4.73541 96.3013 4.52827 95.0247 4.52827 95.0247C1.88843 95.0247 1.88843 92.6498 1.88843 92.6498C1.88843 92.6498 16.6195 92.1681 18.8451 92.2163C21.0706 92.2644 26.2106 90.7711 27.7377 90.1304C29.2647 89.4897 32.8487 88.9695 32.8487 88.9695C32.8487 88.9695 45.8552 87.2642 51.3806 86.6909C56.906 86.1177 68.0386 84.5232 73.3471 85.4673C78.0295 86.3007 94.3165 85.9202 98.1029 85.819C99.3668 85.0318 100.757 84.468 102.212 84.1522C102.212 84.1522 108.58 85.2313 110.965 85.2168C113.349 85.2024 117.381 85.3373 120.33 84.4076C123.278 83.4778 132.459 81.1896 135.947 81.1174C139.435 81.0451 148.25 82.2494 149.435 82.2542C150.62 82.2591 164.21 83.3044 164.21 83.3044C164.21 83.3044 167.283 86.3393 169.027 88.4492Z" fill="white"/>
</g>
<path d="M155.654 72.3258C155.729 72.3691 155.794 72.4263 155.847 72.4944C155.999 72.688 156.09 72.923 156.107 73.1688C156.145 73.5622 156.043 73.9563 155.818 74.2816C155.515 74.698 155.117 75.0364 154.657 75.2691C153.497 75.8774 152.266 76.3386 150.991 76.642C149.435 77.0065 147.856 77.2672 146.266 77.4224L145.634 77.4899L145.182 77.5429L145.548 77.2683C146.844 76.3048 148.033 75.3173 149.185 74.5128C150.194 73.7915 151.275 73.178 152.412 72.6823C153.164 72.3037 153.982 72.0747 154.821 72.0079C155.052 72.006 155.279 72.0641 155.481 72.1765C155.55 72.2146 155.613 72.2653 155.664 72.3258C155.409 72.1734 155.118 72.095 154.821 72.0994C154.008 72.2104 153.221 72.4614 152.494 72.8412C151.378 73.3535 150.316 73.9764 149.324 74.7007C148.192 75.5052 147.007 76.4879 145.707 77.4658L145.62 77.2442L146.246 77.1719C147.826 77.0196 149.395 76.7686 150.943 76.4204C152.204 76.1291 153.427 75.6893 154.585 75.1101C155.025 74.898 155.41 74.5882 155.712 74.2045C155.928 73.9071 156.036 73.5455 156.02 73.1784C156.002 72.8602 155.872 72.5585 155.654 72.3258Z" fill="#263238"/>
<path d="M57.1178 73.4529C57.146 73.3004 57.2239 73.1616 57.3393 73.0579C57.4911 72.9101 57.6729 72.7966 57.8724 72.7251C58.0718 72.6536 58.2843 72.6259 58.4955 72.6437C58.813 72.6775 59.1137 72.8036 59.3603 73.0065C59.6069 73.2095 59.7885 73.4802 59.8828 73.7853C60.0081 74.1373 60.0397 74.5158 59.9744 74.8837C59.8995 75.2807 59.716 75.6492 59.4445 75.9483C59.1931 76.2436 58.8685 76.4675 58.5032 76.5977C58.138 76.728 57.7449 76.7598 57.3634 76.6901C57.0569 76.6118 56.7744 76.4592 56.5408 76.2458C56.3073 76.0324 56.1299 75.7648 56.0242 75.4665C55.8706 75.0737 55.857 74.6399 55.9857 74.2382C56.0297 74.0926 56.1092 73.9601 56.2169 73.8528C56.241 73.8528 56.1495 73.9973 56.0772 74.2671C55.9937 74.6466 56.0325 75.0429 56.188 75.3991C56.2947 75.6577 56.4613 75.8873 56.674 76.0691C56.8867 76.2508 57.1395 76.3794 57.4116 76.4444C57.752 76.4987 58.1006 76.4643 58.4238 76.3445C58.747 76.2246 59.0339 76.0235 59.2566 75.7604C59.4911 75.5053 59.6524 75.1916 59.7236 74.8525C59.7948 74.5134 59.7733 74.1614 59.6612 73.8335C59.5857 73.5639 59.4335 73.3221 59.2232 73.1374C59.0128 72.9526 58.7533 72.833 58.4762 72.793C58.2864 72.7692 58.0937 72.7843 57.9098 72.8373C57.726 72.8903 57.5548 72.9801 57.4068 73.1013C57.1996 73.3084 57.1418 73.4626 57.1178 73.4529Z" fill="#263238"/>
<path d="M329.32 84.552H328.462H325.943L316.26 84.576L280.652 84.6194H227.84H196.654H183.291C182.944 84.6194 182.597 84.5809 182.25 84.5616L180.164 84.4267L163.212 83.3091C157.49 82.9093 151.824 82.6347 146.265 81.994C143.491 81.6713 140.75 81.2473 138.004 81.1703C135.284 81.1178 132.569 81.4256 129.93 82.0855C127.3 82.6877 124.728 83.4584 122.141 84.0702C120.856 84.3914 119.557 84.6499 118.244 84.8458C116.938 85.0337 115.633 85.1589 114.332 85.2312C109.224 85.5141 104.108 84.8209 99.2589 83.1887C96.9033 82.389 94.6537 81.3678 92.298 80.8571C91.138 80.5801 89.9417 80.4858 88.7526 80.5777C87.5833 80.7293 86.4346 81.0104 85.3275 81.4159C84.2116 81.8268 83.0079 81.9397 81.835 81.7435C80.7116 81.4485 79.6349 80.9978 78.6364 80.4043C77.665 79.8392 76.6045 79.4434 75.5004 79.2337C74.4087 79.0701 73.2959 79.1125 72.2198 79.359C70.1266 79.9126 68.1232 80.7626 66.2706 81.8832C65.3613 82.4245 64.4184 82.9072 63.4477 83.3284C62.4842 83.7275 61.4839 84.0308 60.461 84.234C58.4759 84.5997 56.4563 84.7435 54.4395 84.6628C52.474 84.6338 50.5471 84.6628 48.6588 84.6628L13.0547 84.6339L3.37206 84.6049H0.857466H0C0 84.6049 0.289033 84.6049 0.857466 84.6049H3.37206H13.0547L48.6636 84.5809C50.5423 84.5809 52.4644 84.5809 54.4443 84.5809C56.4485 84.6559 58.4548 84.5105 60.4273 84.1473C61.4375 83.9457 62.4251 83.6439 63.3754 83.2465C64.3375 82.8234 65.2722 82.3407 66.1742 81.8013C68.0433 80.6689 70.0644 79.8092 72.1765 79.2482C73.2824 78.9941 74.4263 78.95 75.5485 79.1181C76.6748 79.3268 77.7568 79.7276 78.7472 80.3032C79.729 80.8877 80.7878 81.332 81.8928 81.6231C83.0354 81.8046 84.2055 81.6867 85.289 81.2811C86.4089 80.8657 87.5725 80.5796 88.7574 80.4284C89.9689 80.3311 91.1882 80.4254 92.3703 80.7078C94.7789 81.2281 97.0141 82.2493 99.3601 83.0442C104.176 84.6851 109.26 85.3962 114.342 85.1397C115.638 85.0674 116.938 84.9373 118.234 84.7495C119.53 84.5616 120.821 84.2918 122.088 83.9787C124.67 83.3669 127.237 82.5962 129.877 81.9892C132.538 81.3249 135.276 81.0155 138.018 81.0691C140.779 81.1414 143.529 81.5508 146.299 81.8928C151.844 82.5287 157.514 82.8033 163.232 83.2031L180.179 84.3207L182.265 84.4556C182.611 84.4556 182.958 84.5134 183.305 84.5134H227.845L280.656 84.5423L316.26 84.5809L325.943 84.6049H328.462L329.32 84.552Z" fill="#263238"/>
<path d="M186.109 86.0453C186.109 86.0453 185.974 86.0935 185.704 86.1657C185.434 86.238 185.039 86.3536 184.519 86.4837C183.474 86.7438 181.927 87.0955 179.938 87.4182C174.399 88.2994 168.762 88.3692 163.203 87.6254L163.28 87.4375C163.72 87.7809 164.03 88.2631 164.161 88.8056C164.28 89.3553 164.264 89.9256 164.113 90.4675C163.963 91.0201 163.686 91.5299 163.304 91.956C162.904 92.3809 162.42 92.7173 161.883 92.9436C160.775 93.3754 159.585 93.5532 158.4 93.4638C157.186 93.4003 155.98 93.2277 154.797 92.9484C152.313 92.3683 149.954 91.3469 147.831 89.9328C146.757 89.2439 145.576 88.5406 144.266 88.6273C143.624 88.642 143.011 88.9003 142.551 89.3499C142.14 89.8641 141.84 90.4579 141.67 91.0938C141.371 91.9586 140.899 92.7535 140.282 93.4301C139.668 94.0927 138.94 94.6407 138.134 95.0487C136.559 95.8429 134.803 96.2084 133.042 96.1085C131.354 95.99 129.706 95.5468 128.186 94.803C126.733 94.1077 125.349 93.2754 124.053 92.3173C123.417 91.8597 122.801 91.3876 122.198 90.9203C121.596 90.4531 121.009 89.9858 120.392 89.586C119.797 89.1806 119.137 88.8793 118.441 88.6948C117.766 88.5338 117.062 88.5471 116.394 88.7333C115.069 89.0994 113.985 89.9472 112.911 90.6602C112.384 91.0177 111.833 91.3396 111.263 91.6236C110.71 91.888 110.126 92.0837 109.524 92.2065C108.41 92.4194 107.266 92.4194 106.152 92.2065C105.152 92.024 104.18 91.7098 103.262 91.272C101.814 90.5543 100.468 89.6471 99.2588 88.5743C98.2569 87.7072 97.5295 86.9798 97.0333 86.4885L96.4745 85.9297L96.2866 85.7322C96.2866 85.7322 96.3589 85.79 96.4889 85.9104L97.067 86.4548C97.5728 86.9365 98.3147 87.6446 99.3263 88.4973C100.535 89.5522 101.878 90.443 103.32 91.1467C104.224 91.5694 105.18 91.8738 106.162 92.0524C107.262 92.2595 108.391 92.2595 109.491 92.0524C110.076 91.9288 110.643 91.7347 111.181 91.4743C111.744 91.1906 112.286 90.8687 112.805 90.5109C113.874 89.8124 114.958 88.9453 116.341 88.5551C117.042 88.3608 117.78 88.3442 118.489 88.5069C119.21 88.6976 119.894 89.0069 120.512 89.4222C121.139 89.8316 121.736 90.2989 122.338 90.7662C122.94 91.2334 123.552 91.7007 124.188 92.1535C125.475 93.0988 126.847 93.9214 128.287 94.6103C129.781 95.3371 131.4 95.772 133.056 95.8917C134.773 95.9819 136.483 95.6232 138.018 94.8512C138.81 94.4504 139.523 93.9103 140.123 93.2567C140.719 92.6044 141.175 91.8372 141.463 91.0022C141.644 90.334 141.962 89.7107 142.397 89.1717C142.901 88.6757 143.574 88.3898 144.281 88.372C144.963 88.3423 145.643 88.4743 146.265 88.7574C146.867 89.0305 147.446 89.3528 147.995 89.7208C150.09 91.125 152.42 92.1415 154.874 92.722C156.043 92.9991 157.234 93.1716 158.434 93.2374C159.58 93.3303 160.732 93.1657 161.806 92.7557C162.315 92.5433 162.775 92.2266 163.155 91.826C163.513 91.4259 163.774 90.9475 163.916 90.429C164.06 89.9225 164.079 89.3882 163.969 88.873C163.851 88.3786 163.569 87.9387 163.169 87.6254L162.851 87.3845L163.246 87.4375C168.785 88.1974 174.405 88.1568 179.933 87.317C181.922 87.0136 183.469 86.6812 184.519 86.4403L185.714 86.1561C185.969 86.079 186.109 86.0453 186.109 86.0453Z" fill="#263238"/>
<path d="M242.417 91.2959C242.361 91.3602 242.298 91.4184 242.229 91.4693C242.036 91.6212 241.826 91.7505 241.603 91.8547C240.768 92.2152 239.854 92.3546 238.949 92.2594C237.797 92.2016 236.492 91.7776 235.037 91.4982C234.282 91.3398 233.507 91.2975 232.739 91.373C231.919 91.503 231.12 91.7444 230.364 92.0908C229.594 92.4427 228.786 92.7045 227.956 92.8712C227.17 93.0063 226.367 93.0063 225.581 92.8712C224.873 92.7471 224.183 92.5401 223.524 92.2546C222.949 92.0152 222.391 91.7385 221.852 91.426C221.077 90.97 220.328 90.4714 219.608 89.9327C219.352 89.7496 219.155 89.6003 219.025 89.4943C218.895 89.3883 218.827 89.3353 218.832 89.3257C218.911 89.3606 218.985 89.4042 219.054 89.4557L219.665 89.8508C220.195 90.1976 220.956 90.7082 221.944 91.2478C222.481 91.5451 223.036 91.8089 223.606 92.0378C224.255 92.3059 224.932 92.4999 225.624 92.6158C226.383 92.746 227.159 92.746 227.917 92.6158C228.735 92.4528 229.53 92.1941 230.287 91.8451C231.065 91.4929 231.886 91.2482 232.73 91.1177C233.522 91.0432 234.322 91.0919 235.1 91.2622C236.579 91.5657 237.855 91.9992 238.982 92.0763C239.863 92.1845 240.756 92.0754 241.584 91.7584C241.87 91.6209 242.149 91.4665 242.417 91.2959Z" fill="#263238"/>
<path d="M243.959 88.319C243.959 88.319 244.016 88.2612 244.147 88.2612C244.237 88.2638 244.326 88.2843 244.409 88.3215C244.492 88.3587 244.566 88.4119 244.628 88.4779C244.728 88.5753 244.802 88.6955 244.845 88.8281C244.888 88.9607 244.898 89.1018 244.874 89.2391C244.828 89.4073 244.732 89.558 244.6 89.672C244.468 89.7861 244.305 89.8584 244.132 89.8797C243.964 89.9106 243.79 89.8961 243.629 89.8377C243.469 89.7793 243.326 89.6791 243.217 89.5474C243.051 89.3318 242.97 89.0625 242.99 88.7911C243.029 88.3334 243.275 88.1407 243.289 88.16C243.219 88.3636 243.179 88.5761 243.169 88.7911C243.172 89.0134 243.252 89.2279 243.395 89.398C243.481 89.494 243.591 89.5658 243.714 89.6063C243.836 89.6469 243.967 89.6548 244.094 89.6292C244.219 89.6175 244.338 89.5693 244.437 89.4906C244.535 89.4118 244.609 89.306 244.648 89.1861C244.669 89.0832 244.667 88.9768 244.641 88.8749C244.615 88.773 244.566 88.6784 244.498 88.5984C244.36 88.4407 244.167 88.3409 243.959 88.319Z" fill="#263238"/>
<path d="M195.917 137.517C195.869 137.569 195.815 137.616 195.758 137.657C195.647 137.744 195.488 137.883 195.276 138.047C194.613 138.51 193.896 138.892 193.142 139.184C191.943 139.645 190.669 139.882 189.384 139.882C187.674 139.9 185.988 139.48 184.485 138.664C183.638 138.158 182.82 137.607 182.033 137.011C181.194 136.371 180.27 135.851 179.288 135.465C178.215 135.119 177.075 135.035 175.964 135.219C174.783 135.433 173.634 135.794 172.543 136.294C171.407 136.775 170.265 137.344 169.065 137.854C167.849 138.408 166.567 138.803 165.25 139.03C163.871 139.2 162.473 139.133 161.117 138.832C159.731 138.526 158.367 138.124 157.037 137.628C155.683 137.146 154.358 136.665 153.024 136.289C151.715 135.893 150.355 135.694 148.987 135.696C148.328 135.705 147.671 135.791 147.031 135.952C146.397 136.086 145.783 136.305 145.206 136.602C144.045 137.166 142.995 137.883 141.92 138.529C140.883 139.187 139.744 139.668 138.548 139.95C137.416 140.167 136.256 140.198 135.114 140.041C133.089 139.7 131.095 139.191 129.155 138.519C127.56 137.981 125.902 137.657 124.222 137.556C122.953 137.47 121.68 137.634 120.474 138.037C119.716 138.3 119.017 138.71 118.417 139.242C118.012 139.618 117.829 139.844 117.815 139.834C117.988 139.61 118.178 139.399 118.383 139.203C118.976 138.649 119.676 138.221 120.44 137.946C121.656 137.523 122.942 137.345 124.227 137.421C125.921 137.508 127.597 137.822 129.208 138.355C131.141 139.009 133.124 139.507 135.138 139.844C136.26 139.991 137.399 139.956 138.51 139.738C139.674 139.454 140.784 138.98 141.795 138.336C142.86 137.705 143.91 136.983 145.09 136.409C145.683 136.105 146.313 135.88 146.964 135.74C147.621 135.574 148.295 135.485 148.973 135.475C150.359 135.476 151.738 135.686 153.063 136.096C154.416 136.477 155.746 136.963 157.095 137.44C158.414 137.932 159.766 138.331 161.141 138.635C162.469 138.929 163.837 138.998 165.188 138.837C166.485 138.612 167.749 138.226 168.95 137.686C170.14 137.204 171.281 136.616 172.428 136.13C173.537 135.625 174.706 135.263 175.906 135.051C177.053 134.862 178.228 134.955 179.331 135.321C180.332 135.712 181.271 136.246 182.12 136.905C182.893 137.497 183.697 138.047 184.529 138.553C186.003 139.368 187.661 139.794 189.346 139.791C190.616 139.803 191.878 139.582 193.07 139.141C193.822 138.86 194.539 138.495 195.208 138.052C195.435 137.898 195.599 137.768 195.719 137.686C195.78 137.624 195.846 137.567 195.917 137.517Z" fill="#263238"/>
<path d="M296.018 114.361C295.971 114.367 295.922 114.367 295.874 114.361L295.445 114.327L293.803 114.187C292.357 114.067 290.315 113.87 287.762 113.812C284.771 113.704 281.778 113.986 278.86 114.65C277.222 115.04 275.545 115.652 273.729 116.028C272.804 116.23 271.858 116.32 270.911 116.297C269.932 116.251 268.968 116.046 268.054 115.69C266.214 114.982 264.601 113.923 262.895 113.282C261.271 112.602 259.473 112.455 257.76 112.863C256.213 113.246 254.715 113.806 253.295 114.529C251.936 115.175 250.684 115.821 249.479 116.269C248.393 116.688 247.261 116.976 246.107 117.126C245.237 117.238 244.354 117.212 243.491 117.049C243.18 116.984 242.872 116.899 242.571 116.794C242.316 116.688 242.09 116.596 241.931 116.509L241.56 116.293C241.478 116.244 241.435 116.216 241.439 116.211C242.087 116.565 242.786 116.815 243.511 116.953C244.363 117.099 245.232 117.112 246.088 116.991C247.222 116.825 248.332 116.527 249.397 116.105C250.592 115.647 251.806 115.002 253.189 114.342C254.619 113.602 256.131 113.03 257.693 112.636C259.458 112.207 261.314 112.352 262.992 113.051C264.731 113.72 266.364 114.775 268.151 115.459C269.037 115.807 269.975 116.007 270.926 116.052C271.853 116.075 272.779 115.987 273.686 115.792C275.478 115.425 277.154 114.828 278.807 114.428C281.745 113.771 284.758 113.507 287.767 113.643C290.329 113.72 292.391 113.947 293.812 114.091L295.45 114.284L295.874 114.342L296.018 114.361Z" fill="#263238"/>
<path d="M101.326 164.426C101.278 164.434 101.229 164.434 101.181 164.426L100.752 164.397L99.1097 164.253C97.6645 164.137 95.622 163.94 93.0641 163.882C90.0747 163.773 87.0838 164.053 84.1667 164.715C82.5288 165.106 80.8572 165.717 79.0411 166.098C78.1153 166.296 77.1695 166.385 76.2231 166.363C75.2443 166.317 74.2795 166.112 73.3664 165.756C71.5214 165.048 69.9125 163.993 68.2072 163.347C67.3802 163.009 66.5061 162.799 65.6155 162.726C64.7608 162.671 63.9026 162.739 63.0672 162.928C61.5197 163.313 60.0214 163.874 58.6016 164.6C57.248 165.245 55.9955 165.886 54.7864 166.334C53.7017 166.758 52.5693 167.047 51.4143 167.196C50.5437 167.309 49.6605 167.282 48.7986 167.114C48.4866 167.052 48.1792 166.968 47.8785 166.864C47.6232 166.753 47.3968 166.666 47.2378 166.58L46.8669 166.363C46.785 166.31 46.7416 166.286 46.7465 166.281C47.3933 166.636 48.0925 166.887 48.8179 167.023C49.6703 167.165 50.5393 167.176 51.3951 167.057C52.5287 166.89 53.6392 166.592 54.7045 166.17C55.8944 165.717 57.1372 165.067 58.4957 164.412C59.9254 163.669 61.437 163.095 62.9998 162.702C64.766 162.278 66.6212 162.424 68.2987 163.121C70.0329 163.79 71.6467 164.845 73.4532 165.529C74.3408 165.879 75.2799 166.079 76.2327 166.122C77.1581 166.147 78.0831 166.061 78.9881 165.867C80.785 165.496 82.4614 164.903 84.1137 164.499C87.0512 163.844 90.0623 163.58 93.0689 163.713C95.6317 163.795 97.6934 164.017 99.1193 164.166L100.757 164.354L101.181 164.412L101.326 164.426Z" fill="#263238"/>
<path d="M260.703 164.633C260.653 164.626 260.603 164.615 260.554 164.6L260.183 164.426C260.024 164.344 259.817 164.258 259.576 164.161C259.335 164.065 259.056 163.945 258.733 163.834C256.922 163.183 255.007 162.868 253.082 162.904C251.757 162.923 250.439 163.112 249.161 163.468C247.779 163.824 246.415 164.542 244.826 164.995C244.017 165.243 243.167 165.329 242.326 165.245C241.456 165.111 240.621 164.806 239.869 164.349C239.093 163.911 238.371 163.386 237.605 162.904C236.852 162.397 236.02 162.019 235.143 161.786C234.257 161.613 233.341 161.68 232.489 161.979C231.658 162.281 230.865 162.68 230.128 163.169C228.654 164.099 227.286 165.158 225.725 165.703C224.245 166.191 222.655 166.236 221.149 165.833C219.738 165.52 218.476 165.062 217.295 164.725C214.964 164.036 212.921 164.046 211.645 164.513C210.978 164.742 210.366 165.108 209.848 165.587C209.848 165.587 209.877 165.549 209.939 165.481C210.002 165.414 210.098 165.313 210.238 165.197C210.649 164.863 211.113 164.6 211.611 164.421C212.902 163.916 214.983 163.882 217.344 164.556C218.524 164.879 219.786 165.327 221.197 165.631C222.665 166.015 224.213 165.965 225.653 165.486C227.166 164.951 228.519 163.906 229.989 162.962C230.742 162.462 231.55 162.052 232.397 161.738C233.292 161.426 234.253 161.36 235.182 161.546C236.086 161.782 236.945 162.17 237.72 162.692C238.496 163.174 239.219 163.699 239.975 164.137C240.699 164.578 241.503 164.873 242.34 165.004C243.15 165.088 243.969 165.01 244.749 164.773C246.285 164.34 247.668 163.622 249.084 163.265C252.275 162.41 255.653 162.578 258.743 163.747C259.422 163.981 260.079 164.278 260.703 164.633Z" fill="#263238"/>
<path d="M101.272 113.932C101.23 113.886 101.193 113.836 101.162 113.783L100.853 113.344C100.676 113.113 100.487 112.891 100.285 112.68C100.157 112.545 100.021 112.419 99.8755 112.304C99.7261 112.159 99.565 112.027 99.3937 111.909C98.5057 111.274 97.5003 110.822 96.436 110.579C95.0282 110.255 93.5797 110.145 92.139 110.252C90.391 110.389 88.6665 110.74 87.0038 111.297C85.1926 111.842 83.2801 112.526 81.1991 113.027C79.0245 113.63 76.741 113.728 74.5224 113.316C72.215 112.834 70.1195 111.543 67.7783 110.907C66.6241 110.573 65.4114 110.492 64.2232 110.671C63.0654 110.874 61.9343 111.207 60.8511 111.663C58.7171 112.511 56.6264 113.484 54.4442 113.59C52.4097 113.632 50.3829 113.326 48.4516 112.685C46.6307 112.15 44.9591 111.572 43.3935 111.239C41.9824 110.926 40.5335 110.819 39.0917 110.921C38.0036 110.997 36.9389 111.273 35.9509 111.736C35.3331 112.04 34.766 112.438 34.2697 112.916L33.9084 113.311C33.8689 113.359 33.8254 113.404 33.7783 113.446C33.8092 113.392 33.8464 113.341 33.8891 113.296C33.9662 113.2 34.077 113.06 34.236 112.882C34.7222 112.383 35.2868 111.966 35.9075 111.649C36.9021 111.164 37.9789 110.869 39.0821 110.782C40.5334 110.665 41.9939 110.761 43.4176 111.066C45.0073 111.398 46.6837 111.967 48.4998 112.511C50.4088 113.139 52.4111 113.435 54.4201 113.388C56.5445 113.272 58.6015 112.314 60.75 111.461C61.8471 110.998 62.9928 110.661 64.1654 110.454C65.3872 110.27 66.6346 110.352 67.8217 110.695C70.2303 111.36 72.3113 112.622 74.5658 113.104C76.7491 113.507 78.9953 113.411 81.1365 112.824C83.2031 112.342 85.1155 111.663 86.9171 111.119C88.5972 110.57 90.3377 110.227 92.1005 110.098C93.5561 110.002 95.0178 110.127 96.436 110.469C97.5118 110.727 98.5254 111.197 99.4178 111.851C99.5883 111.975 99.7494 112.112 99.8996 112.261C100.044 112.381 100.179 112.511 100.304 112.651C100.502 112.868 100.687 113.096 100.858 113.335L101.147 113.817C101.192 113.852 101.234 113.89 101.272 113.932Z" fill="#263238"/>
</svg>
