<svg width="342" height="217" viewBox="0 0 342 217" fill="none" xmlns="http://www.w3.org/2000/svg">
<g filter="url(#filter0_d_9_1098)">
<path d="M43 150C43 145.582 46.5817 142 51 142H95C99.4183 142 103 145.582 103 150V201C103 205.418 99.4183 209 95 209H51C46.5817 209 43 205.418 43 201V150Z" fill="white"/>
</g>
<g filter="url(#filter1_d_9_1098)">
<path d="M138 150C138 145.582 141.582 142 146 142H190C194.418 142 198 145.582 198 150V201C198 205.418 194.418 209 190 209H146C141.582 209 138 205.418 138 201V150Z" fill="white"/>
</g>
<g filter="url(#filter2_d_9_1098)">
<path d="M233 150C233 145.582 236.582 142 241 142H285C289.418 142 293 145.582 293 150V201C293 205.418 289.418 209 285 209H241C236.582 209 233 205.418 233 201V150Z" fill="white"/>
</g>
<rect width="342" height="136" rx="8" fill="url(#paint0_linear_9_1098)"/>
<path d="M52.6226 29H51.5306L47.1386 22.34V29H46.0466V20.624H47.1386L51.5306 27.272V20.624H52.6226V29ZM57.3641 29.108C56.7481 29.108 56.1881 28.968 55.6841 28.688C55.1881 28.408 54.7961 28.012 54.5081 27.5C54.2281 26.98 54.0881 26.38 54.0881 25.7C54.0881 25.028 54.2321 24.436 54.5201 23.924C54.8161 23.404 55.2161 23.008 55.7201 22.736C56.2241 22.456 56.7881 22.316 57.4121 22.316C58.0361 22.316 58.6001 22.456 59.1041 22.736C59.6081 23.008 60.0041 23.4 60.2921 23.912C60.5881 24.424 60.7361 25.02 60.7361 25.7C60.7361 26.38 60.5841 26.98 60.2801 27.5C59.9841 28.012 59.5801 28.408 59.0681 28.688C58.5561 28.968 57.9881 29.108 57.3641 29.108ZM57.3641 28.148C57.7561 28.148 58.1241 28.056 58.4681 27.872C58.8121 27.688 59.0881 27.412 59.2961 27.044C59.5121 26.676 59.6201 26.228 59.6201 25.7C59.6201 25.172 59.5161 24.724 59.3081 24.356C59.1001 23.988 58.8281 23.716 58.4921 23.54C58.1561 23.356 57.7921 23.264 57.4001 23.264C57.0001 23.264 56.6321 23.356 56.2961 23.54C55.9681 23.716 55.7041 23.988 55.5041 24.356C55.3041 24.724 55.2041 25.172 55.2041 25.7C55.2041 26.236 55.3001 26.688 55.4921 27.056C55.6921 27.424 55.9561 27.7 56.2841 27.884C56.6121 28.06 56.9721 28.148 57.3641 28.148ZM63.2759 23.492C63.4679 23.116 63.7399 22.824 64.0919 22.616C64.4519 22.408 64.8879 22.304 65.3999 22.304V23.432H65.1119C63.8879 23.432 63.2759 24.096 63.2759 25.424V29H62.1839V22.424H63.2759V23.492ZM68.0045 23.324V27.2C68.0045 27.52 68.0725 27.748 68.2085 27.884C68.3445 28.012 68.5805 28.076 68.9165 28.076H69.7205V29H68.7365C68.1285 29 67.6725 28.86 67.3685 28.58C67.0645 28.3 66.9125 27.84 66.9125 27.2V23.324H66.0605V22.424H66.9125V20.768H68.0045V22.424H69.7205V23.324H68.0045ZM74.3195 22.304C74.8155 22.304 75.2635 22.412 75.6635 22.628C76.0635 22.836 76.3755 23.152 76.5995 23.576C76.8315 24 76.9475 24.516 76.9475 25.124V29H75.8675V25.28C75.8675 24.624 75.7035 24.124 75.3755 23.78C75.0475 23.428 74.5995 23.252 74.0315 23.252C73.4555 23.252 72.9955 23.432 72.6515 23.792C72.3155 24.152 72.1475 24.676 72.1475 25.364V29H71.0555V20.12H72.1475V23.36C72.3635 23.024 72.6595 22.764 73.0355 22.58C73.4195 22.396 73.8475 22.304 74.3195 22.304ZM81.5465 25.7C81.5465 25.02 81.6825 24.428 81.9545 23.924C82.2265 23.412 82.6025 23.016 83.0825 22.736C83.5705 22.456 84.1265 22.316 84.7505 22.316C85.5585 22.316 86.2225 22.512 86.7425 22.904C87.2705 23.296 87.6185 23.84 87.7865 24.536H86.6105C86.4985 24.136 86.2785 23.82 85.9505 23.588C85.6305 23.356 85.2305 23.24 84.7505 23.24C84.1265 23.24 83.6225 23.456 83.2385 23.888C82.8545 24.312 82.6625 24.916 82.6625 25.7C82.6625 26.492 82.8545 27.104 83.2385 27.536C83.6225 27.968 84.1265 28.184 84.7505 28.184C85.2305 28.184 85.6305 28.072 85.9505 27.848C86.2705 27.624 86.4905 27.304 86.6105 26.888H87.7865C87.6105 27.56 87.2585 28.1 86.7305 28.508C86.2025 28.908 85.5425 29.108 84.7505 29.108C84.1265 29.108 83.5705 28.968 83.0825 28.688C82.6025 28.408 82.2265 28.012 81.9545 27.5C81.6825 26.988 81.5465 26.388 81.5465 25.7ZM92.1236 29.108C91.5076 29.108 90.9476 28.968 90.4436 28.688C89.9476 28.408 89.5556 28.012 89.2676 27.5C88.9876 26.98 88.8476 26.38 88.8476 25.7C88.8476 25.028 88.9916 24.436 89.2796 23.924C89.5756 23.404 89.9756 23.008 90.4796 22.736C90.9836 22.456 91.5476 22.316 92.1716 22.316C92.7956 22.316 93.3596 22.456 93.8636 22.736C94.3676 23.008 94.7636 23.4 95.0516 23.912C95.3476 24.424 95.4956 25.02 95.4956 25.7C95.4956 26.38 95.3436 26.98 95.0396 27.5C94.7436 28.012 94.3396 28.408 93.8276 28.688C93.3156 28.968 92.7476 29.108 92.1236 29.108ZM92.1236 28.148C92.5156 28.148 92.8836 28.056 93.2276 27.872C93.5716 27.688 93.8476 27.412 94.0556 27.044C94.2716 26.676 94.3796 26.228 94.3796 25.7C94.3796 25.172 94.2756 24.724 94.0676 24.356C93.8596 23.988 93.5876 23.716 93.2516 23.54C92.9156 23.356 92.5516 23.264 92.1596 23.264C91.7596 23.264 91.3916 23.356 91.0556 23.54C90.7276 23.716 90.4636 23.988 90.2636 24.356C90.0636 24.724 89.9636 25.172 89.9636 25.7C89.9636 26.236 90.0596 26.688 90.2516 27.056C90.4516 27.424 90.7156 27.7 91.0436 27.884C91.3716 28.06 91.7316 28.148 92.1236 28.148ZM96.5354 25.688C96.5354 25.016 96.6714 24.428 96.9434 23.924C97.2154 23.412 97.5874 23.016 98.0594 22.736C98.5394 22.456 99.0714 22.316 99.6554 22.316C100.231 22.316 100.731 22.44 101.155 22.688C101.579 22.936 101.895 23.248 102.103 23.624V22.424H103.207V29H102.103V27.776C101.887 28.16 101.563 28.48 101.131 28.736C100.707 28.984 100.211 29.108 99.6434 29.108C99.0594 29.108 98.5314 28.964 98.0594 28.676C97.5874 28.388 97.2154 27.984 96.9434 27.464C96.6714 26.944 96.5354 26.352 96.5354 25.688ZM102.103 25.7C102.103 25.204 102.003 24.772 101.803 24.404C101.603 24.036 101.331 23.756 100.987 23.564C100.651 23.364 100.279 23.264 99.8714 23.264C99.4634 23.264 99.0914 23.36 98.7554 23.552C98.4194 23.744 98.1514 24.024 97.9514 24.392C97.7514 24.76 97.6514 25.192 97.6514 25.688C97.6514 26.192 97.7514 26.632 97.9514 27.008C98.1514 27.376 98.4194 27.66 98.7554 27.86C99.0914 28.052 99.4634 28.148 99.8714 28.148C100.279 28.148 100.651 28.052 100.987 27.86C101.331 27.66 101.603 27.376 101.803 27.008C102.003 26.632 102.103 26.196 102.103 25.7ZM107.393 29.108C106.889 29.108 106.437 29.024 106.037 28.856C105.637 28.68 105.321 28.44 105.089 28.136C104.857 27.824 104.729 27.468 104.705 27.068H105.833C105.865 27.396 106.017 27.664 106.289 27.872C106.569 28.08 106.933 28.184 107.381 28.184C107.797 28.184 108.125 28.092 108.365 27.908C108.605 27.724 108.725 27.492 108.725 27.212C108.725 26.924 108.597 26.712 108.341 26.576C108.085 26.432 107.689 26.292 107.153 26.156C106.665 26.028 106.265 25.9 105.953 25.772C105.649 25.636 105.385 25.44 105.161 25.184C104.945 24.92 104.837 24.576 104.837 24.152C104.837 23.816 104.937 23.508 105.137 23.228C105.337 22.948 105.621 22.728 105.989 22.568C106.357 22.4 106.777 22.316 107.249 22.316C107.977 22.316 108.565 22.5 109.013 22.868C109.461 23.236 109.701 23.74 109.733 24.38H108.641C108.617 24.036 108.477 23.76 108.221 23.552C107.973 23.344 107.637 23.24 107.213 23.24C106.821 23.24 106.509 23.324 106.277 23.492C106.045 23.66 105.929 23.88 105.929 24.152C105.929 24.368 105.997 24.548 106.133 24.692C106.277 24.828 106.453 24.94 106.661 25.028C106.877 25.108 107.173 25.2 107.549 25.304C108.021 25.432 108.405 25.56 108.701 25.688C108.997 25.808 109.249 25.992 109.457 26.24C109.673 26.488 109.785 26.812 109.793 27.212C109.793 27.572 109.693 27.896 109.493 28.184C109.293 28.472 109.009 28.7 108.641 28.868C108.281 29.028 107.865 29.108 107.393 29.108ZM112.678 23.324V27.2C112.678 27.52 112.746 27.748 112.882 27.884C113.018 28.012 113.254 28.076 113.59 28.076H114.394V29H113.41C112.802 29 112.346 28.86 112.042 28.58C111.738 28.3 111.586 27.84 111.586 27.2V23.324H110.734V22.424H111.586V20.768H112.678V22.424H114.394V23.324H112.678ZM120.069 27.488L118.725 30.716H117.993L118.869 27.488H120.069ZM129.487 27.14H125.839L125.167 29H124.015L127.039 20.684H128.299L131.311 29H130.159L129.487 27.14ZM129.175 26.252L127.663 22.028L126.151 26.252H129.175ZM133.733 20.12V29H132.641V20.12H133.733ZM141.606 25.46C141.606 25.668 141.594 25.888 141.57 26.12H136.314C136.354 26.768 136.574 27.276 136.974 27.644C137.382 28.004 137.874 28.184 138.45 28.184C138.922 28.184 139.314 28.076 139.626 27.86C139.946 27.636 140.17 27.34 140.298 26.972H141.474C141.298 27.604 140.946 28.12 140.418 28.52C139.89 28.912 139.234 29.108 138.45 29.108C137.826 29.108 137.266 28.968 136.77 28.688C136.282 28.408 135.898 28.012 135.618 27.5C135.338 26.98 135.198 26.38 135.198 25.7C135.198 25.02 135.334 24.424 135.606 23.912C135.878 23.4 136.258 23.008 136.746 22.736C137.242 22.456 137.81 22.316 138.45 22.316C139.074 22.316 139.626 22.452 140.106 22.724C140.586 22.996 140.954 23.372 141.21 23.852C141.474 24.324 141.606 24.86 141.606 25.46ZM140.478 25.232C140.478 24.816 140.386 24.46 140.202 24.164C140.018 23.86 139.766 23.632 139.446 23.48C139.134 23.32 138.786 23.24 138.402 23.24C137.85 23.24 137.378 23.416 136.986 23.768C136.602 24.12 136.382 24.608 136.326 25.232H140.478ZM146.491 29L144.931 26.552L143.431 29H142.291L144.415 25.736L142.291 22.424H143.527L145.087 24.86L146.575 22.424H147.715L145.603 25.676L147.727 29H146.491Z" fill="white"/>
<path fill-rule="evenodd" clip-rule="evenodd" d="M31.9999 32.657L32.6009 31.9799C33.2828 31.199 33.8961 30.458 34.4418 29.7532L34.8923 29.159C36.7733 26.6247 37.7142 24.6132 37.7142 23.1266C37.7142 19.9532 35.1561 17.3809 31.9999 17.3809C28.8437 17.3809 26.2856 19.9532 26.2856 23.1266C26.2856 24.6132 27.2266 26.6247 29.1075 29.159L29.558 29.7532C30.3365 30.7508 31.151 31.7187 31.9999 32.657Z" stroke="white" stroke-linecap="round" stroke-linejoin="round"/>
<path d="M32.0001 25.476C33.3151 25.476 34.381 24.41 34.381 23.0951C34.381 21.7801 33.3151 20.7141 32.0001 20.7141C30.6851 20.7141 29.6191 21.7801 29.6191 23.0951C29.6191 24.41 30.6851 25.476 32.0001 25.476Z" stroke="white" stroke-linecap="round" stroke-linejoin="round"/>
<path d="M41.3518 100.788C45.0772 97.796 47.9958 95.3467 50.1078 93.44C52.2198 91.504 53.9945 89.4947 55.4318 87.412C56.8985 85.3 57.6318 83.232 57.6318 81.208C57.6318 79.3013 57.1625 77.8053 56.2238 76.72C55.3145 75.6053 53.8332 75.048 51.7798 75.048C49.7852 75.048 48.2305 75.6787 47.1158 76.94C46.0305 78.172 45.4438 79.8293 45.3558 81.912H41.4838C41.6012 78.6267 42.5985 76.0893 44.4758 74.3C46.3532 72.5107 48.7732 71.616 51.7358 71.616C54.7572 71.616 57.1478 72.452 58.9078 74.124C60.6972 75.796 61.5918 78.0987 61.5918 81.032C61.5918 83.4667 60.8585 85.8427 59.3918 88.16C57.9545 90.448 56.3118 92.472 54.4638 94.232C52.6158 95.9627 50.2545 97.9867 47.3798 100.304H62.5158V103.648H41.3518V100.788ZM66.7044 100.788C70.4298 97.796 73.3484 95.3467 75.4604 93.44C77.5724 91.504 79.3471 89.4947 80.7844 87.412C82.2511 85.3 82.9844 83.232 82.9844 81.208C82.9844 79.3013 82.5151 77.8053 81.5764 76.72C80.6671 75.6053 79.1858 75.048 77.1324 75.048C75.1378 75.048 73.5831 75.6787 72.4684 76.94C71.3831 78.172 70.7964 79.8293 70.7084 81.912H66.8364C66.9538 78.6267 67.9511 76.0893 69.8284 74.3C71.7058 72.5107 74.1258 71.616 77.0884 71.616C80.1098 71.616 82.5004 72.452 84.2604 74.124C86.0498 75.796 86.9444 78.0987 86.9444 81.032C86.9444 83.4667 86.2111 85.8427 84.7444 88.16C83.3071 90.448 81.6644 92.472 79.8164 94.232C77.9684 95.9627 75.6071 97.9867 72.7324 100.304H87.8684V103.648H66.7044V100.788ZM91.045 80.944C91.045 78.6267 91.7637 76.764 93.201 75.356C94.6677 73.948 96.545 73.244 98.833 73.244C101.121 73.244 102.984 73.948 104.421 75.356C105.858 76.764 106.577 78.6267 106.577 80.944C106.577 82.4987 106.24 83.8627 105.565 85.036C104.89 86.2093 103.952 87.1187 102.749 87.764C101.576 88.4093 100.241 88.732 98.745 88.732C96.457 88.732 94.5943 88.028 93.157 86.62C91.749 85.1827 91.045 83.2907 91.045 80.944ZM103.365 80.944C103.365 79.272 102.925 77.9667 102.045 77.028C101.194 76.06 100.109 75.576 98.789 75.576C97.4983 75.576 96.413 76.06 95.533 77.028C94.6823 77.9667 94.257 79.272 94.257 80.944C94.257 82.6747 94.6677 84.0093 95.489 84.948C96.3397 85.8573 97.425 86.312 98.745 86.312C100.065 86.312 101.165 85.8427 102.045 84.904C102.925 83.9653 103.365 82.6453 103.365 80.944ZM109.796 88.644C109.796 85.652 110.471 82.968 111.82 80.592C113.169 78.1867 115.003 76.3093 117.32 74.96C119.667 73.6107 122.263 72.936 125.108 72.936C128.452 72.936 131.371 73.7427 133.864 75.356C136.357 76.9693 138.176 79.2573 139.32 82.22H134.524C133.673 80.372 132.441 78.9493 130.828 77.952C129.244 76.9547 127.337 76.456 125.108 76.456C122.967 76.456 121.045 76.9547 119.344 77.952C117.643 78.9493 116.308 80.372 115.34 82.22C114.372 84.0387 113.888 86.18 113.888 88.644C113.888 91.0787 114.372 93.22 115.34 95.068C116.308 96.8867 117.643 98.2947 119.344 99.292C121.045 100.289 122.967 100.788 125.108 100.788C127.337 100.788 129.244 100.304 130.828 99.336C132.441 98.3387 133.673 96.916 134.524 95.068H139.32C138.176 98.0013 136.357 100.275 133.864 101.888C131.371 103.472 128.452 104.264 125.108 104.264C122.263 104.264 119.667 103.604 117.32 102.284C115.003 100.935 113.169 99.072 111.82 96.696C110.471 94.32 109.796 91.636 109.796 88.644Z" fill="white"/>
<path d="M262.447 12.2572C262.75 12.226 262.901 12.3472 262.901 12.6208C262.905 13.8667 262.911 15.0396 262.92 16.1395L262.927 20.5917L262.93 24.7419L262.988 26.6469C262.916 26.8141 262.779 26.8999 262.576 26.9041C260.505 26.941 258.6 26.907 256.86 26.8021L256.879 24.3315L256.808 20.8723L256.879 15.7568C256.822 14.7547 256.837 13.6839 256.923 12.5443C256.932 12.4224 256.971 12.3444 257.041 12.3104C257.129 12.2664 257.252 12.2601 257.411 12.2912L262.447 12.2572Z" fill="#FEDC54"/>
<path d="M238.075 33.577L238.147 33.676C238.28 33.8685 238.301 34.0005 238.21 34.072L234.976 37.1305C234.939 37.1649 234.89 37.1844 234.838 37.1848C234.787 37.1852 234.737 37.1665 234.7 37.1326L233.741 36.2623L226.471 29.3594L225.555 28.4912L224.479 27.5156C224.441 27.4823 224.412 27.4421 224.391 27.3976C224.371 27.3531 224.36 27.3052 224.36 27.2567C224.359 27.2081 224.369 27.16 224.389 27.1152C224.409 27.0704 224.438 27.0299 224.474 26.9959L227.593 24.0632C227.646 24.0133 227.718 23.9854 227.793 23.9854C227.868 23.9854 227.94 24.0133 227.993 24.0632L238.075 33.577Z" fill="#FEDC54"/>
<path d="M293.5 25.2875L295.399 27.1336C295.438 27.2132 295.444 27.2936 295.418 27.3746L293.45 29.2722L291.187 31.4191L288.996 33.5247L286.863 35.5439L285.236 37.0932C285.206 37.1223 285.17 37.1453 285.13 37.161C285.09 37.1767 285.048 37.1848 285.005 37.1848C284.962 37.1848 284.919 37.1767 284.879 37.161C284.84 37.1453 284.803 37.1223 284.773 37.0932L282.497 34.9154C282.013 34.5844 281.69 34.2019 281.528 33.7678L282.64 32.8077L285.989 29.6142L286.951 28.687L290.214 25.5801L291.46 24.3954L291.752 24.109C291.916 23.9455 292.083 23.9442 292.254 24.1049L293.5 25.2875Z" fill="#FEDC54"/>
<path d="M262.341 32.9285C263.891 33.0849 265.437 33.3887 266.979 33.84C267.78 34.0411 268.355 34.2079 268.702 34.3405C274.106 36.4123 278.382 39.815 281.528 44.5485C280.223 45.1249 278.841 45.6611 277.714 46.2666C274.536 47.9705 271.835 50.1958 269.612 52.9424C269.574 52.9888 269.523 53.0231 269.464 53.0407C269.405 53.0583 269.341 53.0583 269.282 53.0407C255.572 48.9141 241.589 57.1091 239.142 70.5992C239.103 70.8122 238.971 70.9179 238.745 70.9164L237.921 70.9097L236.913 69.6474C236.068 68.1669 235.392 66.6417 234.883 65.0718L234.397 63.5436L233.885 61.1932C233.652 59.3716 233.58 57.664 233.667 56.0702L234.219 52.0286C236.111 43.8939 242.29 37.3991 250.324 34.3248C250.806 34.1401 251.734 33.8735 253.11 33.525C254.714 33.1571 256.233 32.9344 257.668 32.857C259.199 32.7408 260.757 32.7646 262.341 32.9285Z" fill="#FEDC54"/>
<path d="M289.396 43.2346L293.307 43.497C296.891 43.9802 300.278 45.0771 303.469 46.7876L304.962 47.6747C305.385 47.9904 305.782 48.2661 306.152 48.5018C306.997 49.0465 307.573 49.5846 308.237 50.2249L310.101 52.0637C311.266 53.2435 312.179 54.4271 312.841 55.6144L313.636 56.8884C314.052 57.6977 314.521 58.4937 314.823 59.3319C315.012 59.8551 315.192 60.3762 315.364 60.895C315.945 62.6233 316.32 64.3805 316.49 66.1666L316.649 71.5383C316.651 71.5909 316.67 71.6418 316.704 71.6837C316.738 71.7256 316.786 71.7564 316.84 71.7717C318.069 72.1275 319.254 72.5788 320.393 73.1258C321.523 73.6698 322.591 74.3183 323.597 75.0712C326.46 77.2146 328.562 79.8752 329.903 83.0532C331.11 85.9125 331.357 88.8496 331.229 91.9667C331.224 92.0646 331.211 92.1431 331.188 92.2024C331.169 92.2554 331.152 92.3033 331.14 92.3398C331.128 92.3763 331.121 92.3997 331.119 92.407L330.719 94.5659C314.47 78.4849 298.207 62.3935 281.932 46.2918C281.411 45.7759 280.858 45.2838 280.272 44.8154C283.226 43.7882 286.267 43.2613 289.396 43.2346Z" fill="#FAFAFA"/>
<path d="M281.093 44.5178C281.062 44.5371 281.031 44.5564 281.001 44.5757C281.581 45.0445 282.129 45.5371 282.645 46.0535C298.766 62.171 314.874 78.2782 330.97 94.375C328.86 102.142 321.76 108.287 313.138 108.799C309.843 108.993 307.643 109.074 306.536 109.041C304.292 108.973 302.877 108.942 302.292 108.948C299.304 108.975 296.965 108.984 295.275 108.977C292.109 108.959 289.041 109.057 285.924 109.001C282.76 108.946 279.627 109.057 276.474 109.001C274.912 108.975 273.34 108.975 271.759 109.001C268.639 109.057 265.524 108.946 262.407 109.001C259.356 109.055 256.284 108.932 253.271 108.997C251.682 109.033 250.319 109.04 249.183 109.019C243.623 108.919 239.176 109.222 233.505 108.674C231.861 108.406 230.26 107.958 228.703 107.33C223.38 105.002 219.724 101.256 217.734 96.0909C217.242 94.6487 216.921 93.2815 216.772 91.9892C216.623 90.6242 216.596 89.3319 216.692 88.1123C216.695 88.0618 216.715 88.018 216.751 87.9809C216.776 87.9557 216.79 87.9216 216.793 87.8786C217.048 84.9787 217.982 82.6885 219.444 79.9756C219.497 79.8777 219.549 79.8035 219.599 79.753C219.7 79.6551 219.752 79.6024 219.757 79.595C221.65 76.8531 224.113 74.6795 227.146 73.0741C229.438 72.037 231.126 71.3982 233.498 71.0355L237.132 70.7773L237.962 70.784C238.19 70.7855 238.323 70.6801 238.363 70.4679C240.829 57.03 254.926 48.8666 268.748 52.9772C268.807 52.9947 268.871 52.9948 268.93 52.9773C268.99 52.9598 269.042 52.9256 269.08 52.8793C271.322 50.1433 274.044 47.9267 277.247 46.2293C278.384 45.6262 279.777 45.092 281.093 44.5178Z" fill="#FAFAFA"/>
<path d="M215.4 54.8435L220.006 54.8237L224.55 54.8385L227.116 54.878C227.187 54.8786 227.254 54.9103 227.304 54.9661C227.354 55.022 227.383 55.0975 227.383 55.1765C227.4 56.7076 227.422 58.2223 227.45 59.7206C227.454 60.0051 227.437 60.2559 227.397 60.473C227.374 60.593 227.308 60.6522 227.199 60.6506L212.229 60.5938C212.173 60.5938 212.119 60.5694 212.08 60.5259C212.04 60.4824 212.018 60.4235 212.018 60.3619L212 56.1978L212.049 55.1888C212.054 55.0782 212.098 54.9742 212.172 54.8987C212.245 54.8232 212.342 54.7822 212.443 54.7843L215.4 54.8435Z" fill="#FEDC54"/>
<path d="M60.4316 180.56H56.9216V182.84C57.0749 182.627 57.3016 182.453 57.6016 182.32C57.9016 182.18 58.2249 182.11 58.5716 182.11C59.1249 182.11 59.5749 182.227 59.9216 182.46C60.2682 182.687 60.5149 182.983 60.6616 183.35C60.8149 183.71 60.8916 184.093 60.8916 184.5C60.8916 184.98 60.8016 185.41 60.6216 185.79C60.4416 186.17 60.1649 186.47 59.7916 186.69C59.4249 186.91 58.9682 187.02 58.4216 187.02C57.7216 187.02 57.1549 186.84 56.7216 186.48C56.2882 186.12 56.0249 185.64 55.9316 185.04H56.8216C56.9082 185.42 57.0916 185.717 57.3716 185.93C57.6516 186.143 58.0049 186.25 58.4316 186.25C58.9582 186.25 59.3549 186.093 59.6216 185.78C59.8882 185.46 60.0216 185.04 60.0216 184.52C60.0216 184 59.8882 183.6 59.6216 183.32C59.3549 183.033 58.9616 182.89 58.4416 182.89C58.0882 182.89 57.7782 182.977 57.5116 183.15C57.2516 183.317 57.0616 183.547 56.9416 183.84H56.0816V179.76H60.4316V180.56ZM67.9969 187L65.8469 184.58V187H64.9369V179.6H65.8469V183.95L67.9569 181.52H69.2269L66.6469 184.25L69.2369 187H67.9969ZM76.6834 181.42C77.11 181.42 77.49 181.51 77.8234 181.69C78.1567 181.863 78.42 182.127 78.6134 182.48C78.8067 182.833 78.9034 183.263 78.9034 183.77V187H78.0034V183.9C78.0034 183.353 77.8667 182.937 77.5934 182.65C77.3267 182.357 76.9634 182.21 76.5034 182.21C76.03 182.21 75.6534 182.363 75.3734 182.67C75.0934 182.97 74.9534 183.407 74.9534 183.98V187H74.0534V183.9C74.0534 183.353 73.9167 182.937 73.6434 182.65C73.3767 182.357 73.0134 182.21 72.5534 182.21C72.08 182.21 71.7034 182.363 71.4234 182.67C71.1434 182.97 71.0034 183.407 71.0034 183.98V187H70.0934V181.52H71.0034V182.31C71.1834 182.023 71.4234 181.803 71.7234 181.65C72.03 181.497 72.3667 181.42 72.7334 181.42C73.1934 181.42 73.6 181.523 73.9534 181.73C74.3067 181.937 74.57 182.24 74.7434 182.64C74.8967 182.253 75.15 181.953 75.5034 181.74C75.8567 181.527 76.25 181.42 76.6834 181.42ZM83.8061 177.58L81.0661 188.7H80.1661L82.8961 177.58H83.8061ZM87.892 181.42C88.3053 181.42 88.6786 181.51 89.012 181.69C89.3453 181.863 89.6053 182.127 89.792 182.48C89.9853 182.833 90.082 183.263 90.082 183.77V187H89.182V183.9C89.182 183.353 89.0453 182.937 88.772 182.65C88.4986 182.357 88.1253 182.21 87.652 182.21C87.172 182.21 86.7886 182.36 86.502 182.66C86.222 182.96 86.082 183.397 86.082 183.97V187H85.172V179.6H86.082V182.3C86.262 182.02 86.5086 181.803 86.822 181.65C87.142 181.497 87.4986 181.42 87.892 181.42Z" fill="#0460D5"/>
<path d="M69.9636 194.424L68.3476 200H67.5316L66.2356 195.512L64.8916 200L64.0836 200.008L62.5236 194.424H63.2996L64.5156 199.152L65.8596 194.424H66.6756L67.9556 199.136L69.1796 194.424H69.9636ZM71.1443 194.904C71.0056 194.904 70.8883 194.856 70.7923 194.76C70.6963 194.664 70.6483 194.547 70.6483 194.408C70.6483 194.269 70.6963 194.152 70.7923 194.056C70.8883 193.96 71.0056 193.912 71.1443 193.912C71.2776 193.912 71.3896 193.96 71.4803 194.056C71.5763 194.152 71.6243 194.269 71.6243 194.408C71.6243 194.547 71.5763 194.664 71.4803 194.76C71.3896 194.856 71.2776 194.904 71.1443 194.904ZM71.4963 195.616V200H70.7683V195.616H71.4963ZM74.881 195.536C75.4143 195.536 75.8463 195.699 76.177 196.024C76.5077 196.344 76.673 196.808 76.673 197.416V200H75.953V197.52C75.953 197.083 75.8437 196.749 75.625 196.52C75.4063 196.285 75.1077 196.168 74.729 196.168C74.345 196.168 74.0383 196.288 73.809 196.528C73.585 196.768 73.473 197.117 73.473 197.576V200H72.745V195.616H73.473V196.24C73.617 196.016 73.8117 195.843 74.057 195.72C74.3077 195.597 74.5823 195.536 74.881 195.536ZM77.5982 197.792C77.5982 197.344 77.6889 196.952 77.8702 196.616C78.0515 196.275 78.2995 196.011 78.6142 195.824C78.9342 195.637 79.2915 195.544 79.6862 195.544C80.0275 195.544 80.3449 195.624 80.6382 195.784C80.9315 195.939 81.1555 196.144 81.3102 196.4V194.08H82.0462V200H81.3102V199.176C81.1662 199.437 80.9529 199.653 80.6702 199.824C80.3875 199.989 80.0569 200.072 79.6782 200.072C79.2889 200.072 78.9342 199.976 78.6142 199.784C78.2995 199.592 78.0515 199.323 77.8702 198.976C77.6889 198.629 77.5982 198.235 77.5982 197.792ZM81.3102 197.8C81.3102 197.469 81.2435 197.181 81.1102 196.936C80.9769 196.691 80.7955 196.504 80.5662 196.376C80.3422 196.243 80.0942 196.176 79.8222 196.176C79.5502 196.176 79.3022 196.24 79.0782 196.368C78.8542 196.496 78.6755 196.683 78.5422 196.928C78.4089 197.173 78.3422 197.461 78.3422 197.792C78.3422 198.128 78.4089 198.421 78.5422 198.672C78.6755 198.917 78.8542 199.107 79.0782 199.24C79.3022 199.368 79.5502 199.432 79.8222 199.432C80.0942 199.432 80.3422 199.368 80.5662 199.24C80.7955 199.107 80.9769 198.917 81.1102 198.672C81.2435 198.421 81.3102 198.131 81.3102 197.8Z" fill="#9D9D9C"/>
<path d="M155.052 194.424V200H154.324V197.472H151.484V200H150.756V194.424H151.484V196.872H154.324V194.424H155.052ZM160.191 195.616V200H159.463V199.352C159.324 199.576 159.13 199.752 158.879 199.88C158.634 200.003 158.362 200.064 158.063 200.064C157.722 200.064 157.415 199.995 157.143 199.856C156.871 199.712 156.655 199.499 156.495 199.216C156.34 198.933 156.263 198.589 156.263 198.184V195.616H156.983V198.088C156.983 198.52 157.092 198.853 157.311 199.088C157.53 199.317 157.828 199.432 158.207 199.432C158.596 199.432 158.903 199.312 159.127 199.072C159.351 198.832 159.463 198.483 159.463 198.024V195.616H160.191ZM166.7 195.536C167.042 195.536 167.346 195.608 167.612 195.752C167.879 195.891 168.09 196.101 168.244 196.384C168.399 196.667 168.476 197.011 168.476 197.416V200H167.756V197.52C167.756 197.083 167.647 196.749 167.428 196.52C167.215 196.285 166.924 196.168 166.556 196.168C166.178 196.168 165.876 196.291 165.652 196.536C165.428 196.776 165.316 197.125 165.316 197.584V200H164.596V197.52C164.596 197.083 164.487 196.749 164.268 196.52C164.055 196.285 163.764 196.168 163.396 196.168C163.018 196.168 162.716 196.291 162.492 196.536C162.268 196.776 162.156 197.125 162.156 197.584V200H161.428V195.616H162.156V196.248C162.3 196.019 162.492 195.843 162.732 195.72C162.978 195.597 163.247 195.536 163.54 195.536C163.908 195.536 164.234 195.619 164.516 195.784C164.799 195.949 165.01 196.192 165.148 196.512C165.271 196.203 165.474 195.963 165.756 195.792C166.039 195.621 166.354 195.536 166.7 195.536ZM170.054 194.904C169.916 194.904 169.798 194.856 169.702 194.76C169.606 194.664 169.558 194.547 169.558 194.408C169.558 194.269 169.606 194.152 169.702 194.056C169.798 193.96 169.916 193.912 170.054 193.912C170.188 193.912 170.3 193.96 170.39 194.056C170.486 194.152 170.534 194.269 170.534 194.408C170.534 194.547 170.486 194.664 170.39 194.76C170.3 194.856 170.188 194.904 170.054 194.904ZM170.406 195.616V200H169.678V195.616H170.406ZM171.383 197.792C171.383 197.344 171.474 196.952 171.655 196.616C171.836 196.275 172.084 196.011 172.399 195.824C172.719 195.637 173.076 195.544 173.471 195.544C173.812 195.544 174.13 195.624 174.423 195.784C174.716 195.939 174.94 196.144 175.095 196.4V194.08H175.831V200H175.095V199.176C174.951 199.437 174.738 199.653 174.455 199.824C174.172 199.989 173.842 200.072 173.463 200.072C173.074 200.072 172.719 199.976 172.399 199.784C172.084 199.592 171.836 199.323 171.655 198.976C171.474 198.629 171.383 198.235 171.383 197.792ZM175.095 197.8C175.095 197.469 175.028 197.181 174.895 196.936C174.762 196.691 174.58 196.504 174.351 196.376C174.127 196.243 173.879 196.176 173.607 196.176C173.335 196.176 173.087 196.24 172.863 196.368C172.639 196.496 172.46 196.683 172.327 196.928C172.194 197.173 172.127 197.461 172.127 197.792C172.127 198.128 172.194 198.421 172.327 198.672C172.46 198.917 172.639 199.107 172.863 199.24C173.087 199.368 173.335 199.432 173.607 199.432C173.879 199.432 174.127 199.368 174.351 199.24C174.58 199.107 174.762 198.917 174.895 198.672C175.028 198.421 175.095 198.131 175.095 197.8ZM177.445 194.904C177.307 194.904 177.189 194.856 177.093 194.76C176.997 194.664 176.949 194.547 176.949 194.408C176.949 194.269 176.997 194.152 177.093 194.056C177.189 193.96 177.307 193.912 177.445 193.912C177.579 193.912 177.691 193.96 177.781 194.056C177.877 194.152 177.925 194.269 177.925 194.408C177.925 194.547 177.877 194.664 177.781 194.76C177.691 194.856 177.579 194.904 177.445 194.904ZM177.797 195.616V200H177.069V195.616H177.797ZM179.934 196.216V198.8C179.934 199.013 179.979 199.165 180.07 199.256C180.161 199.341 180.318 199.384 180.542 199.384H181.078V200H180.422C180.017 200 179.713 199.907 179.51 199.72C179.307 199.533 179.206 199.227 179.206 198.8V196.216H178.638V195.616H179.206V194.512H179.934V195.616H181.078V196.216H179.934ZM185.744 195.616L183.104 202.064H182.352L183.216 199.952L181.448 195.616H182.256L183.632 199.168L184.992 195.616H185.744Z" fill="#9D9D9C"/>
<path d="M259.204 194.424V195.016H257.684V200H256.956V195.016H255.428V194.424H259.204ZM260.484 194.904C260.345 194.904 260.228 194.856 260.132 194.76C260.036 194.664 259.988 194.547 259.988 194.408C259.988 194.269 260.036 194.152 260.132 194.056C260.228 193.96 260.345 193.912 260.484 193.912C260.617 193.912 260.729 193.96 260.82 194.056C260.916 194.152 260.964 194.269 260.964 194.408C260.964 194.547 260.916 194.664 260.82 194.76C260.729 194.856 260.617 194.904 260.484 194.904ZM260.836 195.616V200H260.108V195.616H260.836ZM261.813 197.792C261.813 197.344 261.904 196.952 262.085 196.616C262.266 196.275 262.514 196.011 262.829 195.824C263.149 195.637 263.506 195.544 263.901 195.544C264.242 195.544 264.56 195.624 264.853 195.784C265.146 195.939 265.37 196.144 265.525 196.4V194.08H266.261V200H265.525V199.176C265.381 199.437 265.168 199.653 264.885 199.824C264.602 199.989 264.272 200.072 263.893 200.072C263.504 200.072 263.149 199.976 262.829 199.784C262.514 199.592 262.266 199.323 262.085 198.976C261.904 198.629 261.813 198.235 261.813 197.792ZM265.525 197.8C265.525 197.469 265.458 197.181 265.325 196.936C265.192 196.691 265.01 196.504 264.781 196.376C264.557 196.243 264.309 196.176 264.037 196.176C263.765 196.176 263.517 196.24 263.293 196.368C263.069 196.496 262.89 196.683 262.757 196.928C262.624 197.173 262.557 197.461 262.557 197.792C262.557 198.128 262.624 198.421 262.757 198.672C262.89 198.917 263.069 199.107 263.293 199.24C263.517 199.368 263.765 199.432 264.037 199.432C264.309 199.432 264.557 199.368 264.781 199.24C265.01 199.107 265.192 198.917 265.325 198.672C265.458 198.421 265.525 198.131 265.525 197.8ZM271.499 197.64C271.499 197.779 271.491 197.925 271.475 198.08H267.971C267.998 198.512 268.144 198.851 268.411 199.096C268.683 199.336 269.011 199.456 269.395 199.456C269.71 199.456 269.971 199.384 270.179 199.24C270.392 199.091 270.542 198.893 270.627 198.648H271.411C271.294 199.069 271.059 199.413 270.707 199.68C270.355 199.941 269.918 200.072 269.395 200.072C268.979 200.072 268.606 199.979 268.275 199.792C267.95 199.605 267.694 199.341 267.507 199C267.32 198.653 267.227 198.253 267.227 197.8C267.227 197.347 267.318 196.949 267.499 196.608C267.68 196.267 267.934 196.005 268.259 195.824C268.59 195.637 268.968 195.544 269.395 195.544C269.811 195.544 270.179 195.635 270.499 195.816C270.819 195.997 271.064 196.248 271.235 196.568C271.411 196.883 271.499 197.24 271.499 197.64ZM270.747 197.488C270.747 197.211 270.686 196.973 270.563 196.776C270.44 196.573 270.272 196.421 270.059 196.32C269.851 196.213 269.619 196.16 269.363 196.16C268.995 196.16 268.68 196.277 268.419 196.512C268.163 196.747 268.016 197.072 267.979 197.488H270.747Z" fill="#9D9D9C"/>
<path d="M161.163 183.06C161.229 183.44 161.383 183.733 161.623 183.94C161.869 184.147 162.199 184.25 162.613 184.25C163.166 184.25 163.573 184.033 163.833 183.6C164.099 183.167 164.226 182.437 164.213 181.41C164.073 181.71 163.839 181.947 163.513 182.12C163.186 182.287 162.823 182.37 162.423 182.37C161.976 182.37 161.576 182.28 161.223 182.1C160.876 181.913 160.603 181.643 160.403 181.29C160.203 180.937 160.103 180.51 160.103 180.01C160.103 179.297 160.309 178.723 160.723 178.29C161.136 177.85 161.723 177.63 162.483 177.63C163.416 177.63 164.069 177.933 164.443 178.54C164.823 179.147 165.013 180.05 165.013 181.25C165.013 182.09 164.936 182.783 164.783 183.33C164.636 183.877 164.383 184.293 164.023 184.58C163.669 184.867 163.183 185.01 162.563 185.01C161.883 185.01 161.353 184.827 160.973 184.46C160.593 184.093 160.376 183.627 160.323 183.06H161.163ZM162.573 181.6C163.019 181.6 163.386 181.463 163.673 181.19C163.959 180.91 164.103 180.533 164.103 180.06C164.103 179.56 163.963 179.157 163.683 178.85C163.403 178.543 163.009 178.39 162.503 178.39C162.036 178.39 161.663 178.537 161.383 178.83C161.109 179.123 160.973 179.51 160.973 179.99C160.973 180.477 161.109 180.867 161.383 181.16C161.656 181.453 162.053 181.6 162.573 181.6ZM170.332 179.49C170.185 178.75 169.728 178.38 168.962 178.38C168.368 178.38 167.925 178.61 167.632 179.07C167.338 179.523 167.195 180.273 167.202 181.32C167.355 180.973 167.608 180.703 167.962 180.51C168.322 180.31 168.722 180.21 169.162 180.21C169.848 180.21 170.395 180.423 170.802 180.85C171.215 181.277 171.422 181.867 171.422 182.62C171.422 183.073 171.332 183.48 171.152 183.84C170.978 184.2 170.712 184.487 170.352 184.7C169.998 184.913 169.568 185.02 169.062 185.02C168.375 185.02 167.838 184.867 167.452 184.56C167.065 184.253 166.795 183.83 166.642 183.29C166.488 182.75 166.412 182.083 166.412 181.29C166.412 178.843 167.265 177.62 168.972 177.62C169.625 177.62 170.138 177.797 170.512 178.15C170.885 178.503 171.105 178.95 171.172 179.49H170.332ZM168.972 180.98C168.685 180.98 168.415 181.04 168.162 181.16C167.908 181.273 167.702 181.45 167.542 181.69C167.388 181.923 167.312 182.21 167.312 182.55C167.312 183.057 167.458 183.47 167.752 183.79C168.045 184.103 168.465 184.26 169.012 184.26C169.478 184.26 169.848 184.117 170.122 183.83C170.402 183.537 170.542 183.143 170.542 182.65C170.542 182.13 170.408 181.723 170.142 181.43C169.875 181.13 169.485 180.98 168.972 180.98ZM172.459 179.4C172.459 178.947 172.596 178.587 172.869 178.32C173.143 178.047 173.493 177.91 173.919 177.91C174.346 177.91 174.696 178.047 174.969 178.32C175.243 178.587 175.379 178.947 175.379 179.4C175.379 179.86 175.243 180.227 174.969 180.5C174.696 180.767 174.346 180.9 173.919 180.9C173.493 180.9 173.143 180.767 172.869 180.5C172.596 180.227 172.459 179.86 172.459 179.4ZM178.299 178.02L174.249 185H173.349L177.399 178.02H178.299ZM173.919 178.47C173.693 178.47 173.513 178.55 173.379 178.71C173.253 178.863 173.189 179.093 173.189 179.4C173.189 179.707 173.253 179.94 173.379 180.1C173.513 180.26 173.693 180.34 173.919 180.34C174.146 180.34 174.326 180.26 174.459 180.1C174.593 179.933 174.659 179.7 174.659 179.4C174.659 179.093 174.593 178.863 174.459 178.71C174.326 178.55 174.146 178.47 173.919 178.47ZM176.289 183.62C176.289 183.16 176.426 182.797 176.699 182.53C176.973 182.257 177.323 182.12 177.749 182.12C178.176 182.12 178.523 182.257 178.789 182.53C179.063 182.797 179.199 183.16 179.199 183.62C179.199 184.073 179.063 184.437 178.789 184.71C178.523 184.983 178.176 185.12 177.749 185.12C177.323 185.12 176.973 184.987 176.699 184.72C176.426 184.447 176.289 184.08 176.289 183.62ZM177.739 182.69C177.513 182.69 177.333 182.77 177.199 182.93C177.066 183.083 176.999 183.313 176.999 183.62C176.999 183.92 177.066 184.15 177.199 184.31C177.333 184.463 177.513 184.54 177.739 184.54C177.966 184.54 178.146 184.463 178.279 184.31C178.413 184.15 178.479 183.92 178.479 183.62C178.479 183.313 178.413 183.083 178.279 182.93C178.146 182.77 177.966 182.69 177.739 182.69Z" fill="#0460D5"/>
<path d="M235.353 178.88V178.216H236.857V184H236.121V178.88H235.353ZM238.468 184.048C238.329 184.048 238.212 184 238.116 183.904C238.02 183.808 237.972 183.691 237.972 183.552C237.972 183.413 238.02 183.296 238.116 183.2C238.212 183.104 238.329 183.056 238.468 183.056C238.601 183.056 238.713 183.104 238.804 183.2C238.9 183.296 238.948 183.413 238.948 183.552C238.948 183.691 238.9 183.808 238.804 183.904C238.713 184 238.601 184.048 238.468 184.048ZM239.716 183.416C240.393 182.872 240.924 182.427 241.308 182.08C241.692 181.728 242.014 181.363 242.276 180.984C242.542 180.6 242.676 180.224 242.676 179.856C242.676 179.509 242.59 179.237 242.42 179.04C242.254 178.837 241.985 178.736 241.612 178.736C241.249 178.736 240.966 178.851 240.764 179.08C240.566 179.304 240.46 179.605 240.444 179.984H239.74C239.761 179.387 239.942 178.925 240.284 178.6C240.625 178.275 241.065 178.112 241.604 178.112C242.153 178.112 242.588 178.264 242.908 178.568C243.233 178.872 243.396 179.291 243.396 179.824C243.396 180.267 243.262 180.699 242.996 181.12C242.734 181.536 242.436 181.904 242.1 182.224C241.764 182.539 241.334 182.907 240.812 183.328H243.564V183.936H239.716V183.416ZM248.101 178.848H245.293V180.672C245.416 180.501 245.597 180.363 245.837 180.256C246.077 180.144 246.336 180.088 246.613 180.088C247.056 180.088 247.416 180.181 247.693 180.368C247.97 180.549 248.168 180.787 248.285 181.08C248.408 181.368 248.469 181.675 248.469 182C248.469 182.384 248.397 182.728 248.253 183.032C248.109 183.336 247.888 183.576 247.589 183.752C247.296 183.928 246.93 184.016 246.493 184.016C245.933 184.016 245.48 183.872 245.133 183.584C244.786 183.296 244.576 182.912 244.501 182.432H245.213C245.282 182.736 245.429 182.973 245.653 183.144C245.877 183.315 246.16 183.4 246.501 183.4C246.922 183.4 247.24 183.275 247.453 183.024C247.666 182.768 247.773 182.432 247.773 182.016C247.773 181.6 247.666 181.28 247.453 181.056C247.24 180.827 246.925 180.712 246.509 180.712C246.226 180.712 245.978 180.781 245.765 180.92C245.557 181.053 245.405 181.237 245.309 181.472H244.621V178.208H248.101V178.848ZM253.489 180.216H252.569V184H251.841V180.216H251.273V179.616H251.841V179.304C251.841 178.813 251.967 178.456 252.217 178.232C252.473 178.003 252.881 177.888 253.441 177.888V178.496C253.121 178.496 252.895 178.56 252.761 178.688C252.633 178.811 252.569 179.016 252.569 179.304V179.616H253.489V180.216ZM255.234 180.216V182.8C255.234 183.013 255.28 183.165 255.37 183.256C255.461 183.341 255.618 183.384 255.842 183.384H256.378V184H255.722C255.317 184 255.013 183.907 254.81 183.72C254.608 183.533 254.506 183.227 254.506 182.8V180.216H253.938V179.616H254.506V178.512H255.234V179.616H256.378V180.216H255.234ZM261.281 185.488C260.769 184.987 260.369 184.349 260.081 183.576C259.798 182.803 259.657 181.968 259.657 181.072C259.657 180.155 259.806 179.299 260.105 178.504C260.409 177.704 260.841 177.045 261.401 176.528H262.161V176.6C261.564 177.16 261.113 177.835 260.809 178.624C260.51 179.408 260.361 180.224 260.361 181.072C260.361 181.899 260.502 182.688 260.785 183.44C261.073 184.192 261.492 184.851 262.041 185.416V185.488H261.281ZM262.93 181.048C262.93 180.131 263.079 179.416 263.378 178.904C263.677 178.387 264.199 178.128 264.946 178.128C265.687 178.128 266.207 178.387 266.506 178.904C266.805 179.416 266.954 180.131 266.954 181.048C266.954 181.981 266.805 182.707 266.506 183.224C266.207 183.741 265.687 184 264.946 184C264.199 184 263.677 183.741 263.378 183.224C263.079 182.707 262.93 181.981 262.93 181.048ZM266.234 181.048C266.234 180.584 266.202 180.192 266.138 179.872C266.079 179.547 265.954 179.285 265.762 179.088C265.575 178.891 265.303 178.792 264.946 178.792C264.583 178.792 264.306 178.891 264.114 179.088C263.927 179.285 263.802 179.547 263.738 179.872C263.679 180.192 263.65 180.584 263.65 181.048C263.65 181.528 263.679 181.931 263.738 182.256C263.802 182.581 263.927 182.843 264.114 183.04C264.306 183.237 264.583 183.336 264.946 183.336C265.303 183.336 265.575 183.237 265.762 183.04C265.954 182.843 266.079 182.581 266.138 182.256C266.202 181.931 266.234 181.528 266.234 181.048ZM268.313 184.048C268.175 184.048 268.057 184 267.961 183.904C267.865 183.808 267.817 183.691 267.817 183.552C267.817 183.413 267.865 183.296 267.961 183.2C268.057 183.104 268.175 183.056 268.313 183.056C268.447 183.056 268.559 183.104 268.649 183.2C268.745 183.296 268.793 183.413 268.793 183.552C268.793 183.691 268.745 183.808 268.649 183.904C268.559 184 268.447 184.048 268.313 184.048ZM269.633 179.672C269.67 179.181 269.86 178.797 270.201 178.52C270.542 178.243 270.985 178.104 271.529 178.104C271.892 178.104 272.204 178.171 272.465 178.304C272.732 178.432 272.932 178.608 273.065 178.832C273.204 179.056 273.273 179.309 273.273 179.592C273.273 179.923 273.177 180.208 272.985 180.448C272.798 180.688 272.553 180.843 272.249 180.912V180.952C272.596 181.037 272.87 181.205 273.073 181.456C273.276 181.707 273.377 182.035 273.377 182.44C273.377 182.744 273.308 183.019 273.169 183.264C273.03 183.504 272.822 183.693 272.545 183.832C272.268 183.971 271.934 184.04 271.545 184.04C270.98 184.04 270.516 183.893 270.153 183.6C269.79 183.301 269.588 182.88 269.545 182.336H270.249C270.286 182.656 270.417 182.917 270.641 183.12C270.865 183.323 271.164 183.424 271.537 183.424C271.91 183.424 272.193 183.328 272.385 183.136C272.582 182.939 272.681 182.685 272.681 182.376C272.681 181.976 272.548 181.688 272.281 181.512C272.014 181.336 271.612 181.248 271.073 181.248H270.889V180.64H271.081C271.572 180.635 271.942 180.555 272.193 180.4C272.444 180.24 272.569 179.995 272.569 179.664C272.569 179.381 272.476 179.155 272.289 178.984C272.108 178.813 271.846 178.728 271.505 178.728C271.174 178.728 270.908 178.813 270.705 178.984C270.502 179.155 270.382 179.384 270.345 179.672H269.633ZM275.424 180.992C275.125 180.875 274.896 180.704 274.736 180.48C274.576 180.256 274.496 179.984 274.496 179.664C274.496 179.376 274.568 179.117 274.712 178.888C274.856 178.653 275.069 178.469 275.352 178.336C275.64 178.197 275.987 178.128 276.392 178.128C276.797 178.128 277.141 178.197 277.424 178.336C277.712 178.469 277.928 178.653 278.072 178.888C278.221 179.117 278.296 179.376 278.296 179.664C278.296 179.973 278.213 180.245 278.048 180.48C277.883 180.709 277.656 180.88 277.368 180.992C277.699 181.093 277.96 181.272 278.152 181.528C278.349 181.779 278.448 182.083 278.448 182.44C278.448 182.787 278.363 183.091 278.192 183.352C278.021 183.608 277.779 183.808 277.464 183.952C277.155 184.091 276.797 184.16 276.392 184.16C275.987 184.16 275.629 184.091 275.32 183.952C275.016 183.808 274.779 183.608 274.608 183.352C274.437 183.091 274.352 182.787 274.352 182.44C274.352 182.083 274.448 181.776 274.64 181.52C274.832 181.264 275.093 181.088 275.424 180.992ZM277.592 179.752C277.592 179.427 277.485 179.176 277.272 179C277.059 178.824 276.765 178.736 276.392 178.736C276.024 178.736 275.733 178.824 275.52 179C275.307 179.176 275.2 179.429 275.2 179.76C275.2 180.059 275.309 180.299 275.528 180.48C275.752 180.661 276.04 180.752 276.392 180.752C276.749 180.752 277.037 180.661 277.256 180.48C277.48 180.293 277.592 180.051 277.592 179.752ZM276.392 181.312C275.997 181.312 275.675 181.405 275.424 181.592C275.173 181.773 275.048 182.048 275.048 182.416C275.048 182.757 275.168 183.032 275.408 183.24C275.653 183.448 275.981 183.552 276.392 183.552C276.803 183.552 277.128 183.448 277.368 183.24C277.608 183.032 277.728 182.757 277.728 182.416C277.728 182.059 277.605 181.787 277.36 181.6C277.115 181.408 276.792 181.312 276.392 181.312ZM286.956 179.536C287.297 179.536 287.601 179.608 287.868 179.752C288.134 179.891 288.345 180.101 288.5 180.384C288.654 180.667 288.732 181.011 288.732 181.416V184H288.012V181.52C288.012 181.083 287.902 180.749 287.684 180.52C287.47 180.285 287.18 180.168 286.812 180.168C286.433 180.168 286.132 180.291 285.908 180.536C285.684 180.776 285.572 181.125 285.572 181.584V184H284.852V181.52C284.852 181.083 284.742 180.749 284.524 180.52C284.31 180.285 284.02 180.168 283.652 180.168C283.273 180.168 282.972 180.291 282.748 180.536C282.524 180.776 282.412 181.125 282.412 181.584V184H281.684V179.616H282.412V180.248C282.556 180.019 282.748 179.843 282.988 179.72C283.233 179.597 283.502 179.536 283.796 179.536C284.164 179.536 284.489 179.619 284.772 179.784C285.054 179.949 285.265 180.192 285.404 180.512C285.526 180.203 285.729 179.963 286.012 179.792C286.294 179.621 286.609 179.536 286.956 179.536ZM289.702 185.488V185.416C290.251 184.851 290.667 184.192 290.95 183.44C291.238 182.688 291.382 181.899 291.382 181.072C291.382 180.224 291.23 179.408 290.926 178.624C290.627 177.835 290.179 177.16 289.582 176.6V176.528H290.342C290.902 177.045 291.331 177.704 291.63 178.504C291.934 179.299 292.086 180.155 292.086 181.072C292.086 181.968 291.942 182.803 291.654 183.576C291.371 184.349 290.974 184.987 290.462 185.488H289.702Z" fill="#0460D5"/>
<path d="M173.672 158.746L169.529 152.148C169.469 152.064 169.39 151.995 169.298 151.947C169.206 151.9 169.104 151.875 169 151.875C168.896 151.875 168.794 151.9 168.702 151.947C168.61 151.995 168.531 152.064 168.471 152.148L164.309 158.777C163.731 159.709 163.408 160.778 163.375 161.875C163.375 163.367 163.968 164.798 165.023 165.852C166.077 166.907 167.508 167.5 169 167.5C170.492 167.5 171.923 166.907 172.977 165.852C174.032 164.798 174.625 163.367 174.625 161.875C174.589 160.766 174.26 159.686 173.672 158.746ZM169 166.25C167.84 166.248 166.728 165.787 165.908 164.967C165.088 164.147 164.626 163.035 164.625 161.875C164.658 161.001 164.921 160.151 165.386 159.411L165.971 158.479L172.267 164.776C171.858 165.239 171.355 165.61 170.792 165.864C170.229 166.119 169.618 166.25 169 166.25Z" fill="#0460D5"/>
<path d="M262.75 154.375L259.625 151.25L256.5 154.375L257.383 155.26L259 153.646V158.75H260.25V153.646L261.866 155.259L262.75 154.375ZM270.616 154.741L269 156.354V151.25H267.75V156.354L266.133 154.74L265.25 155.625L268.375 158.75L271.5 155.625L270.616 154.741ZM266.5 162.5C266.074 162.475 265.666 162.324 265.326 162.066C264.987 161.809 264.732 161.456 264.593 161.052C264.551 160.928 264.471 160.82 264.365 160.744C264.259 160.667 264.131 160.626 264 160.625C263.869 160.624 263.741 160.665 263.635 160.741C263.529 160.817 263.449 160.925 263.408 161.049C263.27 161.453 263.015 161.807 262.675 162.065C262.335 162.324 261.926 162.475 261.5 162.5C261.074 162.475 260.666 162.324 260.326 162.066C259.987 161.809 259.732 161.456 259.593 161.052C259.551 160.928 259.471 160.82 259.365 160.744C259.259 160.667 259.131 160.626 259 160.625C258.869 160.622 258.74 160.662 258.633 160.739C258.527 160.815 258.448 160.924 258.408 161.049C258.27 161.453 258.015 161.807 257.675 162.065C257.335 162.324 256.926 162.475 256.5 162.5H255.25V163.75H256.5C256.985 163.754 257.464 163.644 257.899 163.428C258.333 163.212 258.71 162.897 259 162.508C259.293 162.894 259.671 163.207 260.104 163.422C260.538 163.638 261.016 163.75 261.5 163.75C261.984 163.75 262.462 163.638 262.896 163.422C263.329 163.207 263.707 162.894 264 162.508C264.29 162.897 264.667 163.212 265.101 163.428C265.536 163.644 266.015 163.754 266.5 163.75H272.75V162.5H266.5ZM271.5 167.5C271.074 167.475 270.666 167.324 270.326 167.066C269.987 166.809 269.732 166.456 269.593 166.052C269.551 165.928 269.471 165.82 269.365 165.744C269.259 165.667 269.131 165.626 269 165.625C268.869 165.624 268.741 165.665 268.635 165.741C268.529 165.817 268.449 165.925 268.408 166.049C268.27 166.453 268.015 166.807 267.675 167.065C267.335 167.324 266.926 167.475 266.5 167.5C266.074 167.475 265.666 167.324 265.326 167.066C264.987 166.809 264.732 166.456 264.593 166.052C264.551 165.928 264.471 165.82 264.365 165.744C264.259 165.667 264.131 165.626 264 165.625C263.869 165.622 263.74 165.662 263.633 165.739C263.527 165.815 263.448 165.924 263.408 166.049C263.27 166.453 263.015 166.807 262.675 167.065C262.335 167.324 261.926 167.475 261.5 167.5H255.25V168.75H261.5C261.985 168.754 262.464 168.644 262.899 168.428C263.333 168.212 263.71 167.897 264 167.508C264.293 167.894 264.671 168.207 265.104 168.422C265.538 168.638 266.016 168.75 266.5 168.75C266.984 168.75 267.462 168.638 267.896 168.422C268.329 168.207 268.707 167.894 269 167.508C269.29 167.897 269.667 168.212 270.101 168.428C270.536 168.644 271.015 168.754 271.5 168.75H272.75V167.5H271.5Z" fill="#0460D5"/>
<path opacity="0.2" d="M72.375 158.5C72.0042 158.5 71.6416 158.39 71.3333 158.184C71.025 157.978 70.7846 157.685 70.6427 157.343C70.5008 157 70.4637 156.623 70.536 156.259C70.6084 155.895 70.787 155.561 71.0492 155.299C71.3114 155.037 71.6455 154.858 72.0092 154.786C72.3729 154.714 72.7499 154.751 73.0925 154.893C73.4351 155.035 73.728 155.275 73.934 155.583C74.14 155.892 74.25 156.254 74.25 156.625C74.25 157.122 74.0525 157.599 73.7008 157.951C73.3492 158.302 72.8723 158.5 72.375 158.5ZM79.25 157.25C78.8792 157.25 78.5166 157.36 78.2083 157.566C77.9 157.772 77.6596 158.065 77.5177 158.407C77.3758 158.75 77.3387 159.127 77.411 159.491C77.4834 159.855 77.662 160.189 77.9242 160.451C78.1864 160.713 78.5205 160.892 78.8842 160.964C79.2479 161.036 79.6249 160.999 79.9675 160.857C80.3101 160.715 80.603 160.475 80.809 160.167C81.015 159.858 81.125 159.496 81.125 159.125C81.125 158.628 80.9275 158.151 80.5758 157.799C80.2242 157.448 79.7473 157.25 79.25 157.25ZM74.875 163.5C74.5042 163.5 74.1416 163.61 73.8333 163.816C73.525 164.022 73.2846 164.315 73.1427 164.657C73.0008 165 72.9637 165.377 73.036 165.741C73.1084 166.105 73.287 166.439 73.5492 166.701C73.8114 166.963 74.1455 167.142 74.5092 167.214C74.8729 167.286 75.2499 167.249 75.5925 167.107C75.9351 166.965 76.228 166.725 76.434 166.417C76.64 166.108 76.75 165.746 76.75 165.375C76.75 164.878 76.5525 164.401 76.2008 164.049C75.8492 163.698 75.3723 163.5 74.875 163.5Z" fill="#0460D5"/>
<path d="M77.375 165.375C77.375 166.038 77.1116 166.674 76.6428 167.143C76.1739 167.612 75.538 167.875 74.875 167.875C73.8047 167.875 72.7695 167.177 72.4141 166.217C72.36 166.063 72.3687 165.893 72.4384 165.745C72.5081 165.597 72.6332 165.482 72.7868 165.425C72.9403 165.368 73.1101 165.373 73.2596 165.44C73.409 165.507 73.5262 165.63 73.5859 165.783C73.7609 166.255 74.3281 166.625 74.875 166.625C75.2065 166.625 75.5245 166.493 75.7589 166.259C75.9933 166.024 76.125 165.707 76.125 165.375C76.125 165.043 75.9933 164.726 75.7589 164.491C75.5245 164.257 75.2065 164.125 74.875 164.125H66.125C65.9592 164.125 65.8003 164.059 65.6831 163.942C65.5658 163.825 65.5 163.666 65.5 163.5C65.5 163.334 65.5658 163.175 65.6831 163.058C65.8003 162.941 65.9592 162.875 66.125 162.875H74.875C75.538 162.875 76.1739 163.138 76.6428 163.607C77.1116 164.076 77.375 164.712 77.375 165.375ZM72.375 159.125C73.038 159.125 73.6739 158.862 74.1428 158.393C74.6116 157.924 74.875 157.288 74.875 156.625C74.875 155.962 74.6116 155.326 74.1428 154.857C73.6739 154.388 73.038 154.125 72.375 154.125C71.3047 154.125 70.2695 154.823 69.9141 155.783C69.86 155.937 69.8687 156.107 69.9384 156.255C70.0081 156.403 70.1332 156.518 70.2868 156.575C70.4403 156.632 70.6101 156.627 70.7596 156.56C70.909 156.493 71.0262 156.37 71.0859 156.217C71.2609 155.745 71.8281 155.375 72.375 155.375C72.7065 155.375 73.0245 155.507 73.2589 155.741C73.4933 155.976 73.625 156.293 73.625 156.625C73.625 156.957 73.4933 157.274 73.2589 157.509C73.0245 157.743 72.7065 157.875 72.375 157.875H64.875C64.7092 157.875 64.5503 157.941 64.4331 158.058C64.3158 158.175 64.25 158.334 64.25 158.5C64.25 158.666 64.3158 158.825 64.4331 158.942C64.5503 159.059 64.7092 159.125 64.875 159.125H72.375ZM79.25 156.625C78.1797 156.625 77.1445 157.323 76.7891 158.283C76.735 158.437 76.7437 158.607 76.8134 158.755C76.8831 158.903 77.0082 159.018 77.1618 159.075C77.3153 159.132 77.4851 159.127 77.6346 159.06C77.784 158.993 77.9012 158.87 77.9609 158.717C78.1359 158.245 78.7031 157.875 79.25 157.875C79.5815 157.875 79.8995 158.007 80.1339 158.241C80.3683 158.476 80.5 158.793 80.5 159.125C80.5 159.457 80.3683 159.774 80.1339 160.009C79.8995 160.243 79.5815 160.375 79.25 160.375H65.5C65.3342 160.375 65.1753 160.441 65.0581 160.558C64.9408 160.675 64.875 160.834 64.875 161C64.875 161.166 64.9408 161.325 65.0581 161.442C65.1753 161.559 65.3342 161.625 65.5 161.625H79.25C79.913 161.625 80.5489 161.362 81.0178 160.893C81.4866 160.424 81.75 159.788 81.75 159.125C81.75 158.462 81.4866 157.826 81.0178 157.357C80.5489 156.888 79.913 156.625 79.25 156.625Z" fill="#0460D5"/>
<defs>
<filter id="filter0_d_9_1098" x="39" y="142" width="68" height="75" filterUnits="userSpaceOnUse" color-interpolation-filters="sRGB">
<feFlood flood-opacity="0" result="BackgroundImageFix"/>
<feColorMatrix in="SourceAlpha" type="matrix" values="0 0 0 0 0 0 0 0 0 0 0 0 0 0 0 0 0 0 127 0" result="hardAlpha"/>
<feOffset dy="4"/>
<feGaussianBlur stdDeviation="2"/>
<feComposite in2="hardAlpha" operator="out"/>
<feColorMatrix type="matrix" values="0 0 0 0 0 0 0 0 0 0 0 0 0 0 0 0 0 0 0.06 0"/>
<feBlend mode="normal" in2="BackgroundImageFix" result="effect1_dropShadow_9_1098"/>
<feBlend mode="normal" in="SourceGraphic" in2="effect1_dropShadow_9_1098" result="shape"/>
</filter>
<filter id="filter1_d_9_1098" x="134" y="142" width="68" height="75" filterUnits="userSpaceOnUse" color-interpolation-filters="sRGB">
<feFlood flood-opacity="0" result="BackgroundImageFix"/>
<feColorMatrix in="SourceAlpha" type="matrix" values="0 0 0 0 0 0 0 0 0 0 0 0 0 0 0 0 0 0 127 0" result="hardAlpha"/>
<feOffset dy="4"/>
<feGaussianBlur stdDeviation="2"/>
<feComposite in2="hardAlpha" operator="out"/>
<feColorMatrix type="matrix" values="0 0 0 0 0 0 0 0 0 0 0 0 0 0 0 0 0 0 0.06 0"/>
<feBlend mode="normal" in2="BackgroundImageFix" result="effect1_dropShadow_9_1098"/>
<feBlend mode="normal" in="SourceGraphic" in2="effect1_dropShadow_9_1098" result="shape"/>
</filter>
<filter id="filter2_d_9_1098" x="229" y="142" width="68" height="75" filterUnits="userSpaceOnUse" color-interpolation-filters="sRGB">
<feFlood flood-opacity="0" result="BackgroundImageFix"/>
<feColorMatrix in="SourceAlpha" type="matrix" values="0 0 0 0 0 0 0 0 0 0 0 0 0 0 0 0 0 0 127 0" result="hardAlpha"/>
<feOffset dy="4"/>
<feGaussianBlur stdDeviation="2"/>
<feComposite in2="hardAlpha" operator="out"/>
<feColorMatrix type="matrix" values="0 0 0 0 0 0 0 0 0 0 0 0 0 0 0 0 0 0 0.06 0"/>
<feBlend mode="normal" in2="BackgroundImageFix" result="effect1_dropShadow_9_1098"/>
<feBlend mode="normal" in="SourceGraphic" in2="effect1_dropShadow_9_1098" result="shape"/>
</filter>
<linearGradient id="paint0_linear_9_1098" x1="171" y1="0" x2="171" y2="136" gradientUnits="userSpaceOnUse">
<stop stop-color="#0460D5"/>
<stop offset="1" stop-color="#3B91FF" stop-opacity="0"/>
</linearGradient>
</defs>
</svg>
